<svg width="138" height="131" viewBox="0 0 138 131" fill="none" xmlns="http://www.w3.org/2000/svg">
<path opacity="0.3" d="M120.369 57.7362C131.067 46.3875 142.875 35.9472 154 25.0174C138.71 24.1733 123.262 21.7584 107.943 22.4344C107.74 11.6122 107.081 0.851758 104.768 -9.77647C95.5753 -0.957513 85.6094 7.61183 77.9996 17.852C73.5165 5.67032 67.1594 -6.47805 59.5952 -17C52.2345 -4.88382 45.7182 8.78339 41.5828 22.2874C31.1841 20.2718 20.2258 19.1471 9.64459 19.1261C12.7985 29.8779 16.9361 40.3517 20.852 50.844C14.1311 58.0205 7.8862 66.528 3 75.1146C10.0587 77.0018 17.412 77.742 24.5656 79.209C23.086 90.444 22.8347 101.837 22.1442 113.141C31.3902 108.885 40.006 103.422 48.3716 97.6527C53.6228 107.66 58.2637 117.967 63.4705 128C69.4565 118.22 75.4829 108.147 82.1421 98.8008C89.4992 106.352 99.0213 111.52 106.994 118.427C106.049 108.222 106.635 97.9987 106.567 87.7721C117.892 88.2207 129.464 87.855 140.812 87.8673C133.677 78.7789 126.573 69.6732 119.953 60.1918" stroke="#96C8BD" stroke-width="5" stroke-miterlimit="1.5" stroke-linecap="round" stroke-linejoin="round"/>
</svg>
