<svg width="22" height="21" viewBox="0 0 22 21" fill="none" xmlns="http://www.w3.org/2000/svg">
<path d="M8 19.25V11.375H6.875C5.38316 11.375 3.95242 10.7824 2.89752 9.72748C1.84263 8.67258 1.25 7.24184 1.25 5.75V5.75C1.25246 5.25348 1.4508 4.778 1.8019 4.4269C2.153 4.0758 2.62848 3.87746 3.125 3.875C3.62152 3.87746 4.097 4.0758 4.4481 4.4269C4.7992 4.778 4.99754 5.25348 5 5.75C5.00246 6.24652 5.2008 6.722 5.5519 7.0731C5.903 7.4242 6.37848 7.62254 6.875 7.625H8V4.25C8 3.45435 8.31607 2.69129 8.87868 2.12868C9.44129 1.56607 10.2044 1.25 11 1.25V1.25C11.7956 1.25 12.5587 1.56607 13.1213 2.12868C13.6839 2.69129 14 3.45435 14 4.25V11.375H15.125C15.6215 11.3725 16.097 11.1742 16.4481 10.8231C16.7992 10.472 16.9975 9.99652 17 9.5V9.5C17.0025 9.00348 17.2008 8.528 17.5519 8.1769C17.903 7.8258 18.3785 7.62746 18.875 7.625C19.3715 7.62746 19.847 7.8258 20.1981 8.1769C20.5492 8.528 20.7475 9.00348 20.75 9.5V9.5C20.75 10.9918 20.1574 12.4226 19.1025 13.4775C18.0476 14.5324 16.6168 15.125 15.125 15.125H14V19.25" stroke="#C6D65D" stroke-width="2" stroke-linecap="round" stroke-linejoin="round"/>
</svg>
