<svg width="240" height="53" viewBox="0 0 240 53" fill="none" xmlns="http://www.w3.org/2000/svg">
<path d="M73.314 0V52.2132H82.5442V44.0594L87.0174 38.3374L95.3956 52.2132H105.904L93.4785 31.1849L104.058 15.9501H93.0525L82.5442 30.6127V0H73.314Z" fill="#0F5C4C"/>
<path d="M5.89316 15.9501L5.96417 7.15249H15.2654L15.1944 15.9501H23.4307V24.39H15.1234L14.9814 39.0526C14.9814 42.8435 16.1885 44.274 19.6675 44.274C21.0166 44.274 22.2236 44.1309 23.4307 43.7733V51.9271C22.0816 52.4278 20.0936 52.7139 17.6085 52.7139C9.58527 52.7139 5.68016 49.2807 5.75116 41.2699L5.89316 24.39H0V15.9501H5.89316Z" fill="#0F5C4C"/>
<path d="M33.5063 20.4561C37.0564 16.9514 41.5295 15.1633 46.9967 15.1633C52.4638 15.1633 57.0079 16.9514 60.558 20.4561C64.1791 23.9609 65.9542 28.4669 65.9542 34.0459C65.9542 39.189 64.4456 43.4812 61.3729 46.8662C61.7322 41.8999 59.319 36.9273 54.7511 34.2706L43.2249 27.5669C39.5496 33.9796 41.7307 42.1794 48.0964 45.8817L56.4704 50.752C53.7156 52.2441 50.5512 53 46.9967 53C41.5295 53 37.0564 51.2119 33.5063 47.7072C29.9562 44.2024 28.1811 39.6248 28.1811 34.0459C28.1811 28.4669 29.9562 23.9609 33.5063 20.4561Z" fill="#C6D65D"/>
<path d="M111.516 52.2132V0H120.675V19.7409C122.734 16.6653 125.787 15.1633 129.834 15.1633C137.432 15.1633 141.479 20.3131 141.479 28.6815V52.2132H132.177V30.6842C132.177 26.3212 130.473 24.1754 127.065 24.1754C123.302 24.1754 120.675 27.3225 120.675 33.0445V52.2132H111.516Z" fill="#0F5C4C"/>
<path d="M170.714 15.9501V35.4049C170.714 41.0553 168.158 43.9879 164.537 43.9879C161.129 43.9879 159.425 41.7706 159.425 37.4076V15.9501H150.195V39.4818C150.195 47.8502 154.171 53 161.768 53C166.241 53 169.365 51.1403 171.282 47.4926L171.992 52.2132H179.874V15.9501H170.714Z" fill="#0F5C4C"/>
<path d="M218.131 21.529C219.906 17.8097 223.67 15.1633 228.498 15.1633C235.953 15.1633 240 20.3131 240 28.6815V52.2132H230.77V30.6842C230.77 26.3212 229.066 24.1754 225.729 24.1754C222.107 24.1754 219.48 27.108 219.409 32.6154V52.2132H210.179V30.6842C210.179 26.3212 208.475 24.1754 205.138 24.1754C201.446 24.1754 198.819 27.251 198.819 33.0445V52.2132H189.66V15.9501H197.541L198.251 20.6707C200.168 17.0229 203.363 15.1633 207.836 15.1633C212.877 15.1633 216.356 17.309 218.131 21.529Z" fill="#0F5C4C"/>
</svg>
