<svg width="132" height="103" viewBox="0 0 132 103" fill="none" xmlns="http://www.w3.org/2000/svg">
<path d="M-33.4789 14.3272C-31.7895 11.3982 -30.4854 8.69966 -28.7945 6.234C-17.0336 -10.4853 -0.532215 -17.9996 19.622 -18.3204C30.3554 -18.5172 40.4035 -15.7046 49.3816 -9.49761C57.8952 -3.60103 63.6354 4.29435 66.1391 14.3415C70.4433 31.8851 60.5378 49.2282 43.3336 54.3464C35.6187 56.638 27.6649 56.6895 19.7845 55.5828C0.855855 52.8186 -15.1563 44.5037 -28.253 30.3294C-29.1052 29.4772 -29.88 28.7024 -31.0421 27.5403C-31.27 28.6979 -31.5764 29.4692 -31.6509 30.3184C-32.4635 41.6676 -29.2635 52.1031 -22.8241 61.3135C-4.90244 86.9325 19.7719 99.2911 50.9643 97.5389C68.0276 96.5903 83.065 90.0751 94.761 77.1396C103.225 67.7458 109.832 57.1104 114.582 45.3879C115.041 44.3083 115.347 43.2282 115.729 42.0711C115.882 41.6082 115.881 41.1449 115.955 40.2956C115.029 40.6015 114.258 40.7535 113.718 41.1378C109.942 43.5195 106.398 45.9792 102.622 48.3608C101.62 49.0526 100.464 49.7439 99.2292 50.0487C98.535 50.2782 97.0665 49.8873 96.833 49.346C96.4447 48.6497 96.7496 47.4151 96.901 46.4889C96.977 46.103 97.5168 45.8731 97.9021 45.6427C104.683 41.1858 111.542 36.8063 118.401 32.4268C121.868 30.1986 123.569 30.8219 124.972 34.6876C125.284 35.6153 125.595 36.3885 125.83 37.3932C127.712 46.2028 129.594 55.0123 131.244 63.7439C131.793 66.4485 131.88 69.306 131.889 72.0861C131.893 73.3217 131.589 74.7107 130.974 75.7898C130.667 76.4066 129.434 77.0204 128.661 76.8634C127.966 76.784 127.422 75.7783 126.802 75.1585C126.57 74.9261 126.646 74.5402 126.722 74.1543C127.157 65.6612 124.814 57.4679 123.166 49.3542C122.696 47.1904 122.226 45.181 121.521 42.1671C120.907 43.2462 120.676 43.6316 120.601 44.0174C116.701 56.1288 110.095 66.7642 102.172 76.5459C85.3288 97.5732 62.572 104.99 36.3853 102.511C15.0649 100.434 -3.11302 91.0312 -17.9901 75.5383C-24.9638 68.2567 -30.551 59.8984 -33.826 50.1577C-36.6331 41.8085 -37.5104 33.2339 -35.8395 24.5903C-35.3842 22.1206 -35.8535 20.2657 -37.0192 18.0225C-39.3499 13.6904 -41.6037 9.28137 -43.0857 4.7204C-49.8691 -15.3024 -43.7533 -34.4339 -26.3397 -46.4243C-10.0053 -57.8003 7.90313 -60.0589 26.7698 -52.5843C30.3267 -51.1827 33.4231 -48.856 36.7505 -46.7602C37.9111 -46.0614 38.8418 -44.8228 39.6176 -43.7392C40.2384 -42.8105 40.2424 -41.5749 39.1633 -40.9606C38.4695 -40.5767 37.3879 -40.7347 36.6156 -40.7372C36.3067 -40.7382 36.0738 -41.1251 35.8414 -41.3575C27.7086 -48.8745 17.8928 -51.4547 7.38986 -51.6433C-6.51096 -51.8428 -18.8523 -47.4039 -29.0138 -37.5523C-37.7898 -29.0862 -41.3855 -18.6727 -40.5742 -6.62327C-40.0103 0.560318 -37.3581 8.75459 -33.4789 14.3272ZM-22.3095 29.4992C-12.3158 39.339 -0.479243 45.9414 13.0452 49.1514C21.3919 51.1863 29.8116 51.9086 38.3012 50.3917C58.5214 46.5961 66.4861 26.0806 59.0974 9.91693C55.2087 1.40977 48.9332 -4.86568 40.3491 -8.67746C23.8771 -15.9127 7.8195 -14.4203 -7.75269 -6.13068C-17.6203 -0.911509 -24.6989 7.09674 -28.9899 17.4307C-29.9095 19.59 -29.6726 21.2125 -28.2001 22.8389C-26.1078 25.0852 -24.2474 27.2535 -22.3095 29.4992Z" fill="#C6D65D"/>
</svg>
