<svg width="152" height="47" viewBox="0 0 152 47" fill="none" xmlns="http://www.w3.org/2000/svg">
<path d="M17.2492 31.9165C17.5724 32.6739 17.7879 33.323 18.1112 34.0804C18.9732 36.0278 20.2661 37.8671 21.6668 39.49C22.9598 41.0046 24.576 42.3029 26.2999 43.3849C27.0542 43.9258 28.0239 44.3586 28.8859 44.6832C30.0711 45.2241 31.1485 45.5487 32.3338 45.8733C34.2732 46.4142 36.4281 46.4142 38.3676 46.306C40.6303 46.0896 42.7852 45.5487 44.8324 44.7913C46.7718 44.034 48.6035 43.0603 50.3275 41.9784C50.4352 41.8702 50.543 41.8702 50.6507 41.762C50.8662 42.0866 51.1894 42.3029 51.4049 42.5193C52.1592 43.2767 53.0211 43.8176 53.8831 44.4668C54.8528 45.1159 56.0381 45.6569 57.1155 46.0896C58.193 46.5224 59.2705 46.6306 60.4557 46.847C61.4254 46.9552 62.5029 47.0634 63.4726 46.9552C64.6578 46.9552 65.7353 46.7388 66.9205 46.4142C68.1057 46.1978 69.2909 45.7651 70.3684 45.3323C74.0318 43.9258 77.3719 41.762 80.2811 39.2736C80.7121 40.0309 81.1431 40.6801 81.6818 41.3292C82.2205 42.0866 82.867 42.7357 83.6212 43.2767C84.4832 44.034 85.4529 44.575 86.5304 45.1159C87.5001 45.5487 88.3621 45.8733 89.4396 46.0896C90.4093 46.306 91.4868 46.4142 92.5642 46.4142C93.6417 46.4142 94.7192 46.1978 95.7966 45.9815C96.8741 45.7651 97.9516 45.4405 99.029 45.0077C103.016 43.3849 106.356 40.8965 109.265 37.6507C109.696 37.2179 110.127 36.677 110.558 36.136C110.989 36.5688 111.42 37.1097 111.851 37.5425C112.497 38.2998 113.252 38.949 114.114 39.49C115.083 40.2473 116.161 41.0046 117.238 41.5456C118.208 42.0866 119.178 42.5193 120.255 42.9521C121.333 43.3849 122.41 43.6012 123.488 43.7094C125.75 44.034 128.013 43.7094 130.276 43.2767C132.323 42.8439 134.262 42.0866 136.094 41.3292C138.141 40.4637 139.973 39.3818 141.805 38.0835C143.421 37.0015 144.821 35.7033 146.222 34.2968C146.438 34.6213 146.545 35.0541 146.761 35.3787C147.3 36.4606 147.946 37.4343 148.593 38.2998C149.131 39.0572 149.778 39.7063 150.424 40.3555C151.178 41.0046 151.933 41.6538 152.795 42.1948C153.549 42.7357 154.411 43.1685 155.273 43.493C156.35 43.9258 157.428 44.3586 158.613 44.575C160.66 45.0077 162.707 45.0077 164.755 44.7913C165.832 44.6832 166.91 44.4668 167.987 44.1422C169.172 43.8176 170.357 43.2767 171.543 42.7357C173.482 41.8702 175.206 40.6801 176.822 39.2736C178.115 38.2999 179.3 37.1097 180.378 35.9196C180.593 36.136 180.809 36.4606 181.024 36.677C181.671 37.4343 182.425 38.0835 183.179 38.7326C184.795 40.0309 186.735 40.8965 188.782 41.4374C189.86 41.6538 190.937 41.762 192.015 41.8702C192.984 41.9784 194.062 41.8702 195.031 41.762C196.109 41.6538 197.186 41.4374 198.264 41.1128C199.449 40.7883 200.527 40.3555 201.604 39.9227C203.543 39.1654 205.375 38.1917 207.207 37.1097C209.146 35.9196 210.978 34.4049 212.594 32.8903C213.348 32.2411 214.103 31.4838 214.749 30.7264C214.965 30.9428 215.18 31.051 215.396 31.2674C216.15 31.9165 217.012 32.4575 217.982 32.9985C218.951 33.4312 219.921 33.864 220.891 34.1886C221.86 34.5131 222.938 34.6213 224.015 34.7295C225.201 34.8377 226.386 34.7295 227.571 34.6213C228.541 34.5131 229.403 34.2968 230.265 33.9722C231.234 33.6476 232.204 33.2148 233.066 32.6739C233.928 32.2411 234.682 31.7002 235.436 31.1592C236.406 30.4019 237.376 29.6445 238.238 28.779C238.453 28.6708 238.561 28.4544 238.669 28.238C238.669 28.3462 238.777 28.3462 238.777 28.4544C239.423 29.3199 240.285 30.0773 241.147 30.8346C241.901 31.4838 242.763 32.1329 243.733 32.5657C244.164 32.7821 244.703 32.9985 245.241 33.2148C245.672 33.4312 246.103 33.5394 246.534 33.6476C247.504 33.9722 248.582 34.0804 249.659 34.0804C250.952 34.0804 252.245 33.864 253.43 33.6476C254.4 33.4312 255.37 33.1067 256.339 32.6739C256.986 32.3493 257.525 32.0247 258.063 31.7002C258.387 31.9165 258.602 32.1329 258.925 32.3493C259.572 32.8903 260.326 33.323 260.972 33.7558C261.727 34.1886 262.589 34.5131 263.451 34.9459C265.282 35.7033 267.222 36.0278 269.161 36.2442C270.777 36.4606 272.501 36.4606 274.118 36.3524C275.087 36.3524 276.057 36.2442 276.919 36.136C278.427 35.9196 279.936 35.7033 281.337 35.1623C281.66 35.0541 282.091 34.8377 282.414 34.7295C282.845 34.5131 283.276 34.1886 283.707 33.7558C283.923 33.5394 284.03 33.323 284.246 33.1067C284.461 32.7821 284.677 32.4575 284.784 32.0247C284.892 31.592 284.892 31.1592 285 30.7264C285 30.1855 284.892 29.6445 284.569 29.2118C284.138 28.5626 283.492 28.0216 282.737 27.8053C281.983 27.5889 281.121 27.6971 280.367 28.1298C280.044 28.3462 279.613 28.6708 279.397 28.9954C279.289 28.9954 279.074 29.1036 278.966 29.1036C278.212 29.3199 277.458 29.4281 276.703 29.6445C276.165 29.7527 275.734 29.7527 275.195 29.8609C274.118 29.9691 273.04 29.9691 272.07 29.9691C271.101 29.9691 270.131 29.8609 269.053 29.7527C268.407 29.6445 267.653 29.5363 267.006 29.3199C266.36 29.2118 265.713 28.8872 265.067 28.6708C264.205 28.238 263.343 27.8053 262.481 27.2643C262.696 26.9397 262.912 26.6152 263.235 26.2906C264.205 24.7759 265.067 23.153 265.929 21.6383C266.683 20.2318 267.33 18.8253 267.976 17.3107C268.407 16.1206 268.838 15.0386 268.946 13.7403C268.946 12.983 268.838 12.1175 268.73 11.3601C268.622 10.8192 268.407 10.2782 268.191 9.84544C267.976 9.41268 267.868 9.0881 267.653 8.76353C267.222 8.00618 266.683 7.24884 266.144 6.59969C265.606 5.95054 265.175 5.40958 264.528 4.86863C263.882 4.21948 263.02 3.8949 262.158 3.57033C262.05 3.57033 261.834 3.46213 261.727 3.46213C261.296 3.35394 260.865 3.35394 260.542 3.35394C260.003 3.35394 259.464 3.46213 258.818 3.57033C258.387 3.67852 258.063 3.78671 257.632 4.00309C257.094 4.21947 256.663 4.54405 256.339 4.86863C255.693 5.40958 255.262 6.05873 254.723 6.70788C254.184 7.35703 253.861 8.11438 253.538 8.87172C253.107 9.84544 252.676 10.9274 252.46 11.9011C252.245 12.7666 252.029 13.7403 251.922 14.7141C251.814 15.796 251.706 16.7697 251.706 17.8516C251.706 18.8253 251.814 19.6909 251.922 20.6646C252.029 21.6383 252.245 22.6121 252.568 23.4776C252.784 24.3431 253.215 25.2087 253.646 26.1824C253.753 26.507 253.969 26.8315 254.077 27.1561C253.861 27.2643 253.646 27.3725 253.322 27.5889C252.46 27.9135 251.491 28.1298 250.629 28.238C249.875 28.3462 249.12 28.3462 248.366 28.238C247.72 28.1298 247.073 27.9135 246.319 27.6971C245.672 27.3725 245.026 27.0479 244.487 26.6152C243.625 25.8578 242.763 25.1005 242.009 24.2349C241.901 24.1267 241.901 24.0186 241.794 23.9104C242.979 22.1793 243.948 20.34 244.81 18.3926C245.888 16.2288 246.75 13.8485 247.612 11.5765C247.935 10.711 248.151 9.84544 248.474 8.97991C248.797 8.00618 248.797 6.92427 248.582 5.84235C248.474 4.86863 248.043 4.11128 247.612 3.24575C247.396 2.81298 246.965 2.38022 246.534 2.05564C245.996 1.51468 245.457 1.2983 244.703 1.08192C244.272 0.973725 243.841 0.973725 243.302 0.865533C243.194 0.865533 242.979 0.865533 242.763 0.865533C242.332 0.865533 242.009 0.973725 241.578 1.08192C241.039 1.19011 240.608 1.40649 240.177 1.62287C239.746 1.83926 239.315 2.16383 238.992 2.48841C238.669 2.81298 238.346 3.02937 238.022 3.35394C237.699 3.67852 237.376 4.11128 237.053 4.54405C236.406 5.51778 235.975 6.59969 235.544 7.57342C235.221 8.54714 234.898 9.52087 234.682 10.4946C234.467 11.5765 234.251 12.6584 234.144 13.7403C234.036 14.7141 233.928 15.796 233.928 16.7697C233.928 17.9598 234.144 19.1499 234.251 20.34C234.359 21.3138 234.682 22.1793 235.006 23.153C234.036 24.2349 232.958 25.3169 231.773 26.2906C230.696 27.0479 229.51 27.8053 228.325 28.3462C227.355 28.6708 226.493 28.9954 225.524 29.1036C224.662 29.2118 223.8 29.2118 222.938 29.1036C221.86 28.8872 220.891 28.6708 219.921 28.238C219.274 27.9135 218.628 27.5889 217.982 27.1561C217.766 26.9397 217.551 26.8315 217.335 26.6152C218.089 25.5332 218.843 24.4513 219.598 23.2612C220.675 21.5301 221.429 19.5827 222.184 17.6352C222.938 15.5796 223.584 13.4158 223.908 11.1437C224.123 10.0618 224.231 9.0881 224.123 8.00618C224.123 7.03246 223.908 5.95054 223.692 4.97682C223.584 4.54405 223.477 4.11128 223.261 3.78671C223.046 3.35394 222.938 2.92118 222.722 2.48841C222.615 2.38022 222.615 2.27203 222.507 2.16383C222.291 1.83926 222.076 1.62288 221.753 1.2983C221.429 1.08192 221.214 0.865533 220.891 0.64915C220.567 0.540958 220.244 0.324575 219.921 0.216383C219.382 0.108192 218.951 0 218.412 0C218.305 0 218.089 0 217.982 0C217.658 0 217.227 0.108192 216.904 0.216383C216.473 0.324575 215.934 0.64915 215.611 0.865533C215.18 1.08192 214.749 1.51468 214.426 1.83926C213.672 2.48841 213.133 3.35394 212.594 4.11128C211.948 5.08501 211.409 6.27512 210.978 7.35703C210.224 9.30448 209.9 11.3601 209.685 13.4158C209.362 15.6878 209.254 17.9598 209.362 20.2318C209.47 22.1793 209.9 24.0186 210.655 25.8578C209.039 27.5889 207.315 29.2118 205.483 30.7264C203.543 32.1329 201.496 33.323 199.234 34.2968C197.402 35.0541 195.57 35.7033 193.631 36.0278C192.446 36.136 191.26 36.136 190.075 36.0278C189.213 35.9196 188.351 35.5951 187.489 35.2705C186.735 34.9459 185.981 34.5131 185.334 33.9722C184.688 33.4312 184.149 32.8903 183.61 32.2411C183.395 31.9165 183.179 31.7002 182.964 31.3756C183.395 30.7264 183.934 30.0773 184.365 29.3199C185.55 27.4807 186.627 25.5332 187.489 23.5858C188.351 21.6383 189.105 19.6909 189.429 17.6352C189.644 16.5533 189.752 15.4714 189.752 14.3895C189.752 13.1994 189.536 11.9011 189.105 10.711C188.998 10.2782 188.782 9.84544 188.567 9.30448C188.459 8.97991 188.243 8.65533 188.028 8.43895C187.705 8.11438 187.489 7.7898 187.166 7.46523C186.843 7.14065 186.304 6.81607 185.873 6.70788C185.442 6.59969 185.011 6.59969 184.58 6.59969C184.149 6.59969 183.61 6.70788 183.287 6.81607C182.21 7.14065 181.348 8.00618 180.593 8.76353C179.193 10.2782 178.438 12.2257 177.684 14.0649C176.822 16.2288 176.499 18.5008 176.176 20.7728C175.96 22.9366 176.068 25.1005 176.391 27.2643C176.607 28.238 176.822 29.3199 177.038 30.2937C175.529 32.0247 173.913 33.6476 172.189 35.0541C170.788 36.136 169.172 37.0015 167.556 37.7589C166.263 38.2998 164.97 38.6244 163.677 38.8408C162.384 38.949 160.983 38.949 159.69 38.8408C158.613 38.6244 157.643 38.408 156.674 37.9753C155.704 37.5425 154.842 37.0015 153.98 36.4606C153.118 35.8114 152.471 35.0541 151.717 34.1886C150.963 33.1067 150.317 31.9165 149.778 30.7264C149.562 30.2937 149.455 29.7527 149.239 29.3199C149.562 28.8872 149.886 28.4544 150.209 28.0216C151.394 26.3988 152.471 24.5595 153.549 22.7203C154.626 20.7728 155.488 18.609 155.919 16.4451C156.135 15.4714 156.243 14.3895 156.243 13.4158C156.243 12.3339 156.135 11.2519 155.919 10.17C155.812 9.62906 155.704 9.19629 155.596 8.65533C155.488 8.22257 155.273 7.68161 154.95 7.24884C154.842 7.03246 154.734 6.92427 154.519 6.70788C154.303 6.38331 154.088 6.16692 153.764 6.05873C153.226 5.73416 152.687 5.51778 152.148 5.40958C151.609 5.30139 151.286 5.30139 150.747 5.40958C150.209 5.51778 149.778 5.51777 149.347 5.73416C148.916 5.95054 148.485 6.16693 148.054 6.38331C147.623 6.59969 147.192 7.03246 146.869 7.35703C146.761 7.46522 146.653 7.57342 146.545 7.68161C146.33 8.00618 146.114 8.22257 145.899 8.54714C145.683 8.97991 145.36 9.30448 145.145 9.73725C144.929 10.17 144.714 10.711 144.498 11.1437C144.283 11.6847 144.067 12.3339 143.852 12.8748C143.205 14.9305 142.99 16.9861 142.882 19.1499C142.774 21.422 143.097 23.694 143.421 25.966C143.528 26.507 143.636 26.9397 143.636 27.4807C142.128 29.2118 140.619 30.8346 138.895 32.2411C136.956 33.6476 134.909 34.9459 132.646 35.9196C131.784 36.2442 130.922 36.5688 130.06 36.7852C128.983 37.1097 128.013 37.3261 126.935 37.4343C125.75 37.5425 124.565 37.6507 123.272 37.5425C122.302 37.3261 121.44 37.1097 120.578 36.7852C119.178 36.136 117.885 35.3787 116.7 34.5131C115.514 33.5394 114.437 32.4575 113.467 31.2674C113.467 31.1592 113.359 31.1592 113.359 31.051C114.437 29.5363 115.299 27.9135 116.161 26.2906C117.13 24.4513 117.992 22.5039 118.639 20.5564C118.962 19.5827 119.285 18.609 119.501 17.5271C119.609 16.9861 119.609 16.4451 119.716 15.9042C119.716 15.255 119.609 14.4977 119.501 13.8485C119.393 12.8748 118.854 11.9011 118.531 11.0356C118.316 10.6028 117.992 10.17 117.777 9.73725C117.454 9.30448 117.13 8.87172 116.7 8.54714C115.945 7.7898 114.976 7.14065 113.79 7.14065C113.252 7.14065 112.821 7.24884 112.282 7.24884C111.959 7.35703 111.743 7.46523 111.42 7.57342C111.097 7.68161 110.773 7.89799 110.45 8.00618C110.019 8.22257 109.588 8.65533 109.265 8.87172C108.942 9.19629 108.618 9.52087 108.295 9.84544C107.972 10.2782 107.649 10.711 107.433 11.1437C107.11 11.5765 107.002 12.1175 106.787 12.5502C105.925 14.6059 105.602 16.8779 105.386 19.0417C105.171 21.2056 105.386 23.3694 105.709 25.425C105.925 27.1561 106.464 28.779 107.11 30.2937C106.356 31.2674 105.494 32.2411 104.632 33.2148C103.77 34.1886 102.692 35.1623 101.723 35.9196C100.214 37.0015 98.7058 37.9753 96.9818 38.7326C95.6889 39.2736 94.3959 39.5981 93.103 39.8145C92.3487 39.9227 91.7022 39.9227 90.948 39.8145C90.1938 39.7063 89.5473 39.49 88.7931 39.1654C88.2543 38.8408 87.7156 38.6244 87.1769 38.1917C86.6381 37.7589 86.0994 37.2179 85.6684 36.677C85.2374 36.0278 84.9142 35.3787 84.591 34.7295C84.4832 34.5131 84.4832 34.2968 84.3755 34.1886C84.8065 33.7558 85.1297 33.2148 85.5607 32.7821C86.2072 31.9165 86.9614 31.051 87.6079 30.0773C88.2543 29.1036 88.7931 28.1298 89.4396 27.0479C90.948 24.4513 92.1332 21.6383 93.3184 18.8253C93.7494 17.7434 94.2882 16.6615 94.7192 15.5796C95.0424 14.6059 95.4734 13.6322 95.4734 12.6584C95.5811 11.4683 95.1501 10.2782 94.5037 9.30448C94.3959 9.0881 94.1804 8.87172 94.0727 8.65533C93.8572 8.33076 93.5339 8.11438 93.2107 7.89799C92.7797 7.57342 92.3487 7.35703 91.9177 7.24884C91.4868 7.14065 90.948 7.03246 90.4093 6.92427C89.8706 6.92427 89.3318 6.92427 88.7931 7.03246C87.7156 7.24884 86.8536 7.57342 85.8839 8.11438C85.5607 9.52087 85.1297 9.84544 84.6987 10.17C84.2677 10.6028 83.8367 11.0356 83.4057 11.4683C82.1128 12.983 80.9276 14.6059 80.0656 16.4451C79.6346 17.4189 79.3114 18.3926 78.9881 19.3663C78.6649 20.4482 78.5571 21.5301 78.3416 22.7203C78.0184 24.8841 77.9107 26.9397 77.9107 29.1036C77.9107 30.1855 78.0184 31.1592 78.1262 32.2411C77.0487 33.323 75.9712 34.2968 74.786 35.1623C72.8466 36.5688 70.7994 37.8671 68.6444 38.8408C67.136 39.49 65.5198 39.9227 63.9036 40.2473C62.8261 40.3555 61.8564 40.3555 60.8867 40.2473C60.1324 40.1391 59.3782 39.9227 58.624 39.7063C57.8698 39.3818 57.1155 38.8408 56.3613 38.408C56.1458 38.1917 55.8226 37.9753 55.6071 37.7589C57.1155 36.3524 58.4085 34.7295 59.7014 33.1067C61.1022 31.2674 62.1796 29.3199 63.0416 27.2643C63.4726 26.2906 63.7958 25.3169 64.0113 24.3431C64.3346 23.2612 64.4423 22.0711 64.5501 20.881C64.6578 19.7991 64.4423 18.609 64.2268 17.5271C64.1191 17.0943 64.0113 16.5533 63.7958 16.1206C63.4726 15.3632 63.1493 14.7141 62.7184 14.0649C62.3951 13.524 61.9641 13.0912 61.6409 12.6584C61.3176 12.2257 60.7789 11.7929 60.3479 11.5765C59.5937 11.0356 58.624 10.711 57.762 10.6028C57.2233 10.4946 56.6845 10.4946 56.0381 10.4946C55.4993 10.4946 54.8528 10.6028 54.3141 10.711C54.2064 10.711 53.9909 10.8192 53.8831 10.8192C53.4521 10.9274 53.1289 11.1437 52.6979 11.2519C52.0514 11.5765 51.4049 12.0093 50.8662 12.5502C50.543 12.8748 50.112 13.1994 49.7887 13.524C49.3578 13.9567 49.0345 14.4977 48.7113 14.9305C48.0648 15.796 47.6338 16.8779 47.2028 17.8516C46.8796 18.8253 46.5563 19.6909 46.2331 20.6646C45.9099 21.9629 45.6944 23.2612 45.5866 24.6677C45.3711 26.8315 45.2634 28.9954 45.5866 31.051C45.6944 32.2411 45.9099 33.323 46.2331 34.405C46.4486 35.2705 46.7718 36.136 47.0951 36.8934C45.6944 37.8671 44.1859 38.6244 42.6774 39.3818C41.169 40.0309 39.5528 40.4637 37.8288 40.6801C36.6436 40.7883 35.5662 40.7883 34.3809 40.6801C33.088 40.4637 31.9028 40.1391 30.7176 39.5981C29.5323 39.0572 28.5626 38.408 27.4852 37.6507C26.4077 36.7852 25.438 35.8114 24.576 34.7295C23.6063 33.4312 22.852 32.1329 22.2056 30.6182C21.9901 30.0773 21.7746 29.5363 21.6668 29.1036C25.1147 26.9397 28.3471 24.5595 31.364 21.9629C32.1183 21.3138 32.9802 20.5564 33.7345 19.7991C34.4887 19.0417 35.2429 18.2844 35.8894 17.6352C36.5359 16.9861 37.1824 16.3369 37.7211 15.5796C38.3676 14.7141 38.7986 13.7403 39.1218 12.6584C39.3373 11.7929 39.3373 10.8192 39.2296 9.95363C39.1218 8.97991 38.9063 8.11438 38.4753 7.24884C37.6134 5.40958 36.2126 4.00309 34.4887 3.02937C34.0577 2.81298 33.519 2.5966 33.088 2.38022C32.657 2.16383 32.226 2.05564 31.6873 2.05564C30.7176 1.83926 29.6401 1.94745 28.6704 2.05564C27.7006 2.16383 26.8387 2.48841 25.8689 2.92117C24.7915 3.46213 23.8218 4.00309 22.9598 4.76043C19.7274 7.35703 17.6802 11.2519 16.3872 15.1468C15.7407 17.0943 15.4175 19.2581 15.3098 21.422C15.202 23.694 15.4175 26.0742 15.8485 28.238C15.9562 28.6708 16.064 29.2118 16.1717 29.6445C13.6936 31.1592 10.9999 32.4575 8.41397 33.6476C7.44425 34.0804 6.58227 34.4049 5.61255 34.6213C4.96607 34.7295 4.10409 35.0541 3.24212 35.2705C2.91888 35.2705 2.59564 35.2705 2.2724 35.2705H2.16465C2.2724 35.1623 2.38015 35.0541 2.48789 34.9459C2.91888 34.6213 3.34987 34.2968 3.78085 33.9722C4.21184 33.6476 4.31959 33.1067 4.10409 32.6739C3.8886 32.3493 3.24212 32.0247 2.91888 32.3493C2.38015 32.6739 1.94916 32.9985 1.41042 33.4312C1.19493 33.6476 0.979437 33.864 0.763943 34.0804C0.54845 34.2968 0.332956 34.6213 0.117462 34.9459C-0.0980313 35.2705 0.00971552 35.8114 0.225209 36.0278C0.440703 36.2442 0.763943 36.4606 0.979437 36.677C1.08718 36.677 1.19493 36.7852 1.30268 36.8934C1.51817 37.0015 1.62592 37.0015 1.84141 37.1097C2.2724 37.2179 2.59564 37.2179 2.91888 37.2179C3.34987 37.2179 3.67311 37.1097 4.10409 37.1097C4.53508 37.0015 5.07382 36.8934 5.5048 36.7852C5.93579 36.677 6.47452 36.5688 6.90551 36.4606C8.09073 36.136 9.16819 35.7033 10.3534 35.2705C12.7238 34.1886 14.9865 33.1067 17.2492 31.9165ZM258.063 14.8223C258.279 13.524 258.602 12.2257 259.141 11.0356C259.356 10.4946 259.68 9.95363 260.003 9.41268C260.111 9.30448 260.218 9.0881 260.326 8.97991H260.434H260.542C260.649 8.97991 260.757 8.97991 260.865 9.0881C261.296 9.52087 261.834 9.95363 262.265 10.4946C262.696 11.0356 263.02 11.5765 263.343 12.2257C263.451 12.442 263.451 12.6584 263.558 12.8748C263.558 12.983 263.558 13.1994 263.558 13.3076C263.451 13.7403 263.343 14.1731 263.127 14.4977C262.481 15.796 261.834 17.0943 261.08 18.3926C260.326 19.5827 259.572 20.881 258.818 22.0711C258.494 21.0974 258.279 20.1237 258.063 19.1499C257.956 17.7434 257.956 16.3369 258.063 14.8223ZM243.948 6.05873C243.841 6.05873 243.841 6.05873 243.948 6.05873V6.05873ZM243.733 5.84235C243.841 5.95054 243.841 5.95054 243.841 6.05873C243.841 5.95054 243.733 5.95054 243.733 5.84235C243.733 5.84235 243.625 5.73416 243.733 5.84235C243.625 5.73416 243.733 5.84235 243.733 5.84235ZM239.746 13.3076C239.962 11.6847 240.285 9.95363 240.932 8.43895C241.255 7.89799 241.47 7.35703 241.901 6.81607C242.117 6.59969 242.332 6.27512 242.656 6.05873C242.871 5.95054 243.087 5.84235 243.302 5.73416C243.41 5.73416 243.518 5.73416 243.625 5.62597C243.625 5.62597 243.625 5.62597 243.733 5.62597C243.841 5.73416 243.948 5.95054 243.948 6.05873C243.948 6.16692 243.948 6.27512 244.056 6.27512C244.056 6.4915 244.056 6.70788 244.056 6.92427C243.841 7.68161 243.625 8.43895 243.302 9.0881C242.656 10.6028 242.009 12.0093 241.363 13.4158C240.824 14.4977 240.393 15.4714 239.854 16.4451C239.854 16.1206 239.854 15.796 239.854 15.4714C239.639 14.9305 239.639 14.1731 239.746 13.3076ZM215.18 13.9567C215.396 12.1175 215.827 10.3864 216.365 8.65533C216.689 7.89799 217.12 7.14065 217.658 6.38331C217.982 6.05873 218.305 5.73416 218.628 5.40958C218.736 5.30139 218.843 5.30139 218.951 5.1932C218.951 5.30139 219.059 5.30139 219.059 5.40958C219.274 5.84235 219.382 6.38331 219.382 6.81607C219.49 7.57342 219.49 8.43895 219.382 9.19629C218.951 11.7929 218.089 14.2813 217.12 16.7697C216.689 17.8516 216.15 18.9335 215.503 20.0155C215.288 20.34 215.18 20.5564 214.965 20.881C214.857 18.609 214.965 16.2288 215.18 13.9567ZM184.903 12.1175C184.903 12.2257 184.795 12.2257 184.903 12.1175C184.795 12.2257 184.903 12.2257 184.903 12.1175ZM181.563 20.6646C181.671 19.7991 181.886 18.8254 182.102 17.9598C182.317 16.8779 182.748 15.9042 183.072 14.9305C183.395 14.1731 183.826 13.524 184.257 12.7666C184.472 12.5502 184.688 12.3339 184.903 12.1175C185.119 12.6584 185.226 13.3076 185.334 13.8485C185.334 14.6059 185.334 15.255 185.334 16.0124C185.119 17.5271 184.688 18.9335 184.149 20.34C183.395 21.9629 182.533 23.5858 181.563 25.1005C181.563 24.5595 181.455 24.0186 181.455 23.4776C181.455 22.6121 181.455 21.6383 181.563 20.6646ZM148.269 18.1762C148.485 16.6615 148.916 15.0386 149.455 13.6322C149.67 13.0912 149.993 12.6584 150.317 12.1175C150.532 11.9011 150.64 11.6847 150.855 11.4683C150.963 11.3601 151.071 11.3601 151.178 11.2519C151.178 11.3601 151.286 11.5765 151.286 11.6847C151.394 12.8748 151.394 14.0649 151.286 15.255C151.071 16.3369 150.747 17.4189 150.317 18.3926C149.67 19.7991 148.916 21.0974 148.162 22.3957C148.162 22.0711 148.162 21.7465 148.162 21.422C148.054 20.34 148.162 19.2581 148.269 18.1762ZM110.881 18.9335C111.097 17.6352 111.312 16.3369 111.851 15.0386C112.066 14.7141 112.282 14.2813 112.497 13.9567C112.713 13.6322 113.036 13.4158 113.252 13.1994C113.359 13.0912 113.467 13.0912 113.575 12.983H113.683C113.79 13.0912 113.898 13.1994 114.006 13.3076C114.221 13.6322 114.329 13.8485 114.545 14.1731C114.76 14.6059 114.868 15.1468 114.976 15.5796C114.976 16.0124 114.976 16.4451 114.976 16.7697C114.76 17.9598 114.437 19.0417 113.898 20.1237C113.144 21.9629 112.174 23.8022 111.204 25.5332C111.204 25.5332 111.204 25.5332 111.204 25.6414C111.097 25.2087 111.097 24.7759 110.989 24.3431C110.773 22.5039 110.773 20.7728 110.881 18.9335ZM89.7628 13.8485V13.9567V13.8485ZM89.5473 13.0912C89.5473 12.983 89.5473 12.983 89.5473 12.8748C89.5473 12.8748 89.5473 12.983 89.5473 13.0912ZM89.4396 13.4158C89.4396 13.4158 89.3318 13.4158 89.4396 13.4158V13.4158ZM83.729 24.3431C83.9445 22.6121 84.3755 20.881 84.9142 19.1499C85.3452 18.2844 85.8839 17.4189 86.4227 16.6615C87.0691 15.796 87.8234 15.0386 88.5776 14.3895C88.7931 14.2813 88.9008 14.1731 89.1163 14.0649C89.0086 14.2813 89.0086 14.3895 88.9008 14.6059C88.2543 16.0124 87.6079 17.5271 86.8536 18.9335C85.7762 21.2056 84.6987 23.3694 83.5135 25.5332C83.729 24.9923 83.729 24.6677 83.729 24.3431ZM52.4824 24.3431C52.5902 23.694 52.6979 22.9366 52.9134 22.2875C53.1289 21.422 53.3444 20.6646 53.6676 19.9073C53.9909 19.2581 54.3141 18.609 54.6373 18.068C54.8528 17.7434 55.1761 17.5271 55.4993 17.2025C55.6071 17.0943 55.8226 16.9861 55.9303 16.8779C56.0381 16.8779 56.1458 16.7697 56.2535 16.7697C56.469 16.7697 56.6845 16.7697 57.0078 16.7697H57.1155C57.2233 16.8779 57.4388 17.0943 57.5465 17.2025C57.762 17.4189 57.8698 17.7434 57.9775 17.9598C58.0852 18.3926 58.3007 18.8253 58.3007 19.3663C58.3007 20.0155 58.3007 20.6646 58.3007 21.422C58.0852 22.7203 57.762 23.9104 57.331 25.1005C56.469 26.9397 55.3916 28.6708 54.2064 30.2937C53.6676 30.9428 53.2366 31.4838 52.6979 32.0247C52.5902 31.4838 52.3747 30.8346 52.3747 30.2937C52.1592 28.4544 52.2669 26.3988 52.4824 24.3431ZM21.0203 19.0417C21.1281 18.2844 21.2358 17.6352 21.4513 16.8779C21.6668 16.0124 21.9901 15.255 22.3133 14.4977C22.9598 12.983 23.8218 11.5765 24.6837 10.2782C25.3302 9.52087 26.0844 8.76353 26.8387 8.11438C27.3774 7.68161 28.0239 7.35703 28.6704 7.03246C29.1014 6.81608 29.5323 6.70788 29.9633 6.59969C30.3943 6.59969 30.9331 6.59969 31.364 6.59969C31.6873 6.70788 32.0105 6.81608 32.3338 6.92427C32.7647 7.14065 33.1957 7.35703 33.6267 7.68161C33.95 8.00618 34.2732 8.33076 34.5964 8.65533C34.9197 9.0881 35.1352 9.41268 35.3507 9.84544C35.4584 10.2782 35.5662 10.711 35.6739 11.1437C35.6739 11.4683 35.6739 11.6847 35.6739 12.0093C35.5662 12.442 35.4584 12.8748 35.3507 13.1994C35.1352 13.6322 34.8119 14.0649 34.5964 14.4977C31.795 17.9598 28.6704 21.0974 25.1147 23.8022C23.9295 24.7759 22.6365 25.6414 21.3436 26.507C21.2358 26.0742 21.1281 25.5332 21.0203 24.9923C20.8048 23.0448 20.8048 21.0974 21.0203 19.0417Z" fill="#C6D65D"/>
</svg>
