<svg width="110" height="24" viewBox="0 0 110 24" fill="none" xmlns="http://www.w3.org/2000/svg">
<path d="M33.4754 0V23.6437H37.69V19.9514L39.7325 17.3603L43.558 23.6437H48.3561L42.6827 14.1215L47.5132 7.22267H42.4881L37.69 13.8623V0H33.4754Z" fill="#0F5C4C"/>
<path d="M2.69084 7.22267L2.72326 3.23887H6.97025L6.93783 7.22267H10.6985V11.0445H6.90541L6.84057 17.6842C6.84057 19.4008 7.39171 20.0486 8.98028 20.0486C9.59625 20.0486 10.1474 19.9838 10.6985 19.8219V23.5142C10.0825 23.7409 9.17479 23.8704 8.0401 23.8704C4.37667 23.8704 2.59358 22.3158 2.626 18.6883L2.69084 11.0445H0V7.22267H2.69084Z" fill="#0F5C4C"/>
<path d="M15.2991 9.26316C16.9201 7.67611 18.9625 6.8664 21.4588 6.8664C23.9552 6.8664 26.03 7.67611 27.651 9.26316C29.3044 10.8502 30.1149 12.8907 30.1149 15.417C30.1149 17.746 29.4261 19.6896 28.0231 21.2224C28.1872 18.9736 27.0853 16.7218 24.9996 15.5188L19.7366 12.4831C18.0585 15.387 19.0544 19.1001 21.961 20.7766L25.7846 22.982C24.5268 23.6577 23.0819 24 21.4588 24C18.9625 24 16.9201 23.1903 15.2991 21.6032C13.6781 20.0162 12.8676 17.9433 12.8676 15.417C12.8676 12.8907 13.6781 10.8502 15.2991 9.26316Z" fill="#C6D65D"/>
<path d="M50.9185 23.6437V0H55.1007V8.93927C56.0409 7.54656 57.4349 6.8664 59.2828 6.8664C62.7518 6.8664 64.5997 9.19838 64.5997 12.9879V23.6437H60.3527V13.8947C60.3527 11.919 59.5746 10.9474 58.0185 10.9474C56.3002 10.9474 55.1007 12.3725 55.1007 14.9636V23.6437H50.9185Z" fill="#0F5C4C"/>
<path d="M77.9488 7.22267V16.0324C77.9488 18.5911 76.7817 19.919 75.1283 19.919C73.5721 19.919 72.794 18.915 72.794 16.9393V7.22267H68.5795V17.8785C68.5795 21.668 70.395 24 73.8639 24C75.9063 24 77.3328 23.1579 78.2081 21.5061L78.5323 23.6437H82.1309V7.22267H77.9488Z" fill="#0F5C4C"/>
<path d="M99.5996 9.74899C100.41 8.06478 102.128 6.8664 104.333 6.8664C107.737 6.8664 109.585 9.19838 109.585 12.9879V23.6437H105.37V13.8947C105.37 11.919 104.592 10.9474 103.069 10.9474C101.415 10.9474 100.216 12.2753 100.183 14.7692V23.6437H95.9686V13.8947C95.9686 11.919 95.1905 10.9474 93.6668 10.9474C91.981 10.9474 90.7814 12.3401 90.7814 14.9636V23.6437H86.5993V7.22267H90.1979L90.5221 9.36032C91.3974 7.7085 92.8563 6.8664 94.8987 6.8664C97.2005 6.8664 98.7891 7.83806 99.5996 9.74899Z" fill="#0F5C4C"/>
</svg>
