<svg width="179" height="167" viewBox="0 0 179 167" fill="none" xmlns="http://www.w3.org/2000/svg">
<g opacity="0.3">
<path fill-rule="evenodd" clip-rule="evenodd" d="M87.8338 -15.2106C87.8848 -1.14129 83.0999 24.3084 119.908 30.4596C97.0586 33.7575 88.3271 51.4181 87.8381 74.0713C87.2778 56.9719 89.623 37.2272 52.1387 31.8153C88.1153 28.9707 87.6162 -0.751969 87.8338 -15.2106Z" stroke="#F2FCFA" stroke-width="5" stroke-miterlimit="1.5" stroke-linecap="round" stroke-linejoin="round"/>
<path fill-rule="evenodd" clip-rule="evenodd" d="M123.556 53.4259C123.607 67.4952 114.023 93.6181 150.831 99.7693C127.982 103.067 124.05 120.054 123.561 142.708C123 125.608 121.854 105.713 95.8545 100.006C121.056 96.9989 120.631 72.6255 123.556 53.4259Z" stroke="#F2FCFA" stroke-width="5" stroke-miterlimit="1.5" stroke-linecap="round" stroke-linejoin="round"/>
<path d="M48.7929 -19.3C54.7338 -12.427 59.4443 -4.45434 65.541 2.2703" stroke="#F2FCFA" stroke-width="5" stroke-miterlimit="1.5" stroke-linecap="round" stroke-linejoin="round"/>
<path d="M106.456 7.35625C110.903 3.69121 115.108 -0.481762 118.711 -4.98633" stroke="#F2FCFA" stroke-width="5" stroke-miterlimit="1.5" stroke-linecap="round" stroke-linejoin="round"/>
<path d="M67.0653 54.7067C61.0872 60.2473 55.5357 66.416 50.1289 72.5155" stroke="#F2FCFA" stroke-width="5" stroke-miterlimit="1.5" stroke-linecap="round" stroke-linejoin="round"/>
<path d="M104.236 67.4124C104.888 68.4102 105.676 69.3195 106.387 70.277" stroke="#F2FCFA" stroke-width="5" stroke-miterlimit="1.5" stroke-linecap="round" stroke-linejoin="round"/>
<path d="M96.8281 124.328C98.2505 122.911 99.7234 121.546 101.124 120.107" stroke="#F2FCFA" stroke-width="5" stroke-miterlimit="1.5" stroke-linecap="round" stroke-linejoin="round"/>
<path d="M138.67 78.2403C144.965 72.5439 150.44 66.2857 155.74 59.6702" stroke="#F2FCFA" stroke-width="5" stroke-miterlimit="1.5" stroke-linecap="round" stroke-linejoin="round"/>
<path d="M140.206 124.82C147.627 129.437 152.792 138.945 157.926 145.89" stroke="#F2FCFA" stroke-width="5" stroke-miterlimit="1.5" stroke-linecap="round" stroke-linejoin="round"/>
</g>
</svg>
