<svg width="75" height="87" viewBox="0 0 75 87" fill="none" xmlns="http://www.w3.org/2000/svg">
<path d="M45.2477 63.3916C43.7262 64.167 42.16 64.8652 40.7162 65.5958C32.1642 69.8121 23.1864 72.2139 13.6591 72.0483C3.65399 71.9525 -5.57783 69.2469 -13.5266 63.0189C-22.7333 55.8688 -25.5849 46.8009 -22.0927 35.6158C-21.7168 34.4716 -21.2633 33.2825 -20.8097 32.0934C-17.9429 25.3903 -13.4066 19.7836 -7.7232 15.266C1.64542 7.79664 12.2976 3.08892 24.2001 1.26503C31.4461 0.172179 38.4616 0.654725 45.2594 3.63245C56.9191 8.74818 63.1388 17.7258 63.396 30.558C63.5047 35.2343 62.7685 39.8832 61.4206 44.3702C61.1887 45.2252 60.8791 46.1251 61.0257 47.2767C61.5699 46.9625 62.1586 46.7256 62.5358 46.3018C65.0983 43.38 67.7386 40.4134 70.1342 37.382C71.9309 35.1084 72.7413 34.5374 73.91 35.305C75.0009 36.1175 74.9475 37.2815 73.5179 39.6523C70.9695 44.2142 67.2855 47.8865 63.3008 51.2172C62.0355 52.2569 60.7701 53.2965 59.4601 54.2589C57.3397 55.7922 55.6755 57.5772 54.1566 59.7934C47.0834 70.1614 37.9378 78.0171 26.4637 83.0964C21.9207 85.1011 17.0871 86.2435 11.973 86.0024C11.0057 85.9428 9.96076 85.928 9.1706 85.457C8.5474 85.0956 8.08981 84.1236 8.21083 83.4356C8.26559 82.9919 9.19839 82.4533 9.86487 82.1715C10.1758 81.992 10.5874 82.1664 10.9876 82.1415C15.9908 82.5495 20.7352 81.2526 25.1559 79.2155C32.5088 75.7945 38.9809 71.0275 44.5062 65.159C44.8502 64.8573 45.1051 64.4011 45.4045 64.0222C45.4045 64.0222 45.3153 63.8677 45.2477 63.3916ZM1.20117 14.0284C-0.419746 15.1702 -3.5176 17.1648 -6.34779 19.623C-12.5854 24.9757 -17.1535 31.4249 -18.9281 39.6609C-20.1625 45.4216 -19.2521 50.7683 -15.4082 55.4514C-11.3974 60.2442 -6.23333 63.444 -0.415632 65.4423C8.56135 68.6042 17.7547 68.5505 26.9772 66.2135C36.0442 63.9663 43.973 59.3886 51.8011 54.4569C52.5784 54.0081 53.2105 53.1281 53.687 52.3379C57.6637 44.6848 59.7722 36.6681 59.0782 28.1059C58.4417 20.5407 55.0399 14.4691 48.7734 10.2574C42.0061 5.7168 34.4553 4.30706 26.3975 5.25048C17.9841 6.29614 10.1966 9.14391 1.20117 14.0284Z" fill="#C6D65D"/>
</svg>
