<svg width="122" height="82" viewBox="0 0 122 82" fill="none" xmlns="http://www.w3.org/2000/svg">
<path d="M75.62 74.9954C77.7359 75.5623 79.4784 76.0292 81.2209 76.4961C82.8389 76.9297 84.0759 77.7896 83.7049 79.672C83.334 81.5544 81.8581 82.0837 80.207 81.7735C75.8762 81.0094 71.2887 80.705 67.3796 78.8648C59.7772 75.3744 51.753 72.9602 44.1176 69.5931C26.2407 61.6321 12.6467 49.1376 4.62868 31.267C1.54287 24.3627 0.05738 16.9623 0.355072 9.37918C0.395757 8.72948 0.311978 8.04644 0.510157 7.30682C0.74902 5.91752 1.45271 4.78488 3.0784 4.692C4.95302 4.66583 5.6845 5.91878 5.786 7.53141C5.85447 9.26731 5.76544 11.0931 5.83391 12.829C6.43285 21.0488 9.10458 28.5027 13.3766 35.4607C18.9288 44.6113 26.287 51.9998 35.609 57.5364C35.1188 56.8765 34.6286 56.2167 34.1384 55.5569C33.5237 54.8637 32.7846 54.1372 32.1699 53.444C22.0202 42.533 16.0822 29.8439 14.7369 14.9503C12.6304 -12.0379 30.2275 -36.389 48.7304 -45.7001C65.8159 -54.2018 82.1336 -52.8682 97.427 -41.2396C105.306 -35.2969 111.321 -27.8721 115.156 -18.7852C124.756 4.13348 124.269 26.8597 112.111 48.8366C104.637 62.2919 93.1421 70.8384 77.8833 74.0164C77.3194 74.1295 76.88 74.276 76.316 74.3891C76.316 74.3891 76.1585 74.4791 75.62 74.9954ZM113.258 30.1187C116.37 18.005 116.338 5.18084 112.805 -7.52429C109.539 -19.2331 103.497 -29.0436 93.7334 -36.4161C80.5406 -46.4249 66.4708 -47.6846 51.5903 -40.4417C44.5437 -37.0451 38.9094 -31.9488 34.1056 -25.9694C16.8034 -4.7102 16.1741 23.5268 32.549 44.5615C39.295 53.2392 47.4991 60.4581 56.7804 66.6443C58.3577 67.7276 60.3161 68.3844 62.1247 68.6048C77.3146 70.1646 90.2492 65.7033 100.629 54.3478C106.942 47.7158 110.714 39.6104 113.258 30.1187Z" fill="#C6D65D"/>
</svg>
