<svg width="250" height="66" viewBox="0 0 250 66" fill="none" xmlns="http://www.w3.org/2000/svg">
<path fill-rule="evenodd" clip-rule="evenodd" d="M104.176 0.577134C103.818 0.910161 103.528 0.945661 103.184 0.697496C102.513 0.212664 99.5376 1.49 99.0615 2.4671C98.7899 3.02395 98.7588 2.88263 98.9376 1.90687L99.1769 0.601815L97.4741 0.861474C94.9841 1.2415 94.2621 1.28241 93.8338 1.06771C93.2813 0.790812 90.7986 1.02106 90.2716 1.39804C89.9779 1.60833 89.7649 1.56878 89.6526 1.28207C89.515 0.93146 89.2287 0.926389 88.2028 1.2557C87.3312 1.5353 86.6962 1.55965 86.2078 1.33245C85.6614 1.07786 85.3043 1.16171 84.7016 1.6861C84.0445 2.25782 83.6337 2.33254 82.264 2.13103C81.3578 1.99748 80.4415 1.93899 80.2277 2.00086C80.014 2.0624 78.8774 2.15977 77.7019 2.21691C74.3048 2.38224 74.2046 2.39509 74.2046 2.66726C74.2046 2.8096 73.6536 2.85524 72.9798 2.76936C71.8847 2.62939 71.7778 2.68957 71.9718 3.335C72.1175 3.81983 72.0091 4.05718 71.6422 4.05718C71.3419 4.05718 71.0959 3.82896 71.0959 3.55003C71.0959 3.21193 70.7073 3.04288 69.9301 3.04288C69.2567 3.04288 68.7643 3.2214 68.7643 3.46551C68.7639 3.72652 68.1624 3.90537 67.1902 3.93343C65.3991 3.98482 64.8322 4.28742 65.6669 4.74656C66.0539 4.95956 66.0819 5.06268 65.7528 5.0664C65.4858 5.06911 65.267 5.29969 65.267 5.57862C65.267 5.85755 65.0047 6.08577 64.6841 6.08577C64.3635 6.08577 64.1012 5.85755 64.1012 5.57862C64.1012 5.29969 64.2761 5.07147 64.4898 5.07147C64.7036 5.07147 64.8784 4.91933 64.8784 4.73337C64.8784 4.22352 63.8257 4.32766 63.5906 4.8605C63.4655 5.14383 63.0221 5.26554 62.4575 5.17155C61.6003 5.02921 61.542 5.10765 61.6893 6.20478C61.8408 7.33369 62.8026 8.12416 63.293 7.52269C63.4169 7.37088 63.9994 7.21975 64.587 7.18729C65.1745 7.15483 65.8744 7.11088 66.1413 7.08958C66.4087 7.06828 67.0203 7.15585 67.5014 7.28399C68.1542 7.45811 68.3757 7.38068 68.3757 6.97868C68.3757 6.54085 68.5611 6.50197 69.3725 6.77042C70.8724 7.26641 72.2616 7.18121 72.2616 6.59292C72.2616 6.27747 72.6285 6.08577 73.2331 6.08577C73.8008 6.08577 74.2046 6.28017 74.2046 6.55302C74.2046 7.19338 77.2787 7.23395 77.5593 6.59731C77.6712 6.34374 78.23 6.14426 78.8008 6.15373C80.7784 6.18686 81.1992 6.0834 81.1992 5.56374C81.1992 5.2767 81.418 5.0664 81.685 5.09683C81.9523 5.12692 82.5702 5.13368 83.0586 5.11137C83.8191 5.07722 83.8875 4.97545 83.5354 4.40305C83.2001 3.85736 83.2331 3.77081 83.7161 3.93174C84.0418 4.04061 84.3079 4.34152 84.3079 4.6005C84.3079 4.85948 84.5516 5.07147 84.8492 5.07147C85.1469 5.07147 85.49 5.29732 85.612 5.57321C85.9369 6.31027 90.6233 6.11451 91.6908 5.3193C92.5118 4.70768 93.4468 4.51463 93.0788 5.03293C92.9618 5.19758 93.3054 5.40518 93.8424 5.49477C94.379 5.58403 94.9137 5.52283 95.0303 5.35886C95.1469 5.19454 95.4049 5.14788 95.6039 5.25506C95.8028 5.3619 95.9656 5.28819 95.9656 5.09142C95.9656 4.89465 96.3259 4.73337 96.7657 4.73337C97.2056 4.73337 97.4578 4.88552 97.3257 5.07147C97.178 5.2794 97.7298 5.38996 98.76 5.35886C99.8768 5.32505 100.086 5.26182 99.3872 5.16918C98.6407 5.07012 98.4052 4.88214 98.5669 4.5153C98.6916 4.23231 98.9007 4.1275 99.0312 4.28235C99.3988 4.71884 100.945 5.40957 101.554 5.40957C101.855 5.40957 102.907 4.74791 103.891 3.93884C105.116 2.93199 105.68 2.64258 105.68 3.02091C105.68 3.32452 105.153 3.84452 104.508 4.17585C103.188 4.85441 103.299 5.40957 104.755 5.40957C105.376 5.40957 105.629 5.2723 105.456 5.02887C105.262 4.75603 105.382 4.74352 105.877 4.98458C106.751 5.41059 108.012 5.13909 108.012 4.52477C108.012 4.26781 108.187 4.05718 108.401 4.05718C108.614 4.05718 108.789 4.26004 108.789 4.50786C108.789 5.21516 113.366 5.13436 113.585 4.42334C113.721 3.98212 113.758 3.99193 113.796 4.4798C113.848 5.16141 114.637 5.2581 115.317 4.66575C115.671 4.35809 115.784 4.3564 115.784 4.65865C115.784 5.10089 122.608 5.08162 123.425 4.63735C123.674 4.50178 123.967 4.58224 124.075 4.81587C124.227 5.14011 124.366 5.12455 124.666 4.7496C124.882 4.47946 124.973 4.139 124.87 3.9926C124.766 3.84654 124.952 3.81747 125.284 3.92802C125.616 4.03892 125.887 4.30872 125.887 4.52815C125.887 4.96396 126.629 5.06336 129.579 5.02279C130.647 5.00791 132.921 5.03056 134.63 5.07283C140.077 5.20773 140.413 5.19184 140.566 4.79288C140.67 4.52139 140.894 4.55587 141.295 4.90547C142.027 5.54177 144.433 5.55495 146.147 4.93184C147.279 4.52037 147.565 4.52037 148.212 4.93184C149.129 5.51607 149.931 5.56983 149.28 5.00385C148.646 4.45174 148.694 4.05718 149.397 4.05718C149.717 4.05718 149.98 4.28539 149.98 4.56433C149.98 4.84326 150.286 5.08398 150.66 5.09886C151.034 5.11407 151.864 5.16242 152.505 5.20637C153.147 5.25033 153.8 5.12388 153.957 4.92542C154.148 4.68401 154.244 4.7043 154.248 4.98695C154.251 5.21956 154.647 5.4072 155.128 5.4045C155.737 5.40078 155.849 5.31457 155.499 5.12084C155.094 4.89735 155.107 4.76144 155.569 4.42807C156.037 4.09031 156.221 4.14035 156.565 4.69889C156.817 5.109 157.22 5.30645 157.568 5.19015C157.888 5.08331 158.366 5.15025 158.631 5.33891C159.413 5.89711 160.695 5.94985 161.383 5.45251C161.801 5.15126 162.026 5.12151 162.026 5.36832C162.026 5.771 163.281 5.89474 163.698 5.53298C164.257 5.04645 167.043 5.07823 167.363 5.5749C167.701 6.10064 169.365 6.24603 171.852 5.96709C172.661 5.87615 173.841 5.93126 174.475 6.08915C175.108 6.24738 175.627 6.25414 175.627 6.10436C175.627 5.95459 176.064 5.83219 176.598 5.83219C177.132 5.83219 177.57 6.02356 177.57 6.25752C177.57 6.76568 179.033 7.16802 179.209 6.70821C179.277 6.53206 179.985 6.25989 180.782 6.10335C182.084 5.84808 182.233 5.88866 182.233 6.49723C182.233 7.09736 182.4 7.14807 183.69 6.93845C184.492 6.80828 185.011 6.82046 184.846 6.9655C184.41 7.34755 186.996 8.04944 187.541 7.69714C187.805 7.5264 188.097 7.55244 188.244 7.75969C188.382 7.95477 189.156 8.11436 189.962 8.11436C190.769 8.11436 191.555 8.2239 191.709 8.35779C192.144 8.73646 195.969 8.74423 196.513 8.36793C196.862 8.12619 196.999 8.19077 196.999 8.59682C196.999 9.04886 197.369 9.15773 198.845 9.13981C199.86 9.1273 201.278 9.21554 201.997 9.33591C202.841 9.47723 203.405 9.41063 203.592 9.14758C203.813 8.83552 204.007 8.846 204.423 9.19221C205.211 9.84846 206.981 10.4736 207.29 10.2048C207.773 9.78422 209.408 9.93434 209.622 10.4192C209.787 10.7941 209.951 10.8093 210.393 10.4902C210.953 10.0855 211.932 10.3113 211.606 10.7698C211.455 10.9824 212.552 11.0294 214 10.8719C214.267 10.8428 214.5 10.5527 214.516 10.2275C214.541 9.75447 214.592 9.73757 214.774 10.1429C214.898 10.4219 215.261 10.8171 215.58 11.0213C215.898 11.2255 216.044 11.5538 215.904 11.7506C215.747 11.9721 215.932 12.0444 216.391 11.9399C216.799 11.8473 217.768 12.0339 218.545 12.3544C219.322 12.6753 220.825 12.938 221.885 12.938C222.944 12.938 223.812 13.0699 223.812 13.2308C223.812 13.3921 224.074 13.5239 224.395 13.5239C224.715 13.5239 224.978 13.3556 224.978 13.1497C224.978 12.9438 225.24 12.8629 225.56 12.9701C225.881 13.077 226.143 13.0171 226.143 12.8373C226.143 12.2993 227.207 12.4667 227.462 13.0445C227.81 13.835 227.785 13.862 226.699 13.862C225.749 13.862 225.733 13.8911 226.376 14.4507C226.858 14.8699 227.098 14.9196 227.212 14.6231C227.32 14.3401 227.78 14.4784 228.649 15.0552C229.458 15.5917 230.175 15.8206 230.6 15.6786C230.999 15.5458 231.411 15.6465 231.61 15.9258C231.795 16.1854 232.258 16.3981 232.639 16.3981C233.021 16.3984 233.354 16.5888 233.381 16.8207C233.408 17.053 233.451 17.3708 233.478 17.5267C233.614 18.3195 237.024 18.9497 237.024 18.1819C237.024 17.9547 237.296 18.1072 237.629 18.5207C237.962 18.9345 238.139 19.4075 238.022 19.5718C237.739 19.9708 238.525 20.4793 239.852 20.7552C240.495 20.8891 241.359 21.5179 241.989 22.3104C242.571 23.0424 243.262 23.6469 243.525 23.654C243.788 23.6611 244.123 24.08 244.269 24.5855C244.414 25.0906 244.856 25.8047 245.25 26.1725C245.736 26.6266 245.874 27.0644 245.681 27.5364C245.524 27.9185 245.434 28.8306 245.481 29.563C245.528 30.2956 245.305 31.2409 244.986 31.6642C244.668 32.0875 244.407 32.667 244.407 32.9527C244.407 33.2381 244.232 33.4335 244.018 33.3872C243.804 33.3405 243.407 33.683 243.137 34.1479C242.866 34.6128 242.254 35.1433 241.777 35.3269C241.3 35.5105 240.91 35.9212 240.91 36.2397C240.91 36.5586 240.663 36.9406 240.361 37.0894C240.058 37.2381 239.753 37.8163 239.681 38.3741C239.585 39.1129 239.337 39.3979 238.767 39.4229C237.74 39.4682 235.904 40.3179 234.701 41.3038C234.172 41.7379 233.693 42.0594 233.637 42.0178C233.349 41.8062 229.739 43.2177 228.966 43.8442C228.696 44.0633 228.475 44.4234 228.475 44.6442C228.475 44.8741 228.155 44.9731 227.728 44.8758C227.317 44.7825 226.438 44.9928 225.775 45.3437C225.112 45.6943 224.318 45.9814 224.01 45.9814C223.702 45.9814 222.803 46.4757 222.013 47.0795C221.222 47.6837 220.254 48.1303 219.862 48.0725C219.36 47.9984 219.149 48.1756 219.149 48.6713C219.149 49.265 218.986 49.3397 218.114 49.149C217.256 48.962 217.12 49.0192 217.324 49.4807C217.488 49.8536 217.367 50.0385 216.958 50.0385C216.573 50.0385 216.429 49.8499 216.569 49.5314C216.721 49.1865 216.548 49.0242 216.028 49.0242C215.607 49.0242 215.263 49.151 215.263 49.3059C215.263 49.4611 215.044 49.6135 214.777 49.6453C210.506 50.1521 208.354 50.8675 208.194 51.8338C208.086 52.4901 208.018 52.51 207.508 52.0326C206.93 51.492 206.91 51.4937 203.539 52.3887C202.755 52.5969 201.459 52.8404 200.658 52.9293C199.857 53.0185 199.001 53.2369 198.755 53.4144C198.509 53.5919 197.27 53.8371 196.002 53.9591C194.723 54.0822 192.879 54.5599 191.861 55.0326C190.386 55.7162 189.913 55.8031 189.457 55.4735C189.041 55.1736 188.679 55.1604 188.112 55.4248C187.685 55.6236 186.739 55.7862 186.009 55.7862C185.28 55.7862 184.141 56.0215 183.478 56.3092C182.737 56.6314 180.752 56.8962 178.314 56.9983C176.136 57.0896 174.052 57.3049 173.683 57.477C173.314 57.6488 171.808 57.8141 170.336 57.8445C168.865 57.875 166.957 58.1032 166.097 58.352C165.237 58.6005 163.401 58.8315 162.017 58.8653C160.255 58.9085 159.227 59.1121 158.587 59.5448C157.794 60.0814 157.601 60.099 157.117 59.6777C156.711 59.3247 156.302 59.2777 155.614 59.5053C155.094 59.6774 154.007 59.8062 153.198 59.7917C152.39 59.7771 151.553 59.7981 151.34 59.8383C151.126 59.8789 150.401 59.886 149.727 59.8545C149.054 59.8231 148.388 59.96 148.247 60.1585C148.106 60.357 147.586 60.5196 147.09 60.5196C146.594 60.5196 145.975 60.7434 145.714 61.0173C145.323 61.4277 145.15 61.4372 144.73 61.072C144.099 60.5226 139.647 60.6596 138.825 61.2536C138.384 61.5717 138.194 61.5626 137.944 61.2103C137.705 60.8746 136.535 60.7759 133.307 60.8191C128.587 60.8824 127.059 61.1988 127.041 62.1171C127.03 62.6729 126.998 62.6706 126.607 62.085C126.266 61.5734 126.119 61.5413 125.842 61.9159C125.572 62.2794 125.451 62.2307 125.28 61.6887C125.132 61.2201 124.695 60.974 123.92 60.9226C123.292 60.881 122.778 60.9814 122.778 61.1461C122.778 61.3107 122.254 61.3919 121.613 61.327C120.971 61.262 120.447 61.3469 120.447 61.5156C120.447 61.9541 119.256 62.1211 118.083 61.8476C117.328 61.6715 116.966 61.7712 116.623 62.25C116.371 62.5999 115.87 62.8863 115.509 62.8863C114.997 62.8863 114.955 62.796 115.317 62.4805C116.306 61.6204 115.768 61.3652 113.057 61.4078C111.557 61.4311 110.239 61.3229 110.129 61.1667C109.833 60.7508 108.076 61.5369 107.881 62.1725C107.746 62.6114 107.705 62.5965 107.668 62.0958C107.628 61.541 107.3 61.4838 104.612 61.5653C102.956 61.6154 101.213 61.7753 100.739 61.9203C100.233 62.0758 99.7773 62.041 99.6316 61.8361C99.4956 61.6444 99.1175 61.5768 98.7915 61.6857C98.4654 61.7945 98.0022 61.7509 97.7621 61.5886C96.5019 60.7366 94.8352 61.0369 94.3106 62.2101C94.1307 62.6131 94.0779 62.5945 94.0534 62.1201C94.0316 61.6972 93.7114 61.5271 92.9541 61.5373C92.3665 61.5447 91.4537 61.5092 90.926 61.4578C89.8687 61.3554 89.2866 62.4292 90.1484 62.8924C90.4104 63.0333 90.5048 63.318 90.3579 63.5246C89.9724 64.0672 89.3596 63.9868 89.3596 63.3934C89.3596 63.1145 89.1785 62.8863 88.9574 62.8863C88.6912 62.8863 88.7029 62.6459 88.9924 62.1752C89.4136 61.4903 89.3577 61.469 87.4512 61.5836C85.9672 61.6732 85.4733 61.587 85.4733 61.2391C85.4737 60.8648 85.3606 60.8563 84.8908 61.1958C84.5372 61.451 84.3079 61.4781 84.3079 61.2644C84.3079 61.0582 83.3011 60.9104 81.8792 60.9081C80.5437 60.9057 77.4983 60.8529 75.1127 60.7911C72.7268 60.7295 70.8557 60.7934 70.9552 60.9334C71.1961 61.2722 69.9627 60.8658 68.8234 60.2305C68.1616 59.862 67.7346 59.818 67.269 60.0706C66.9111 60.265 66.2832 60.3022 65.8499 60.1551C64.7051 59.766 61.7922 59.7947 60.0646 60.2122C58.926 60.4871 58.4826 60.4773 58.2658 60.1724C58.1022 59.9418 56.9947 59.747 55.6964 59.7206C53.8059 59.6824 53.2654 59.8045 52.5407 60.4351C51.453 61.3814 50.7042 61.4446 51.357 60.5348C51.9073 59.7683 51.4841 59.1905 50.8049 59.7815C50.1353 60.3641 49.5419 60.2721 50.112 59.6743C50.3782 59.3954 50.5305 59.1594 50.4509 59.1499C50.3716 59.1408 49.2008 59.0485 47.8496 58.9451C45.6467 58.7763 45.29 58.8389 44.3947 59.5536L43.3964 60.3505L43.6529 59.4208C43.9323 58.4078 43.9579 58.4197 41.2716 58.3206C40.3631 58.2868 39.6201 58.3983 39.6201 58.5684C39.6201 58.7385 39.3453 58.6384 39.0096 58.3459C38.6735 58.0538 38.0906 57.8148 37.714 57.8148C37.3375 57.8148 36.9178 57.7174 36.781 57.5987C36.6446 57.4797 35.8721 57.3438 35.065 57.2968C31.3373 57.0784 28.9579 56.7603 28.4815 56.4164C28.0968 56.1385 27.8003 56.1584 27.3375 56.4928C26.8083 56.8749 26.6357 56.8526 26.211 56.3471C25.8341 55.8988 25.6584 55.8599 25.5053 56.1909C25.3452 56.5364 25.2283 56.5415 24.9621 56.2149C24.7752 55.986 24.216 55.8667 23.7194 55.9498C23.2224 56.0334 21.8382 55.8024 20.6429 55.4369C19.448 55.0711 18.1575 54.8585 17.7759 54.9639C17.3504 55.0813 17.0795 54.9832 17.076 54.71C17.0714 54.3821 16.9684 54.3983 16.6843 54.7719C16.3544 55.206 16.2013 55.1715 15.6219 54.5335C15.2493 54.1238 13.9393 53.456 12.7102 53.0496C11.4811 52.6436 10.4758 52.2108 10.4758 52.0881C10.4758 51.9654 9.86379 51.9268 9.11575 52.0029C7.86527 52.13 7.75569 52.0692 7.75569 51.2503C7.75569 50.5264 7.53225 50.3208 6.56038 50.1518C5.71675 50.0051 5.06859 49.5351 4.35708 48.5543C3.80256 47.7898 3.39027 47.113 3.44078 47.0494C3.49169 46.9858 3.27991 46.7576 2.9702 46.5423C2.66088 46.3269 2.29833 45.2774 2.16426 44.2107C1.95054 42.5047 2.01505 42.22 2.7013 41.8471C3.1303 41.6141 3.4812 41.0796 3.4812 40.6594C3.4812 40.2394 3.6479 39.8956 3.85152 39.8956C4.05514 39.8956 4.51251 39.3631 4.8673 38.7122C5.22208 38.0614 5.75523 37.5289 6.05133 37.5289C6.34744 37.5289 6.58992 37.3372 6.58992 37.1032C6.58992 36.8689 6.93965 36.4872 7.3671 36.2549C7.79455 36.0227 8.14428 35.5473 8.14428 35.1987C8.14428 34.837 8.49828 34.4843 8.96964 34.3771C9.63336 34.226 9.74605 34.0201 9.54514 33.3233C9.30111 32.4781 9.80123 32.1197 10.2815 32.7955C10.4136 32.9815 10.6674 33.1336 10.8458 33.1336C11.3288 33.1336 11.6859 32.1163 11.361 31.6663C11.2056 31.4506 11.1283 31.008 11.19 30.6824C11.2514 30.3572 11.1057 30.0907 10.866 30.0907C10.6262 30.0907 10.5349 30.2385 10.6631 30.419C10.7914 30.5996 10.4583 30.8427 9.92285 30.9597C9.38738 31.0766 8.84374 31.4614 8.71473 31.8147C8.5861 32.1684 8.31759 32.4574 8.11824 32.4574C7.9189 32.4574 7.75569 32.6427 7.75569 32.8692C7.75569 33.0958 7.29054 33.6289 6.72243 34.0539C6.15392 34.4786 5.4972 35.1683 5.26327 35.5859C5.02934 36.0037 4.27392 36.5738 3.58495 36.8527C2.89481 37.132 2.32864 37.6209 2.32397 37.941C2.31853 38.3173 2.10986 38.4533 1.73254 38.3275C1.05639 38.1016 0.998106 38.4901 1.52581 39.6985C1.83746 40.4109 1.76829 40.6218 1.12634 40.9207C0.699668 41.1195 0.457965 41.4329 0.589309 41.6179C0.720652 41.8025 0.604852 42.1876 0.332062 42.4736C-0.0367099 42.8604 -0.0545848 43.1454 0.262893 43.588C0.524414 43.9518 0.555113 44.3673 0.342943 44.6591C-0.129583 45.3085 -0.10821 46.9957 0.372476 46.9957C0.5862 46.9957 0.775055 47.4142 0.791764 47.9254C0.808474 48.4366 0.910673 48.6652 1.01831 48.4326C1.27284 47.8845 1.853 47.8845 1.79782 48.4326C1.72593 49.146 3.2053 51.3909 3.74738 51.3909C4.02833 51.3909 4.25838 51.6049 4.25838 51.8663C4.25838 52.1648 4.52961 52.2801 4.98621 52.1763C5.48438 52.0631 5.98255 52.3393 6.56699 53.0534C7.03602 53.6268 7.75802 54.0957 8.1707 54.0957C8.58377 54.0957 8.92146 54.3239 8.92146 54.6029C8.92146 54.8818 9.18376 55.11 9.50434 55.11C9.82493 55.11 10.0872 55.275 10.0872 55.4762C10.0872 55.6777 10.306 55.7727 10.573 55.6875C10.8403 55.6023 11.0171 55.367 10.9662 55.1644C10.9153 54.9619 11.1341 54.8831 11.452 54.9893C11.7698 55.0955 12.0302 55.3771 12.0302 55.6148C12.0302 56.0367 14.2502 57.1386 15.1004 57.1386C15.3355 57.1386 15.5275 57.2677 15.5275 57.4253C15.5275 57.5829 16.0696 57.7252 16.7325 57.7418C17.3951 57.758 18.2488 58.017 18.6296 58.3169C19.0944 58.6827 19.6563 58.7889 20.339 58.6398C20.9359 58.5096 21.3563 58.5596 21.3563 58.7608C21.3563 58.9495 21.7061 59.0242 22.1335 58.9271C23.0106 58.7273 23.1528 58.2942 22.425 58.0386C22.158 57.945 22.3329 57.856 22.8136 57.8415C23.3191 57.8259 23.6879 58.0146 23.6879 58.2888C23.6879 58.8534 25.8519 59.6584 27.088 59.5536C27.5687 59.5131 27.9624 59.6213 27.9624 59.7944C27.9624 60.3174 29.1903 60.5574 29.7604 60.146C30.1735 59.8474 30.2939 59.8782 30.2939 60.2822C30.2939 60.6765 30.8873 60.8502 32.7226 60.9936C34.0586 61.0981 35.6495 61.167 36.2588 61.1474C37.2567 61.115 37.3449 61.0179 37.1498 60.1696C36.9975 59.5073 37.1106 59.1692 37.5314 59.0286C38.4392 58.7256 38.5588 58.7804 38.2958 59.3771C38.11 59.7984 38.2351 59.8836 38.8371 59.7467C39.835 59.5198 39.8427 59.8924 38.8534 60.5128C38.1473 60.9557 38.1361 61.0409 38.7081 61.591C39.1464 62.0123 39.5214 62.0988 39.9815 61.8848C40.351 61.7124 40.8686 61.7077 41.1768 61.8733C41.4756 62.0339 41.8451 62.0985 41.9975 62.0163C42.1502 61.9342 42.7704 62.0326 43.3762 62.2351C43.982 62.4376 45.3518 62.6712 46.4204 62.7547C47.489 62.8379 48.6913 62.9941 49.092 63.1016C49.5664 63.2288 49.7281 63.1662 49.5548 62.9224C49.1561 62.3612 49.9437 62.4718 50.5006 63.0553C51.1837 63.7717 51.6664 63.6845 51.6664 62.845C51.6664 62.32 51.7969 62.2162 52.1521 62.4576C52.4195 62.6395 53.2063 62.9546 53.9008 63.1578C55.086 63.5046 55.1637 63.4786 55.1637 62.7392C55.1637 62.2354 55.4438 61.8872 55.9397 61.7743C56.5502 61.6353 56.6442 61.7087 56.3807 62.1184C55.794 63.0303 57.2034 63.863 59.3189 63.8549C60.3463 63.8509 61.931 63.9959 62.8407 64.1768C63.8063 64.3688 64.5839 64.38 64.7094 64.2032C64.8275 64.0368 64.7389 63.9006 64.5128 63.9006C64.2866 63.9006 64.1012 63.7819 64.1012 63.6365C64.1012 63.219 66.3018 62.607 66.8136 62.8822C67.1167 63.0452 66.9636 63.2068 66.3687 63.3525L65.4613 63.5743L66.3457 64.2214C67.4688 65.043 72.9533 65.1637 73.3015 64.3746C73.5793 63.7447 74.2046 63.7677 74.2046 64.4077C74.2046 64.7194 74.5687 64.9149 75.15 64.9149C75.9455 64.9149 76.0904 64.7563 76.0628 63.9175C76.0391 63.1885 75.8196 62.8927 75.2476 62.8186C74.5652 62.7301 74.5399 62.6635 75.0521 62.2966C75.5487 61.9406 75.7827 62.1188 76.5734 63.457L77.5076 65.0379L77.7279 64.0466C77.8492 63.5013 77.8127 62.7203 77.6475 62.3108C77.4143 61.734 77.4742 61.6089 77.9129 61.7553C78.2242 61.8591 78.4818 62.1181 78.4849 62.3308C78.4884 62.562 78.6271 62.5299 78.8304 62.2513C79.3076 61.5957 80.1143 62.1316 79.8287 62.9147C79.6989 63.271 79.7673 63.5625 79.981 63.5625C80.1947 63.5625 80.4807 63.8667 80.6163 64.2387C80.7519 64.6106 81.1133 64.9149 81.4195 64.9149C81.7258 64.9149 81.9764 65.067 81.9764 65.253C81.9764 65.7036 83.3839 65.6833 84.3829 65.2181C84.9981 64.9318 85.2611 64.9514 85.5172 65.3027C85.776 65.658 85.8518 65.6282 85.8565 65.1684C85.8635 64.4632 86.9154 64.3918 87.7746 65.0383C88.1122 65.2918 89.0441 65.5867 89.8453 65.6932C90.982 65.8439 91.3026 65.7746 91.3026 65.378C91.3026 64.8679 92.2468 64.9581 93.6135 65.5982C93.9228 65.7432 94.5725 65.7307 95.0571 65.5701C95.586 65.3953 96.0305 65.4088 96.1693 65.6039C96.5081 66.081 98.9819 66.0008 99.1731 65.5065C99.2912 65.2016 99.489 65.1833 99.8853 65.4409C100.187 65.6377 101.439 65.8365 102.667 65.8832C104.641 65.9579 105.008 65.8656 105.842 65.0822L106.786 64.1967L106.913 64.9784C107.033 65.7128 107.194 65.7557 109.566 65.6867C110.955 65.6465 112.267 65.5978 112.481 65.5782C112.694 65.5589 115.257 65.6482 118.175 65.776C123.153 65.9944 123.493 65.9701 123.667 65.3774C123.832 64.8198 123.859 64.8151 123.899 65.3375C123.939 65.8652 124.372 66.0789 125.19 65.9741C125.782 65.898 137.024 65.5187 138.031 65.5407C138.618 65.5535 139.099 65.4217 139.099 65.2475C139.099 65.0562 139.457 65.0498 140.006 65.2317C140.505 65.3966 141.145 65.4068 141.428 65.2543C141.714 65.1005 142.235 65.135 142.597 65.3317C143.003 65.5522 143.824 65.5829 144.769 65.4129C145.605 65.2624 146.447 65.1728 146.641 65.2137C146.835 65.255 147.119 65.1126 147.272 64.8979C147.481 64.6028 147.754 64.6024 148.384 64.8956C148.843 65.1093 149.378 65.1985 149.572 65.094C149.767 64.9896 151.021 64.8297 152.359 64.7394C153.698 64.6488 154.906 64.4155 155.044 64.2207C155.182 64.026 155.629 63.8722 156.038 63.8793C157.06 63.8965 158.205 63.8948 159.014 63.8752C159.388 63.8661 159.694 63.6399 159.694 63.3725C159.694 63.105 159.957 62.8863 160.277 62.8863C160.598 62.8863 160.86 63.0384 160.86 63.2244C160.86 63.4103 161.112 63.5625 161.419 63.5625C161.816 63.5625 161.971 63.1672 161.956 62.1938C161.944 61.4409 162.042 60.7309 162.174 60.6159C162.307 60.501 162.415 60.8053 162.415 61.2925C162.415 62.2817 163.157 63.9006 163.611 63.9006C164.339 63.9006 165.135 63.4506 165.135 63.0391C165.135 62.2777 166.001 62.0728 166.535 62.7081C167.134 63.4205 168.44 63.1439 168.102 62.3764C167.972 62.0816 168.099 61.872 168.408 61.872C168.699 61.872 169.038 62.1002 169.161 62.3791C169.284 62.658 169.784 62.8687 170.271 62.847C170.929 62.818 170.983 62.7679 170.478 62.6533C169.688 62.4738 169.556 61.872 170.306 61.872C170.586 61.872 171.154 62.0877 171.568 62.3511C172.1 62.6895 172.465 62.727 172.808 62.4789C173.151 62.2314 173.295 62.2442 173.295 62.5221C173.295 62.7842 173.719 62.8477 174.558 62.7115C175.907 62.492 176.364 62.4244 180.29 61.8645C181.679 61.6661 183.165 61.3641 183.593 61.1927C184.02 61.0217 184.807 60.8976 185.341 60.9172C186.73 60.9686 189.356 60.5175 189.791 60.1531C189.994 59.9827 190.491 59.8434 190.897 59.8434C191.302 59.8434 192.097 59.5594 192.665 59.2118C193.367 58.7818 193.944 58.6665 194.473 58.85C195.702 59.2764 196.217 59.2111 195.974 58.66C195.832 58.3388 195.979 58.1529 196.375 58.1529C196.718 58.1529 196.999 58.305 196.999 58.491C196.999 58.6769 197.261 58.8291 197.582 58.8291C198.271 58.8291 198.277 58.7919 197.786 57.6677C197.54 57.1041 197.54 56.8005 197.786 56.8005C197.994 56.8005 198.165 57.0287 198.165 57.3076C198.165 57.5866 198.5 57.8148 198.91 57.8148C199.319 57.8148 199.713 57.9622 199.784 58.1424C199.86 58.3344 200.655 58.2381 201.702 57.9098C203.055 57.4855 203.598 57.099 203.935 56.3224L204.381 55.296L204.973 56.0307C205.536 56.7302 205.641 56.742 207.152 56.2781C208.025 56.01 208.87 55.8613 209.031 55.9475C209.191 56.0334 209.243 55.746 209.147 55.3085C208.975 54.5271 209.842 53.6386 210.105 54.326C210.179 54.5187 210.466 54.946 210.743 55.276C211.188 55.8055 211.426 55.8274 212.769 55.4633C213.607 55.2365 215.033 54.7601 215.939 54.4044C216.845 54.0487 217.854 53.7576 218.181 53.7576C218.508 53.7576 219.468 53.3773 220.314 52.9124C221.161 52.4475 222.107 52.0671 222.416 52.0671C222.726 52.0671 223.21 51.8768 223.493 51.6445C223.775 51.4122 224.593 51.181 225.311 51.1313C226.028 51.0812 226.985 50.8151 227.437 50.5396C227.889 50.264 228.57 50.0385 228.95 50.0385C229.33 50.0385 229.641 49.8103 229.641 49.5314C229.641 49.247 229.987 49.0242 230.43 49.0242C230.864 49.0242 231.32 48.796 231.443 48.5171C231.566 48.2382 232.09 48.0099 232.606 48.0099C233.251 48.0099 233.662 47.7445 233.915 47.1647C234.277 46.3377 235.081 45.9878 235.081 46.6576C235.081 47.1576 235.83 47.068 236.497 46.4885C236.817 46.2096 237.375 45.9814 237.737 45.9814C238.098 45.9814 238.567 45.6514 238.778 45.2484C238.989 44.845 239.51 44.3507 239.936 44.1495C240.361 43.9484 241.096 43.4416 241.568 43.023C242.041 42.6048 242.566 42.2558 242.737 42.2481C242.908 42.24 243.484 41.7558 244.018 41.1716C244.553 40.5873 245.472 39.7106 246.062 39.2238C247.491 38.0421 249.763 34.0735 248.675 34.6588C247.888 35.0817 248.164 33.4836 249.167 31.8086C249.77 30.8007 250.126 29.8879 249.958 29.78C249.79 29.6718 249.653 28.5311 249.652 27.245C249.651 25.6772 249.491 24.8597 249.167 24.7654C248.9 24.6879 248.682 24.4256 248.682 24.1821C248.682 23.9384 248.436 23.6571 248.135 23.557C247.835 23.4566 247.472 22.9095 247.328 22.3412C247.185 21.7728 246.906 21.2211 246.709 21.1149C246.511 21.0091 246.344 20.5888 246.336 20.1814C246.328 19.774 245.935 19.0542 245.462 18.5819C244.284 17.4056 241.687 15.7753 241.687 16.2115C241.687 16.4069 241.425 16.5668 241.104 16.5668C240.783 16.5668 240.521 16.439 240.521 16.2831C240.521 16.1269 240.084 15.8257 239.55 15.6141C239.015 15.4021 238.574 14.9595 238.568 14.6298C238.559 14.0179 236.35 12.8477 235.205 12.8477C234.863 12.8477 234.335 12.5813 234.031 12.2561C233.65 11.8493 233.417 11.7898 233.284 12.066C233.152 12.3379 232.836 12.2466 232.303 11.7831C231.757 11.3077 231.23 11.1613 230.578 11.3033C230.053 11.4183 229.641 11.3587 229.641 11.1681C229.641 10.6163 226.854 9.2524 225.172 8.9809C224.317 8.84296 223.438 8.60122 223.219 8.444C222.414 7.86585 218.355 6.86914 215.518 6.55336C214.63 6.45463 213.335 6.24501 212.64 6.0878C211.785 5.8944 211.377 5.92145 211.377 6.17198C211.377 6.37518 210.983 6.2254 210.503 5.83862C209.954 5.3974 208.905 5.0735 207.685 4.96835C206.617 4.87605 204.868 4.63025 203.799 4.42165C202.731 4.21338 200.844 3.98347 199.606 3.91044C198.368 3.83775 197.144 3.63185 196.886 3.453C196.628 3.27414 195.192 3.11388 193.696 3.09664C191.016 3.06587 190.378 2.99656 189.227 2.61215C188.181 2.26289 184.564 2.12021 184.564 2.42822C184.564 2.59355 184.241 2.57834 183.846 2.39441C183.353 2.16451 182.989 2.18175 182.681 2.4502C182.342 2.74468 182.233 2.72473 182.233 2.36973C182.233 2.02724 182.1 2.05767 181.743 2.4813C181.192 3.13789 179.628 3.07534 179.131 2.37717C178.919 2.07795 178.409 2.00087 177.59 2.14354C176.757 2.28825 176.448 2.23922 176.626 1.98971C176.789 1.7598 176.554 1.77772 175.996 2.03772C175.259 2.38089 175.029 2.36195 174.665 1.92851C174.27 1.45856 174.179 1.46295 173.783 1.9701C173.373 2.49449 173.339 2.49246 173.318 1.94406C173.305 1.61881 173.251 1.33853 173.198 1.32163C173.145 1.30506 171.363 1.22392 169.239 1.14176C167.115 1.05926 165.164 0.837469 164.902 0.648811C164.577 0.413494 164.34 0.42668 164.153 0.690059C163.975 0.940927 163.388 0.989614 162.467 0.829693C160.061 0.411804 158.529 0.445952 158.529 0.917599C158.529 1.15663 158.354 1.35239 158.14 1.35239C157.926 1.35239 157.795 1.18132 157.849 0.972032C157.902 0.76275 157.509 0.550424 156.974 0.500047C156.44 0.449671 155.61 0.298879 155.128 0.164654C154.467 -0.0196099 154.254 0.0540955 154.254 0.46759C154.254 0.768497 154.458 1.01429 154.708 1.01429C154.957 1.01429 155.03 1.12823 154.87 1.26719C154.71 1.40649 154.359 1.25874 154.091 0.938899C153.426 0.148425 151.616 0.0929771 150.032 0.814479C149.002 1.28342 148.631 1.32163 148.283 0.993332C147.95 0.679239 147.961 0.635625 148.328 0.815493C148.626 0.96189 148.814 0.850655 148.814 0.527095C148.814 0.237345 148.59 0 148.318 0C147.713 0 146.078 0.920979 145.414 1.63538C144.991 2.08978 144.928 2.05834 144.928 1.39432C144.928 0.784388 144.771 0.67383 144.151 0.845245C143.597 0.998066 143.374 0.906103 143.374 0.524728C143.374 0.132873 143.035 0.00642373 142.111 0.0530813C141.416 0.0885816 140.565 0.237683 140.219 0.384756C139.873 0.531829 139.484 0.560229 139.354 0.447642C139.225 0.334717 137.515 0.19914 135.554 0.146058C132.859 0.073367 131.768 0.176149 131.08 0.568681C130.316 1.00415 130.136 1.01193 129.962 0.617367C129.744 0.123406 128.316 0.0368524 127.513 0.468942C127.253 0.608576 127.123 0.839836 127.225 0.982513C127.326 1.12519 127.17 1.53902 126.878 1.90146C126.425 2.46406 125.132 2.67165 123.944 2.37277C123.616 2.29028 125.67 1.58027 126.032 1.65161C126.219 1.68812 126.262 1.4714 126.129 1.16948C125.996 0.867898 125.887 0.4801 125.887 0.308346C125.887 0.126787 124.624 0.0787769 122.876 0.19373C119.323 0.427018 119.387 0.427694 118.018 0.143354C117.201 -0.0267098 116.95 0.0449669 116.95 0.447642C116.95 0.914217 116.828 0.918951 115.881 0.489228C114.418 -0.174797 111.51 -0.131858 110.357 0.57071C109.693 0.975413 109.376 1.02444 109.267 0.739759C109.041 0.150454 107.025 0.250193 106.425 0.88007C105.954 1.37302 105.852 1.36254 105.295 0.763764C104.774 0.204212 104.607 0.176149 104.176 0.577134ZM109.178 1.52144C109.178 1.80037 109.003 2.04752 108.789 2.07085C108.575 2.09418 108.219 2.13205 107.998 2.15538C107.776 2.1787 107.429 2.42585 107.227 2.70479C106.704 3.42392 106.723 2.52221 107.248 1.66818C107.722 0.897989 109.178 0.787431 109.178 1.52144ZM88.5824 2.17769C88.5824 2.25985 88.4076 2.42078 88.1938 2.53574C87.9801 2.65069 87.8052 2.58341 87.8052 2.38663C87.8052 2.18986 87.9801 2.02859 88.1938 2.02859C88.4076 2.02859 88.5824 2.09553 88.5824 2.17769ZM77.1361 4.03317C76.7541 4.57109 76.1386 4.13291 76.4102 3.51656C76.5598 3.17745 76.7716 3.11253 77.0203 3.32892C77.2298 3.51115 77.2818 3.82795 77.1361 4.03317ZM172.129 3.55003C172.129 3.82896 171.872 4.05718 171.558 4.05718C171.211 4.05718 171.075 3.85905 171.211 3.55003C171.335 3.2711 171.591 3.04288 171.782 3.04288C171.973 3.04288 172.129 3.2711 172.129 3.55003ZM176.182 3.29646C175.988 3.43609 175.699 3.70218 175.54 3.88813C175.374 4.08118 175.247 3.97232 175.244 3.63456C175.241 3.30559 175.526 3.04288 175.886 3.04288C176.242 3.04288 176.375 3.15682 176.182 3.29646ZM75.3704 4.05718C75.3704 4.24313 75.1955 4.39528 74.9818 4.39528C74.7681 4.39528 74.5932 4.24313 74.5932 4.05718C74.5932 3.87122 74.7681 3.71908 74.9818 3.71908C75.1955 3.71908 75.3704 3.87122 75.3704 4.05718ZM87.6999 3.92329C87.5709 4.03554 87.2356 4.04771 86.9554 3.95C86.6453 3.84215 86.7374 3.76202 87.1901 3.74579C87.5997 3.73125 87.8289 3.81104 87.6999 3.92329ZM182.233 4.42097C182.233 4.58089 181.97 4.62451 181.65 4.51767C181.329 4.41049 181.067 4.19174 181.067 4.03148C181.067 3.87156 181.329 3.82795 181.65 3.93479C181.97 4.04196 182.233 4.26071 182.233 4.42097ZM190.393 4.05718C190.393 4.24313 190.087 4.39291 189.713 4.39021C189.132 4.38581 189.118 4.33712 189.616 4.05718C190.349 3.6447 190.393 3.6447 190.393 4.05718ZM68.1814 4.73337C68.3136 4.91933 68.2362 5.07147 68.0101 5.07147C67.7839 5.07147 67.5986 4.91933 67.5986 4.73337C67.5986 4.54742 67.6755 4.39528 67.7699 4.39528C67.8644 4.39528 68.0493 4.54742 68.1814 4.73337ZM169.798 4.73337C169.798 4.91933 169.612 5.07147 169.386 5.07147C169.16 5.07147 169.083 4.91933 169.215 4.73337C169.347 4.54742 169.532 4.39528 169.626 4.39528C169.721 4.39528 169.798 4.54742 169.798 4.73337ZM179.495 5.56002C179.848 5.93058 179.864 6.08577 179.548 6.08577C179.301 6.08577 178.999 5.85755 178.876 5.57862C178.753 5.29969 178.409 5.07147 178.111 5.07147C177.813 5.07147 177.57 4.91392 177.57 4.72154C177.57 4.2837 178.78 4.8108 179.495 5.56002ZM174.356 4.93759C174.227 5.04983 173.891 5.06201 173.611 4.9643C173.301 4.85644 173.393 4.77631 173.846 4.76008C174.255 4.74555 174.485 4.82534 174.356 4.93759ZM60.4745 5.97318C59.9682 6.41338 60.2258 7.10006 60.8954 7.09499C61.4332 7.09093 61.4635 7.02805 61.0399 6.79442C60.7454 6.63213 60.6245 6.33021 60.7714 6.12363C61.0652 5.71014 60.8829 5.61784 60.4745 5.97318ZM188.733 6.96618C188.604 7.07842 188.269 7.09059 187.989 6.99288C187.679 6.88503 187.771 6.8049 188.224 6.78867C188.633 6.77414 188.862 6.85393 188.733 6.96618ZM190.004 7.43816C190.004 7.62411 189.83 7.77626 189.616 7.77626C189.402 7.77626 189.227 7.62411 189.227 7.43816C189.227 7.25221 189.402 7.10006 189.616 7.10006C189.83 7.10006 190.004 7.25221 190.004 7.43816ZM194.279 7.60721C194.279 7.88614 194.104 8.11436 193.89 8.11436C193.677 8.11436 193.502 7.88614 193.502 7.60721C193.502 7.32828 193.677 7.10006 193.89 7.10006C194.104 7.10006 194.279 7.32828 194.279 7.60721ZM205.159 8.30335C205.159 8.5931 204.985 8.73646 204.771 8.6215C204.557 8.50655 204.382 8.26954 204.382 8.09441C204.382 7.91927 204.557 7.77626 204.771 7.77626C204.985 7.77626 205.159 8.0136 205.159 8.30335ZM219.537 11.3263C219.537 11.6052 219.275 11.8334 218.954 11.8334C218.634 11.8334 218.372 11.6052 218.372 11.3263C218.372 11.0474 218.634 10.8191 218.954 10.8191C219.275 10.8191 219.537 11.0474 219.537 11.3263ZM233.007 14.2846C232.899 14.5173 232.811 14.3269 232.811 13.862C232.811 13.3971 232.899 13.2071 233.007 13.4394C233.115 13.672 233.115 14.0524 233.007 14.2846ZM49.9177 18.2573C49.7856 18.4433 49.8629 18.5954 50.0891 18.5954C50.3152 18.5954 50.5006 18.4433 50.5006 18.2573C50.5006 18.0713 50.4237 17.9192 50.3292 17.9192C50.2348 17.9192 50.0498 18.0713 49.9177 18.2573ZM44.7331 19.6097C44.7331 20.0746 44.8214 20.2649 44.929 20.0323C45.037 19.8 45.037 19.4197 44.929 19.1871C44.8214 18.9548 44.7331 19.1448 44.7331 19.6097ZM36.5836 20.0201C35.9782 20.5469 35.993 21.0595 36.6085 20.8654C36.8759 20.7812 37.3892 20.9354 37.7498 21.2082C38.1104 21.4814 38.5911 21.6045 38.8184 21.4824C39.3722 21.1846 39.3446 20.624 38.7764 20.624C38.5262 20.624 38.0339 20.3978 37.683 20.1216C37.1906 19.7338 36.9392 19.7108 36.5836 20.0201ZM31.3571 21.5024C31.2292 21.6136 31.2184 21.9169 31.333 22.1769C31.5001 22.5559 31.197 22.6083 29.8031 22.4419C28.6964 22.3101 27.9674 22.3723 27.7964 22.6127C27.6488 22.8206 27.7133 22.9907 27.9394 22.9907C28.1656 22.9907 28.351 23.3521 28.351 23.7937C28.351 24.4249 28.5589 24.5966 29.3224 24.5966C30.0067 24.5966 30.2939 24.4127 30.2939 23.9745C30.2939 23.2899 31.3761 22.6573 32.1401 22.8957C32.465 22.9971 32.5396 22.8514 32.3655 22.4565C32.1875 22.0535 32.2493 21.9432 32.5594 22.1099C32.8096 22.2445 33.014 22.2097 33.014 22.0325C33.014 21.8553 32.7374 21.6183 32.3993 21.5054C31.645 21.2535 31.6427 21.2535 31.3571 21.5024ZM33.7912 22.2269C33.7912 22.8504 34.5093 23.0569 35.2453 22.6455C35.7963 22.3371 35.8061 22.2959 35.2958 22.4315C34.9477 22.5241 34.467 22.4291 34.2272 22.2205C33.9051 21.9402 33.7912 21.9419 33.7912 22.2269ZM25.4365 23.3288C25.3044 23.5147 25.3817 23.6669 25.6079 23.6669C25.8341 23.6669 26.0194 23.8826 26.0194 24.146C26.0194 24.8401 26.9171 24.9966 27.4292 24.3918C27.7599 24.0013 27.7428 23.7656 27.3597 23.4326C26.757 22.9078 25.7731 22.8548 25.4365 23.3288ZM22.8136 24.2379C22.4393 24.3231 22.1335 24.6673 22.1335 25.0027C22.1335 25.3381 21.8386 25.8216 21.478 26.0768C20.9071 26.4805 20.8535 26.4677 21.0649 25.9771C21.2091 25.6414 21.0816 25.3381 20.749 25.2269C20.442 25.1244 20.1906 25.188 20.1906 25.3678C20.1906 25.5481 19.9283 25.6955 19.6077 25.6955C19.2871 25.6955 19.0248 25.8429 19.0248 26.0231C19.0248 26.2029 18.7804 26.2689 18.4812 26.1688C17.6131 25.8791 17.5042 26.4822 18.2974 27.1915C18.9389 27.7656 19.0248 27.7758 19.0248 27.2761C19.0248 26.9647 19.2871 26.7098 19.6077 26.7098C19.9283 26.7098 20.1906 26.9485 20.1906 27.2406C20.1906 28.1284 21.8677 27.6801 22.1759 26.7098C22.3449 26.1779 22.4592 26.0839 22.4833 26.4562C22.5268 27.1168 23.1139 27.2446 23.5146 26.6803C23.658 26.4782 24.1025 26.3872 24.5024 26.4782C25.0961 26.6131 25.1614 26.5339 24.8606 26.0447C24.6582 25.7157 24.5987 25.354 24.7285 25.2411C24.9869 25.0159 24.1301 23.981 23.7376 24.0442C23.6032 24.0658 23.1878 24.1531 22.8136 24.2379ZM25.2422 25.3574C24.7441 25.6373 24.7581 25.686 25.3394 25.6904C25.7136 25.6931 26.0194 25.5433 26.0194 25.3574C26.0194 24.9449 25.9755 24.9449 25.2422 25.3574ZM15.0627 27.8833C13.0623 29.0061 12.8524 29.2942 13.876 29.5129C14.2498 29.5927 13.9879 29.5964 13.2931 29.521C11.9859 29.379 11.5538 29.8595 12.657 30.2277C13.0549 30.3605 13.2103 30.6828 13.0821 31.1091C12.971 31.4786 13.0386 31.7812 13.2325 31.7812C13.426 31.7812 13.5845 31.4769 13.5845 31.105C13.5845 30.368 13.8709 30.276 14.7157 30.7412C15.3522 31.0919 16.6933 30.488 16.6933 29.851C16.6933 29.6083 16.9762 29.515 17.3733 29.6262C17.9216 29.7797 17.9453 29.7499 17.4953 29.4724C17.0403 29.1914 17.0286 29.0325 17.432 28.6095C17.8334 28.1889 17.8287 27.9749 17.4071 27.4752C16.9132 26.8896 16.7974 26.9096 15.0627 27.8833ZM7.1728 35.1622C7.30687 35.3509 7.0162 35.4979 6.5157 35.4952C5.7937 35.4908 5.7323 35.4259 6.20133 35.1622C6.92449 34.7558 6.88408 34.7558 7.1728 35.1622ZM234.109 43.9528C234.242 44.1387 234.067 44.2909 233.721 44.2909C233.375 44.2909 233.2 44.1387 233.332 43.9528C233.464 43.7668 233.639 43.6147 233.721 43.6147C233.802 43.6147 233.977 43.7668 234.109 43.9528ZM227.443 47.5173C227.316 47.8044 227.13 47.9667 227.028 47.8781C226.926 47.7895 226.958 47.5545 227.099 47.3564C227.482 46.8168 227.706 46.9216 227.443 47.5173ZM226.277 49.5459C226.151 49.833 225.964 49.9953 225.862 49.9067C225.76 49.8181 225.792 49.5831 225.933 49.385C226.316 48.8454 226.54 48.9502 226.277 49.5459ZM217.206 50.7147C217.206 50.9007 217.02 51.0528 216.794 51.0528C216.568 51.0528 216.491 50.9007 216.623 50.7147C216.755 50.5288 216.94 50.3766 217.034 50.3766C217.129 50.3766 217.206 50.5288 217.206 50.7147ZM218.566 50.7147C218.698 50.9007 218.533 51.0528 218.2 51.0528C217.867 51.0528 217.594 50.9007 217.594 50.7147C217.594 50.5288 217.759 50.3766 217.96 50.3766C218.161 50.3766 218.434 50.5288 218.566 50.7147ZM192.725 57.4767C192.725 57.6626 192.55 57.8148 192.336 57.8148C192.122 57.8148 191.947 57.6626 191.947 57.4767C191.947 57.2907 192.122 57.1386 192.336 57.1386C192.55 57.1386 192.725 57.2907 192.725 57.4767ZM42.47 60.553C42.648 60.669 42.517 60.856 42.1786 60.9689C41.7352 61.117 41.563 60.9723 41.563 60.4526C41.563 60.0557 41.6944 59.8684 41.8545 60.0368C42.0146 60.2048 42.2916 60.4374 42.47 60.553ZM49.2295 61.0619C49.1005 61.1741 48.7652 61.1863 48.485 61.0886C48.1749 60.9807 48.267 60.9006 48.7197 60.8844C49.1293 60.8698 49.3585 60.9496 49.2295 61.0619ZM144.539 62.3791C144.539 62.6706 144.189 62.8863 143.715 62.8863C143.025 62.8863 142.969 62.8028 143.374 62.3791C143.64 62.1002 144.011 61.872 144.198 61.872C144.386 61.872 144.539 62.1002 144.539 62.3791ZM101.989 62.5482C102.121 62.7341 101.946 62.8863 101.6 62.8863C101.254 62.8863 101.079 62.7341 101.212 62.5482C101.344 62.3622 101.519 62.2101 101.6 62.2101C101.682 62.2101 101.857 62.3622 101.989 62.5482ZM86.6395 62.676C86.6395 62.746 86.3772 62.9928 86.0566 63.2244C85.579 63.5692 85.4737 63.5459 85.4737 63.0966C85.4737 62.795 85.736 62.5482 86.0566 62.5482C86.3772 62.5482 86.6395 62.6056 86.6395 62.676ZM112.286 62.6973C112.286 62.7794 112.112 62.9404 111.898 63.0553C111.684 63.1703 111.509 63.103 111.509 62.9062C111.509 62.7094 111.684 62.5482 111.898 62.5482C112.112 62.5482 112.286 62.6151 112.286 62.6973ZM95.0264 63.5625C95.3295 63.5625 95.577 63.8667 95.577 64.2387C95.577 64.6106 95.4772 64.9149 95.3552 64.9149C94.9087 64.9149 94.2147 64.052 94.1311 63.3934C94.0841 63.0215 94.1424 62.9076 94.2605 63.1398C94.379 63.3725 94.7237 63.5625 95.0264 63.5625ZM78.8677 64.2387C78.8677 64.6745 79.0643 64.9142 79.3534 64.8303C79.6208 64.7529 79.8391 64.4865 79.8391 64.2387C79.8391 63.9908 79.6208 63.7244 79.3534 63.647C79.0643 63.5631 78.8677 63.8028 78.8677 64.2387ZM103.614 64.3022C103.49 64.5717 103.398 64.4916 103.38 64.0977C103.363 63.7413 103.455 63.5418 103.584 63.6541C103.713 63.7663 103.727 64.0581 103.614 64.3022ZM104.709 65.253C104.841 65.4389 104.676 65.591 104.343 65.591C104.01 65.591 103.737 65.4389 103.737 65.253C103.737 65.067 103.902 64.9149 104.103 64.9149C104.304 64.9149 104.577 65.067 104.709 65.253Z" fill="#C6D65D"/>
</svg>
