<svg width="226" height="66" viewBox="0 0 226 66" fill="none" xmlns="http://www.w3.org/2000/svg">
<path fill-rule="evenodd" clip-rule="evenodd" d="M131.825 0.577134C132.148 0.910161 132.411 0.945661 132.722 0.697496C133.328 0.212664 136.018 1.49 136.448 2.4671C136.694 3.02395 136.722 2.88263 136.56 1.90687L136.344 0.601815L137.883 0.861474C140.134 1.2415 140.787 1.28241 141.174 1.06771C141.674 0.790812 143.918 1.02106 144.394 1.39804C144.66 1.60833 144.853 1.56878 144.954 1.28207C145.078 0.93146 145.337 0.926389 146.265 1.2557C147.053 1.5353 147.627 1.55965 148.068 1.33245C148.562 1.07786 148.885 1.16171 149.43 1.6861C150.024 2.25782 150.395 2.33254 151.633 2.13103C152.453 1.99748 153.281 1.93899 153.474 2.00086C153.667 2.0624 154.695 2.15977 155.757 2.21691C158.828 2.38224 158.919 2.39509 158.919 2.66726C158.919 2.8096 159.417 2.85524 160.026 2.76936C161.016 2.62939 161.113 2.68957 160.938 3.335C160.806 3.81983 160.904 4.05718 161.235 4.05718C161.507 4.05718 161.729 3.82896 161.729 3.55003C161.729 3.21193 162.081 3.04288 162.783 3.04288C163.392 3.04288 163.837 3.2214 163.837 3.46551C163.837 3.72652 164.381 3.90537 165.26 3.93343C166.879 3.98482 167.392 4.28742 166.637 4.74656C166.287 4.95956 166.262 5.06268 166.56 5.0664C166.801 5.06911 166.999 5.29969 166.999 5.57862C166.999 5.85755 167.236 6.08577 167.526 6.08577C167.815 6.08577 168.052 5.85755 168.052 5.57862C168.052 5.29969 167.894 5.07147 167.701 5.07147C167.508 5.07147 167.35 4.91933 167.35 4.73337C167.35 4.22352 168.302 4.32766 168.514 4.8605C168.627 5.14383 169.028 5.26554 169.538 5.17155C170.313 5.02921 170.366 5.10765 170.233 6.20478C170.096 7.33369 169.226 8.12416 168.783 7.52269C168.671 7.37088 168.145 7.21975 167.613 7.18729C167.082 7.15483 166.45 7.11088 166.208 7.08958C165.967 7.06828 165.414 7.15585 164.979 7.28399C164.389 7.45811 164.188 7.38068 164.188 6.97868C164.188 6.54085 164.021 6.50197 163.287 6.77042C161.931 7.26641 160.675 7.18121 160.675 6.59292C160.675 6.27747 160.344 6.08577 159.797 6.08577C159.284 6.08577 158.919 6.28017 158.919 6.55302C158.919 7.19338 156.14 7.23395 155.886 6.59731C155.785 6.34374 155.28 6.14426 154.764 6.15373C152.976 6.18686 152.596 6.0834 152.596 5.56374C152.596 5.2767 152.398 5.0664 152.157 5.09683C151.915 5.12692 151.357 5.13368 150.915 5.11137C150.228 5.07722 150.166 4.97545 150.484 4.40305C150.787 3.85736 150.757 3.77081 150.321 3.93174C150.026 4.04061 149.786 4.34152 149.786 4.6005C149.786 4.85948 149.565 5.07147 149.296 5.07147C149.027 5.07147 148.717 5.29732 148.607 5.57321C148.313 6.31027 144.077 6.11451 143.112 5.3193C142.369 4.70768 141.524 4.51463 141.857 5.03293C141.963 5.19758 141.652 5.40518 141.166 5.49477C140.681 5.58403 140.198 5.52283 140.093 5.35886C139.987 5.19454 139.754 5.14788 139.574 5.25506C139.394 5.3619 139.247 5.28819 139.247 5.09142C139.247 4.89465 138.921 4.73337 138.524 4.73337C138.126 4.73337 137.898 4.88552 138.018 5.07147C138.151 5.2794 137.652 5.38996 136.721 5.35886C135.711 5.32505 135.522 5.26182 136.154 5.16918C136.829 5.07012 137.042 4.88214 136.896 4.5153C136.783 4.23231 136.594 4.1275 136.476 4.28235C136.143 4.71884 134.746 5.40957 134.195 5.40957C133.923 5.40957 132.972 4.74791 132.083 3.93884C130.975 2.93199 130.465 2.64258 130.465 3.02091C130.465 3.32452 130.942 3.84452 131.525 4.17585C132.718 4.85441 132.618 5.40957 131.302 5.40957C130.74 5.40957 130.512 5.2723 130.668 5.02887C130.843 4.75603 130.735 4.74352 130.288 4.98458C129.497 5.41059 128.357 5.13909 128.357 4.52477C128.357 4.26781 128.199 4.05718 128.006 4.05718C127.813 4.05718 127.655 4.26004 127.655 4.50786C127.655 5.21516 123.517 5.13436 123.319 4.42334C123.196 3.98212 123.162 3.99193 123.129 4.4798C123.082 5.16141 122.368 5.2581 121.753 4.66575C121.433 4.35809 121.332 4.3564 121.332 4.65865C121.332 5.10089 115.162 5.08162 114.423 4.63735C114.199 4.50178 113.934 4.58224 113.836 4.81587C113.699 5.14011 113.573 5.12455 113.302 4.7496C113.107 4.47946 113.024 4.139 113.118 3.9926C113.212 3.84654 113.043 3.81747 112.743 3.92802C112.443 4.03892 112.198 4.30872 112.198 4.52815C112.198 4.96396 111.527 5.06336 108.861 5.02279C107.895 5.00791 105.84 5.03056 104.294 5.07283C99.3705 5.20773 99.0667 5.19184 98.9283 4.79288C98.8345 4.52139 98.6321 4.55587 98.2689 4.90547C97.6078 5.54177 95.4326 5.55495 93.8831 4.93184C92.8598 4.52037 92.6013 4.52037 92.0167 4.93184C91.187 5.51607 90.4626 5.56983 91.0507 5.00385C91.6243 4.45174 91.5804 4.05718 90.9453 4.05718C90.6555 4.05718 90.4184 4.28539 90.4184 4.56433C90.4184 4.84326 90.1416 5.08398 89.8036 5.09886C89.4657 5.11407 88.7146 5.16242 88.135 5.20637C87.5554 5.25033 86.9649 5.12388 86.823 4.92542C86.6505 4.68401 86.5634 4.7043 86.5595 4.98695C86.5567 5.21956 86.1987 5.4072 85.7639 5.4045C85.2141 5.40078 85.1122 5.31457 85.4291 5.12084C85.7955 4.89735 85.7832 4.76144 85.3658 4.42807C84.9429 4.09031 84.7764 4.14035 84.4655 4.69889C84.2375 5.109 83.8732 5.30645 83.5585 5.19015C83.269 5.08331 82.8369 5.15025 82.5977 5.33891C81.8902 5.89711 80.732 5.94985 80.1096 5.45251C79.7319 5.15126 79.5285 5.12151 79.5285 5.36832C79.5285 5.771 78.3935 5.89474 78.0173 5.53298C77.5118 5.04645 74.9927 5.07823 74.704 5.5749C74.3984 6.10064 72.8938 6.24603 70.6459 5.96709C69.9146 5.87615 68.8474 5.93126 68.2747 6.08915C67.7021 6.24738 67.2335 6.25414 67.2335 6.10436C67.2335 5.95459 66.8383 5.83219 66.3553 5.83219C65.8723 5.83219 65.4771 6.02356 65.4771 6.25752C65.4771 6.76568 64.1542 7.16802 63.9947 6.70821C63.9339 6.53206 63.2939 6.25989 62.5727 6.10335C61.3962 5.84808 61.2617 5.88866 61.2617 6.49723C61.2617 7.09736 61.1106 7.14807 59.9444 6.93845C59.2197 6.80828 58.7496 6.82046 58.8993 6.9655C59.2931 7.34755 56.9553 8.04944 56.4628 7.69714C56.2243 7.5264 55.9604 7.55244 55.8273 7.75969C55.7022 7.95477 55.0032 8.11436 54.2739 8.11436C53.5446 8.11436 52.834 8.2239 52.6949 8.35779C52.3015 8.73646 48.8438 8.74423 48.3519 8.36793C48.0365 8.12619 47.9128 8.19077 47.9128 8.59682C47.9128 9.04886 47.5788 9.15773 46.2442 9.13981C45.3267 9.1273 44.0445 9.21554 43.3949 9.33591C42.6316 9.47723 42.1222 9.41063 41.9533 9.14758C41.7527 8.83552 41.5774 8.846 41.2015 9.19221C40.4895 9.84846 38.889 10.4736 38.6097 10.2048C38.1731 9.78422 36.6952 9.93434 36.502 10.4192C36.3524 10.7941 36.2045 10.8093 35.8047 10.4902C35.2982 10.0855 34.4133 10.3113 34.708 10.7698C34.8447 10.9824 33.853 11.0294 32.5441 10.8719C32.3024 10.8428 32.0923 10.5527 32.0772 10.2275C32.0551 9.75447 32.0084 9.73757 31.8447 10.1429C31.7319 10.4219 31.4042 10.8171 31.1161 11.0213C30.8281 11.2255 30.696 11.5538 30.8224 11.7506C30.9647 11.9721 30.7971 12.0444 30.3823 11.9399C30.0138 11.8473 29.1377 12.0339 28.4355 12.3544C27.7329 12.6753 26.3745 12.938 25.4162 12.938C24.4582 12.938 23.6741 13.0699 23.6741 13.2308C23.6741 13.3921 23.437 13.5239 23.1472 13.5239C22.8574 13.5239 22.6203 13.3556 22.6203 13.1497C22.6203 12.9438 22.3832 12.8629 22.0934 12.9701C21.8035 13.077 21.5664 13.0171 21.5664 12.8373C21.5664 12.2993 20.6049 12.4667 20.3745 13.0445C20.0594 13.835 20.0822 13.862 21.0644 13.862C21.923 13.862 21.9377 13.8911 21.3563 14.4507C20.9204 14.8699 20.7033 14.9196 20.6004 14.6231C20.5024 14.3401 20.0865 14.4784 19.301 15.0552C18.5703 15.5917 17.9218 15.8206 17.5372 15.6786C17.1771 15.5458 16.8047 15.6465 16.6245 15.9258C16.4573 16.1854 16.0386 16.3981 15.694 16.3981C15.3494 16.3984 15.048 16.5888 15.0237 16.8207C14.9995 17.053 14.9601 17.3708 14.9359 17.5267C14.8133 18.3195 11.7304 18.9497 11.7304 18.1819C11.7304 17.9547 11.4842 18.1072 11.1831 18.5207C10.8821 18.9345 10.7222 19.4075 10.828 19.5718C11.0841 19.9708 10.3731 20.4793 9.17377 20.7552C8.59239 20.8891 7.81113 21.5179 7.2417 22.3104C6.71582 23.0424 6.09088 23.6469 5.85307 23.654C5.61525 23.6611 5.31281 24.08 5.18108 24.5855C5.04933 25.0906 4.65025 25.8047 4.2944 26.1725C3.85495 26.6266 3.72955 27.0644 3.90448 27.5364C4.0464 27.9185 4.12756 28.8306 4.0854 29.563C4.04289 30.2956 4.24417 31.2409 4.53223 31.6642C4.82028 32.0875 5.056 32.667 5.056 32.9527C5.056 33.2381 5.21445 33.4335 5.408 33.3872C5.60156 33.3405 5.95985 33.683 6.20435 34.1479C6.4492 34.6128 7.00214 35.1433 7.4335 35.3269C7.86453 35.5105 8.21758 35.9212 8.21758 36.2397C8.21758 36.5586 8.44099 36.9406 8.71394 37.0894C8.98724 37.2381 9.26372 37.8163 9.3287 38.3741C9.41476 39.1129 9.63922 39.3979 10.1546 39.4229C11.083 39.4682 12.7432 40.3179 13.8301 41.3038C14.3085 41.7379 14.7413 42.0594 14.7922 42.0178C15.0522 41.8062 18.3156 43.2177 19.0143 43.8442C19.2588 44.0633 19.4587 44.4234 19.4587 44.6442C19.4587 44.8741 19.7478 44.9731 20.1342 44.8758C20.5055 44.7825 21.2998 44.9928 21.8991 45.3437C22.4984 45.6943 23.2164 45.9814 23.4946 45.9814C23.7732 45.9814 24.5857 46.4757 25.3006 47.0795C26.0151 47.6837 26.8902 48.1303 27.2449 48.0725C27.6988 47.9984 27.8896 48.1756 27.8896 48.6713C27.8896 49.265 28.0364 49.3397 28.8254 49.149C29.6003 48.962 29.7233 49.0192 29.5392 49.4807C29.3906 49.8536 29.5002 50.0385 29.8701 50.0385C30.2179 50.0385 30.3486 49.8499 30.2214 49.5314C30.084 49.1865 30.2404 49.0242 30.7107 49.0242C31.0912 49.0242 31.4024 49.151 31.4024 49.3059C31.4024 49.4611 31.5998 49.6135 31.8415 49.6453C35.7025 50.1521 37.6483 50.8675 37.7926 51.8338C37.8903 52.4901 37.9521 52.51 38.413 52.0326C38.9354 51.492 38.9529 51.4937 42.0004 52.3887C42.7092 52.5969 43.8815 52.8404 44.6055 52.9293C45.3291 53.0185 46.1034 53.2369 46.3257 53.4144C46.5477 53.5919 47.6676 53.8371 48.8142 53.9591C49.9707 54.0822 51.6375 54.5599 52.5579 55.0326C53.8907 55.7162 54.3185 55.8031 54.7313 55.4735C55.1068 55.1736 55.4339 55.1604 55.9467 55.4248C56.3328 55.6236 57.1882 55.7862 57.8475 55.7862C58.5066 55.7862 59.5362 56.0215 60.1355 56.3092C60.8061 56.6314 62.6001 56.8962 64.8041 56.9983C66.773 57.0896 68.6566 57.3049 68.9903 57.477C69.3241 57.6488 70.6856 57.8141 72.0159 57.8445C73.3463 57.875 75.0711 58.1032 75.8485 58.352C76.6259 58.6005 78.2857 58.8315 79.537 58.8653C81.1297 58.9085 82.0592 59.1121 82.6371 59.5448C83.354 60.0814 83.5286 60.099 83.9663 59.6777C84.3331 59.3247 84.703 59.2777 85.3251 59.5053C85.7951 59.6774 86.7777 59.8062 87.5087 59.7917C88.2397 59.7771 88.9957 59.7981 89.1889 59.8383C89.3821 59.8789 90.0379 59.886 90.6464 59.8545C91.2548 59.8231 91.8569 59.96 91.9844 60.1585C92.1119 60.357 92.5827 60.5196 93.0309 60.5196C93.4788 60.5196 94.0384 60.7434 94.2744 61.0173C94.6282 61.4277 94.7842 61.4372 95.1639 61.072C95.7344 60.5226 99.7591 60.6596 100.502 61.2536C100.901 61.5717 101.073 61.5626 101.299 61.2103C101.514 60.8746 102.573 60.7759 105.491 60.8191C109.758 60.8824 111.139 61.1988 111.155 62.1171C111.165 62.6729 111.194 62.6706 111.547 62.085C111.856 61.5734 111.988 61.5413 112.239 61.9159C112.483 62.2794 112.592 62.2307 112.747 61.6887C112.881 61.2201 113.276 60.974 113.976 60.9226C114.544 60.881 115.008 60.9814 115.008 61.1461C115.008 61.3107 115.483 61.3919 116.062 61.327C116.642 61.262 117.116 61.3469 117.116 61.5156C117.116 61.9541 118.192 62.1211 119.253 61.8476C119.935 61.6715 120.263 61.7712 120.573 62.25C120.8 62.5999 121.254 62.8863 121.58 62.8863C122.043 62.8863 122.081 62.796 121.753 62.4805C120.859 61.6204 121.346 61.3652 123.796 61.4078C125.152 61.4311 126.344 61.3229 126.444 61.1667C126.711 60.7508 128.299 61.5369 128.476 62.1725C128.597 62.6114 128.635 62.5965 128.668 62.0958C128.704 61.541 129 61.4838 131.431 61.5653C132.928 61.6154 134.504 61.7753 134.932 61.9203C135.39 62.0758 135.801 62.041 135.933 61.8361C136.056 61.6444 136.398 61.5768 136.693 61.6857C136.987 61.7945 137.406 61.7509 137.623 61.5886C138.762 60.7366 140.269 61.0369 140.743 62.2101C140.906 62.6131 140.954 62.5945 140.976 62.1201C140.995 61.6972 141.285 61.5271 141.97 61.5373C142.501 61.5447 143.326 61.5092 143.803 61.4578C144.759 61.3554 145.285 62.4292 144.506 62.8924C144.269 63.0333 144.184 63.318 144.316 63.5246C144.665 64.0672 145.219 63.9868 145.219 63.3934C145.219 63.1145 145.383 62.8863 145.582 62.8863C145.823 62.8863 145.813 62.6459 145.551 62.1752C145.17 61.4903 145.221 61.469 146.944 61.5836C148.286 61.6732 148.732 61.587 148.732 61.2391C148.732 60.8648 148.834 60.8563 149.259 61.1958C149.578 61.451 149.786 61.4781 149.786 61.2644C149.786 61.0582 150.696 60.9104 151.981 60.9081C153.189 60.9057 155.942 60.8529 158.098 60.7911C160.255 60.7295 161.946 60.7934 161.856 60.9334C161.639 61.2722 162.754 60.8658 163.784 60.2305C164.382 59.862 164.768 59.818 165.189 60.0706C165.512 60.265 166.08 60.3022 166.472 60.1551C167.507 59.766 170.14 59.7947 171.702 60.2122C172.731 60.4871 173.132 60.4773 173.328 60.1724C173.476 59.9418 174.477 59.747 175.65 59.7206C177.359 59.6824 177.848 59.8045 178.503 60.4351C179.486 61.3814 180.163 61.4446 179.573 60.5348C179.076 59.7683 179.458 59.1905 180.072 59.7815C180.678 60.3641 181.214 60.2721 180.699 59.6743C180.458 59.3954 180.32 59.1594 180.392 59.1499C180.464 59.1408 181.523 59.0485 182.744 58.9451C184.735 58.7763 185.058 58.8389 185.867 59.5536L186.77 60.3505L186.538 59.4208C186.285 58.4078 186.262 58.4197 188.69 58.3206C189.512 58.2868 190.183 58.3983 190.183 58.5684C190.183 58.7385 190.432 58.6384 190.735 58.3459C191.039 58.0538 191.566 57.8148 191.907 57.8148C192.247 57.8148 192.626 57.7174 192.75 57.5987C192.873 57.4797 193.572 57.3438 194.301 57.2968C197.671 57.0784 199.822 56.7603 200.253 56.4164C200.6 56.1385 200.868 56.1584 201.287 56.4928C201.765 56.8749 201.921 56.8526 202.305 56.3471C202.646 55.8988 202.805 55.8599 202.943 56.1909C203.088 56.5364 203.194 56.5415 203.434 56.2149C203.603 55.986 204.109 55.8667 204.558 55.9498C205.007 56.0334 206.258 55.8024 207.339 55.4369C208.419 55.0711 209.586 54.8585 209.931 54.9639C210.315 55.0813 210.56 54.9832 210.563 54.71C210.567 54.3821 210.661 54.3983 210.917 54.7719C211.216 55.206 211.354 55.1715 211.878 54.5335C212.215 54.1238 213.399 53.456 214.51 53.0496C215.621 52.6436 216.53 52.2108 216.53 52.0881C216.53 51.9654 217.083 51.9268 217.759 52.0029C218.89 52.13 218.989 52.0692 218.989 51.2503C218.989 50.5264 219.191 50.3208 220.069 50.1518C220.832 50.0051 221.418 49.5351 222.061 48.5543C222.562 47.7898 222.935 47.113 222.89 47.0494C222.844 46.9858 223.035 46.7576 223.315 46.5423C223.595 46.3269 223.922 45.2774 224.044 44.2107C224.237 42.5047 224.178 42.22 223.558 41.8471C223.17 41.6141 222.853 41.0796 222.853 40.6594C222.853 40.2394 222.702 39.8956 222.518 39.8956C222.334 39.8956 221.921 39.3631 221.6 38.7122C221.279 38.0614 220.797 37.5289 220.53 37.5289C220.262 37.5289 220.043 37.3372 220.043 37.1032C220.043 36.8689 219.727 36.4872 219.34 36.2549C218.954 36.0227 218.638 35.5473 218.638 35.1987C218.638 34.837 218.318 34.4843 217.891 34.3771C217.291 34.226 217.19 34.0201 217.371 33.3233C217.592 32.4781 217.14 32.1197 216.706 32.7955C216.586 32.9815 216.357 33.1336 216.195 33.1336C215.759 33.1336 215.436 32.1163 215.73 31.6663C215.87 31.4506 215.94 31.008 215.884 30.6824C215.829 30.3572 215.96 30.0907 216.177 30.0907C216.394 30.0907 216.476 30.2385 216.361 30.419C216.245 30.5996 216.546 30.8427 217.03 30.9597C217.514 31.0766 218.005 31.4614 218.122 31.8147C218.238 32.1684 218.481 32.4574 218.661 32.4574C218.841 32.4574 218.989 32.6427 218.989 32.8692C218.989 33.0958 219.409 33.6289 219.923 34.0539C220.437 34.4786 221.031 35.1683 221.242 35.5859C221.453 36.0037 222.136 36.5738 222.759 36.8527C223.383 37.132 223.895 37.6209 223.899 37.941C223.904 38.3173 224.093 38.4533 224.434 38.3275C225.045 38.1016 225.098 38.4901 224.621 39.6985C224.339 40.4109 224.401 40.6218 224.982 40.9207C225.367 41.1195 225.586 41.4329 225.467 41.6179C225.349 41.8025 225.453 42.1876 225.7 42.4736C226.033 42.8604 226.049 43.1454 225.762 43.588C225.526 43.9518 225.498 44.3673 225.69 44.6591C226.117 45.3085 226.098 46.9957 225.663 46.9957C225.47 46.9957 225.299 47.4142 225.284 47.9254C225.269 48.4366 225.177 48.6652 225.079 48.4326C224.849 47.8845 224.325 47.8845 224.375 48.4326C224.44 49.146 223.102 51.3909 222.612 51.3909C222.358 51.3909 222.15 51.6049 222.15 51.8663C222.15 52.1648 221.905 52.2801 221.492 52.1763C221.042 52.0631 220.592 52.3393 220.063 53.0534C219.639 53.6268 218.987 54.0957 218.614 54.0957C218.24 54.0957 217.935 54.3239 217.935 54.6029C217.935 54.8818 217.698 55.11 217.408 55.11C217.118 55.11 216.881 55.275 216.881 55.4762C216.881 55.6777 216.683 55.7727 216.442 55.6875C216.2 55.6023 216.041 55.367 216.087 55.1644C216.133 54.9619 215.935 54.8831 215.647 54.9893C215.36 55.0955 215.125 55.3771 215.125 55.6148C215.125 56.0367 213.118 57.1386 212.349 57.1386C212.137 57.1386 211.963 57.2677 211.963 57.4253C211.963 57.5829 211.473 57.7252 210.874 57.7418C210.275 57.758 209.503 58.017 209.159 58.3169C208.739 58.6827 208.231 58.7889 207.614 58.6398C207.074 58.5096 206.694 58.5596 206.694 58.7608C206.694 58.9495 206.378 59.0242 205.991 58.9271C205.198 58.7273 205.07 58.2942 205.728 58.0386C205.969 57.945 205.811 57.856 205.377 57.8415C204.92 57.8259 204.586 58.0146 204.586 58.2888C204.586 58.8534 202.63 59.6584 201.512 59.5536C201.078 59.5131 200.722 59.6213 200.722 59.7944C200.722 60.3174 199.612 60.5574 199.097 60.146C198.723 59.8474 198.614 59.8782 198.614 60.2822C198.614 60.6765 198.078 60.8502 196.419 60.9936C195.211 61.0981 193.773 61.167 193.222 61.1474C192.32 61.115 192.24 61.0179 192.417 60.1696C192.554 59.5073 192.452 59.1692 192.072 59.0286C191.251 58.7256 191.143 58.7804 191.381 59.3771C191.549 59.7984 191.435 59.8836 190.891 59.7467C189.989 59.5198 189.982 59.8924 190.877 60.5128C191.515 60.9557 191.525 61.0409 191.008 61.591C190.612 62.0123 190.273 62.0988 189.857 61.8848C189.523 61.7124 189.055 61.7077 188.776 61.8733C188.506 62.0339 188.172 62.0985 188.034 62.0163C187.896 61.9342 187.336 62.0326 186.788 62.2351C186.24 62.4376 185.002 62.6712 184.036 62.7547C183.07 62.8379 181.983 62.9941 181.621 63.1016C181.192 63.2288 181.046 63.1662 181.202 62.9224C181.563 62.3612 180.851 62.4718 180.347 63.0553C179.73 63.7717 179.294 63.6845 179.294 62.845C179.294 62.32 179.176 62.2162 178.854 62.4576C178.613 62.6395 177.901 62.9546 177.274 63.1578C176.202 63.5046 176.132 63.4786 176.132 62.7392C176.132 62.2354 175.879 61.8872 175.431 61.7743C174.879 61.6353 174.794 61.7087 175.032 62.1184C175.562 63.0303 174.288 63.863 172.376 63.8549C171.447 63.8509 170.014 63.9959 169.192 64.1768C168.319 64.3688 167.616 64.38 167.503 64.2032C167.396 64.0368 167.476 63.9006 167.68 63.9006C167.885 63.9006 168.052 63.7819 168.052 63.6365C168.052 63.219 166.063 62.607 165.6 62.8822C165.326 63.0452 165.465 63.2068 166.003 63.3525L166.823 63.5743L166.023 64.2214C165.008 65.043 160.05 65.1637 159.735 64.3746C159.484 63.7447 158.919 63.7677 158.919 64.4077C158.919 64.7194 158.59 64.9149 158.064 64.9149C157.345 64.9149 157.214 64.7563 157.239 63.9175C157.261 63.1885 157.459 62.8927 157.976 62.8186C158.593 62.7301 158.616 62.6635 158.153 62.2966C157.704 61.9406 157.492 62.1188 156.778 63.457L155.933 65.0379L155.734 64.0466C155.624 63.5013 155.657 62.7203 155.807 62.3108C156.017 61.734 155.963 61.6089 155.567 61.7553C155.285 61.8591 155.052 62.1181 155.05 62.3308C155.046 62.562 154.921 62.5299 154.737 62.2513C154.306 61.5957 153.577 62.1316 153.835 62.9147C153.952 63.271 153.89 63.5625 153.697 63.5625C153.504 63.5625 153.245 63.8667 153.123 64.2387C153 64.6106 152.674 64.9149 152.397 64.9149C152.12 64.9149 151.893 65.067 151.893 65.253C151.893 65.7036 150.621 65.6833 149.718 65.2181C149.162 64.9318 148.924 64.9514 148.692 65.3027C148.458 65.658 148.39 65.6282 148.386 65.1684C148.379 64.4632 147.428 64.3918 146.652 65.0383C146.347 65.2918 145.504 65.5867 144.78 65.6932C143.752 65.8439 143.462 65.7746 143.462 65.378C143.462 64.8679 142.609 64.9581 141.373 65.5982C141.094 65.7432 140.506 65.7307 140.068 65.5701C139.59 65.3953 139.188 65.4088 139.063 65.6039C138.757 66.081 136.52 66.0008 136.348 65.5065C136.241 65.2016 136.062 65.1833 135.704 65.4409C135.431 65.6377 134.299 65.8365 133.189 65.8832C131.404 65.9579 131.073 65.8656 130.318 65.0822L129.466 64.1967L129.351 64.9784C129.242 65.7128 129.097 65.7557 126.952 65.6867C125.696 65.6465 124.511 65.5978 124.317 65.5782C124.124 65.5589 121.808 65.6482 119.17 65.776C114.67 65.9944 114.363 65.9701 114.205 65.3774C114.056 64.8198 114.031 64.8151 113.995 65.3375C113.959 65.8652 113.567 66.0789 112.828 65.9741C112.293 65.898 102.131 65.5187 101.22 65.5407C100.689 65.5535 100.254 65.4217 100.254 65.2475C100.254 65.0562 99.9312 65.0498 99.4348 65.2317C98.9838 65.3966 98.4052 65.4068 98.1488 65.2543C97.8902 65.1005 97.4195 65.135 97.0925 65.3317C96.7254 65.5522 95.9827 65.5829 95.1288 65.4129C94.3735 65.2624 93.6119 65.1728 93.4366 65.2137C93.261 65.255 93.0045 65.1126 92.8665 64.8979C92.6771 64.6028 92.4302 64.6024 91.8611 64.8956C91.4459 65.1093 90.9625 65.1985 90.7869 65.094C90.6109 64.9896 89.4773 64.8297 88.2671 64.7394C87.0573 64.6488 85.9651 64.4155 85.8401 64.2207C85.715 64.026 85.3111 63.8722 84.9418 63.8793C84.0176 63.8965 82.9824 63.8948 82.251 63.8752C81.9131 63.8661 81.6362 63.6399 81.6362 63.3725C81.6362 63.105 81.3991 62.8863 81.1093 62.8863C80.8195 62.8863 80.5824 63.0384 80.5824 63.2244C80.5824 63.4103 80.3551 63.5625 80.0776 63.5625C79.7182 63.5625 79.5781 63.1672 79.5921 62.1938C79.603 61.4409 79.5141 60.7309 79.3947 60.6159C79.2749 60.501 79.1772 60.8053 79.1772 61.2925C79.1772 62.2817 78.5059 63.9006 78.0956 63.9006C77.4377 63.9006 76.7182 63.4506 76.7182 63.0391C76.7182 62.2777 75.9349 62.0728 75.4522 62.7081C74.9109 63.4205 73.7302 63.1439 74.0362 62.3764C74.1535 62.0816 74.0386 61.872 73.759 61.872C73.4959 61.872 73.1896 62.1002 73.0782 62.3791C72.9672 62.658 72.5155 62.8687 72.0746 62.847C71.4799 62.818 71.4317 62.7679 71.8881 62.6533C72.6019 62.4738 72.7213 61.872 72.043 61.872C71.7901 61.872 71.2768 62.0877 70.9024 62.3511C70.4218 62.6895 70.0919 62.727 69.7814 62.4789C69.4716 62.2314 69.3412 62.2442 69.3412 62.5221C69.3412 62.7842 68.9577 62.8477 68.1996 62.7115C66.9803 62.492 66.5668 62.4244 63.0181 61.8645C61.7623 61.6661 60.4186 61.3641 60.0322 61.1927C59.6458 61.0217 58.9344 60.8976 58.4514 60.9172C57.1959 60.9686 54.8219 60.5175 54.4292 60.1531C54.2458 59.9827 53.7958 59.8434 53.4294 59.8434C53.0634 59.8434 52.3439 59.5594 51.8311 59.2118C51.196 58.7818 50.6747 58.6665 50.1962 58.85C49.0851 59.2764 48.62 59.2111 48.8395 58.66C48.9678 58.3388 48.835 58.1529 48.4774 58.1529C48.1668 58.1529 47.9128 58.305 47.9128 58.491C47.9128 58.6769 47.6757 58.8291 47.3859 58.8291C46.7634 58.8291 46.7575 58.7919 47.2015 57.6677C47.4242 57.1041 47.4242 56.8005 47.2015 56.8005C47.0132 56.8005 46.859 57.0287 46.859 57.3076C46.859 57.5866 46.5562 57.8148 46.1856 57.8148C45.8153 57.8148 45.4598 57.9622 45.3952 58.1424C45.3267 58.3344 44.6083 58.2381 43.6616 57.9098C42.4384 57.4855 41.947 57.099 41.6424 56.3224L41.2398 55.296L40.7048 56.0307C40.1958 56.7302 40.1009 56.742 38.7348 56.2781C37.9454 56.01 37.1811 55.8613 37.0363 55.9475C36.8916 56.0334 36.8442 55.746 36.9313 55.3085C37.0862 54.5271 36.3032 53.6386 36.065 54.326C35.9983 54.5187 35.7387 54.946 35.4879 55.276C35.0856 55.8055 34.8707 55.8274 33.6566 55.4633C32.8996 55.2365 31.6104 54.7601 30.7915 54.4044C29.9723 54.0487 29.0604 53.7576 28.7646 53.7576C28.4688 53.7576 27.6008 53.3773 26.8357 52.9124C26.0706 52.4475 25.2156 52.0671 24.9356 52.0671C24.656 52.0671 24.2179 51.8768 23.9625 51.6445C23.7075 51.4122 22.9677 51.181 22.3192 51.1313C21.6704 51.0812 20.8055 50.8151 20.3966 50.5396C19.9881 50.264 19.3726 50.0385 19.0291 50.0385C18.6859 50.0385 18.4048 49.8103 18.4048 49.5314C18.4048 49.247 18.0915 49.0242 17.6914 49.0242C17.2987 49.0242 16.8866 48.796 16.7756 48.5171C16.6642 48.2382 16.191 48.0099 15.7238 48.0099C15.1411 48.0099 14.7697 47.7445 14.5407 47.1647C14.214 46.3377 13.4869 45.9878 13.4869 46.6576C13.4869 47.1576 12.8092 47.068 12.2071 46.4885C11.9173 46.2096 11.4129 45.9814 11.0862 45.9814C10.7591 45.9814 10.3358 45.6514 10.1451 45.2484C9.95433 44.845 9.48326 44.3507 9.09825 44.1495C8.71324 43.9484 8.04895 43.4416 7.62215 43.023C7.19533 42.6048 6.72003 42.2558 6.56583 42.2481C6.41161 42.24 5.8903 41.7558 5.40729 41.1716C4.92427 40.5873 4.09314 39.7106 3.56023 39.2238C2.2682 38.0421 0.214233 34.0735 1.1982 34.6588C1.90884 35.0817 1.65942 33.4836 0.753098 31.8086C0.207901 30.8007 -0.114212 29.8879 0.0375366 29.78C0.189651 29.6718 0.314011 28.5311 0.314362 27.245C0.315063 25.6772 0.459793 24.8597 0.753464 24.7654C0.994797 24.6879 1.19186 24.4256 1.19186 24.1821C1.19186 23.9384 1.41423 23.6571 1.68578 23.557C1.95732 23.4566 2.2854 22.9095 2.41539 22.3412C2.54501 21.7728 2.79691 21.2211 2.97536 21.1149C3.15381 21.0091 3.30521 20.5888 3.31223 20.1814C3.31926 19.774 3.67476 19.0542 4.10262 18.5819C5.16737 17.4056 7.515 15.7753 7.515 16.2115C7.515 16.4069 7.75212 16.5668 8.04193 16.5668C8.33174 16.5668 8.56886 16.439 8.56886 16.2831C8.56886 16.1269 8.96405 15.8257 9.44707 15.6141C9.93008 15.4021 10.3292 14.9595 10.3341 14.6298C10.3429 14.0179 12.3392 12.8477 13.3748 12.8477C13.6836 12.8477 14.1613 12.5813 14.4364 12.2561C14.7799 11.8493 14.9911 11.7898 15.1116 12.066C15.2306 12.3379 15.5166 12.2466 15.9982 11.7831C16.4921 11.3077 16.9684 11.1613 17.5572 11.3033C18.0325 11.4183 18.4048 11.3587 18.4048 11.1681C18.4048 10.6163 20.9243 9.2524 22.4446 8.9809C23.2175 8.84296 24.0117 8.60122 24.2099 8.444C24.9374 7.86585 28.6069 6.86914 31.1716 6.55336C31.9747 6.45463 33.1455 6.24501 33.7736 6.0878C34.5468 5.8944 34.9153 5.92145 34.9153 6.17198C34.9153 6.37518 35.2711 6.2254 35.7057 5.83862C36.2017 5.3974 37.1501 5.0735 38.2525 4.96835C39.2185 4.87605 40.7993 4.63025 41.7653 4.42165C42.7314 4.21338 44.4372 3.98347 45.5564 3.91044C46.6756 3.83775 47.7822 3.63185 48.0154 3.453C48.2487 3.27414 49.5463 3.11388 50.8988 3.09664C53.3219 3.06587 53.898 2.99656 54.9386 2.61215C55.8842 2.26289 59.154 2.12021 59.154 2.42822C59.154 2.59355 59.4459 2.57834 59.8028 2.39441C60.2489 2.16451 60.5777 2.18175 60.8567 2.4502C61.1626 2.74468 61.2617 2.72473 61.2617 2.36973C61.2617 2.02724 61.3818 2.05767 61.704 2.4813C62.2028 3.13789 63.6167 3.07534 64.0653 2.37717C64.2574 2.07795 64.718 2.00087 65.4588 2.14354C66.2117 2.28825 66.4906 2.23922 66.3304 1.98971C66.1828 1.7598 66.3954 1.77772 66.8998 2.03772C67.5662 2.38089 67.7735 2.36195 68.103 1.92851C68.4599 1.45856 68.5421 1.46295 68.9004 1.9701C69.2706 2.49449 69.3016 2.49246 69.3205 1.94406C69.3321 1.61881 69.381 1.33853 69.4291 1.32163C69.4772 1.30506 71.0878 1.22392 73.0076 1.14176C74.9277 1.05926 76.6919 0.837469 76.9283 0.648811C77.2227 0.413494 77.4363 0.42668 77.6052 0.690059C77.7665 0.940927 78.2969 0.989614 79.1298 0.829693C81.305 0.411804 82.6901 0.445952 82.6901 0.917599C82.6901 1.15663 82.8482 1.35239 83.0414 1.35239C83.2346 1.35239 83.353 1.18132 83.3049 0.972032C83.2564 0.76275 83.6122 0.550424 84.0952 0.500047C84.5783 0.449671 85.329 0.298879 85.7639 0.164654C86.3621 -0.0196099 86.5542 0.0540955 86.5542 0.46759C86.5542 0.768497 86.3698 1.01429 86.1443 1.01429C85.9191 1.01429 85.8527 1.12823 85.9975 1.26719C86.1422 1.40649 86.4594 1.25874 86.7021 0.938899C87.3025 0.148425 88.9395 0.0929771 90.371 0.814479C91.3019 1.28342 91.6377 1.32163 91.9517 0.993332C92.2528 0.679239 92.243 0.635625 91.9113 0.815493C91.6419 0.96189 91.4722 0.850655 91.4722 0.527095C91.4722 0.237345 91.6742 0 91.9208 0C92.4671 0 93.9453 0.920979 94.546 1.63538C94.9278 2.08978 94.9851 2.05834 94.9851 1.39432C94.9851 0.784388 95.1267 0.67383 95.6877 0.845245C96.1882 0.998066 96.3902 0.906103 96.3902 0.524728C96.3902 0.132873 96.6965 0.00642373 97.5319 0.0530813C98.16 0.0885816 98.9293 0.237683 99.2423 0.384756C99.555 0.531829 99.9066 0.560229 100.024 0.447642C100.141 0.334717 101.687 0.19914 103.459 0.146058C105.896 0.073367 106.882 0.176149 107.504 0.568681C108.194 1.00415 108.357 1.01193 108.514 0.617367C108.711 0.123406 110.002 0.0368524 110.729 0.468942C110.964 0.608576 111.081 0.839836 110.989 0.982513C110.897 1.12519 111.038 1.53902 111.302 1.90146C111.712 2.46406 112.88 2.67165 113.955 2.37277C114.251 2.29028 112.394 1.58027 112.067 1.65161C111.898 1.68812 111.859 1.4714 111.979 1.16948C112.1 0.867898 112.198 0.4801 112.198 0.308346C112.198 0.126787 113.34 0.0787769 114.921 0.19373C118.132 0.427018 118.074 0.427694 119.312 0.143354C120.051 -0.0267098 120.278 0.0449669 120.278 0.447642C120.278 0.914217 120.388 0.918951 121.244 0.489228C122.566 -0.174797 125.195 -0.131858 126.237 0.57071C126.838 0.975413 127.124 1.02444 127.223 0.739759C127.427 0.150454 129.249 0.250193 129.792 0.88007C130.217 1.37302 130.31 1.36254 130.813 0.763764C131.284 0.204212 131.436 0.176149 131.825 0.577134ZM127.303 1.52144C127.303 1.80037 127.461 2.04752 127.655 2.07085C127.848 2.09418 128.17 2.13205 128.37 2.15538C128.57 2.1787 128.884 2.42585 129.067 2.70479C129.54 3.42392 129.522 2.52221 129.047 1.66818C128.619 0.897989 127.303 0.787431 127.303 1.52144ZM145.921 2.17769C145.921 2.25985 146.08 2.42078 146.273 2.53574C146.466 2.65069 146.624 2.58341 146.624 2.38663C146.624 2.18986 146.466 2.02859 146.273 2.02859C146.08 2.02859 145.921 2.09553 145.921 2.17769ZM156.269 4.03317C156.614 4.57109 157.171 4.13291 156.925 3.51656C156.79 3.17745 156.598 3.11253 156.374 3.32892C156.184 3.51115 156.137 3.82795 156.269 4.03317ZM70.3951 3.55003C70.3951 3.82896 70.6273 4.05718 70.9111 4.05718C71.2252 4.05718 71.3478 3.85905 71.2249 3.55003C71.1135 3.2711 70.8813 3.04288 70.7088 3.04288C70.5363 3.04288 70.3951 3.2711 70.3951 3.55003ZM66.7319 3.29646C66.9065 3.43609 67.1678 3.70218 67.3119 3.88813C67.4615 4.08118 67.5764 3.97232 67.5796 3.63456C67.5824 3.30559 67.3249 3.04288 66.9992 3.04288C66.6775 3.04288 66.557 3.15682 66.7319 3.29646ZM157.865 4.05718C157.865 4.24313 158.023 4.39528 158.216 4.39528C158.41 4.39528 158.568 4.24313 158.568 4.05718C158.568 3.87122 158.41 3.71908 158.216 3.71908C158.023 3.71908 157.865 3.87122 157.865 4.05718ZM146.719 3.92329C146.836 4.03554 147.139 4.04771 147.392 3.95C147.673 3.84215 147.589 3.76202 147.18 3.74579C146.81 3.73125 146.603 3.81104 146.719 3.92329ZM61.2617 4.42097C61.2617 4.58089 61.4988 4.62451 61.7886 4.51767C62.0784 4.41049 62.3156 4.19174 62.3156 4.03148C62.3156 3.87156 62.0784 3.82795 61.7886 3.93479C61.4988 4.04196 61.2617 4.26071 61.2617 4.42097ZM53.8847 4.05718C53.8847 4.24313 54.1615 4.39291 54.4995 4.39021C55.025 4.38581 55.0376 4.33712 54.5873 4.05718C53.9244 3.6447 53.8847 3.6447 53.8847 4.05718ZM164.364 4.73337C164.245 4.91933 164.314 5.07147 164.519 5.07147C164.723 5.07147 164.891 4.91933 164.891 4.73337C164.891 4.54742 164.821 4.39528 164.736 4.39528C164.651 4.39528 164.483 4.54742 164.364 4.73337ZM72.5028 4.73337C72.5028 4.91933 72.6704 5.07147 72.8748 5.07147C73.0793 5.07147 73.1492 4.91933 73.0298 4.73337C72.9103 4.54742 72.7431 4.39528 72.6577 4.39528C72.5724 4.39528 72.5028 4.54742 72.5028 4.73337ZM63.7365 5.56002C63.4172 5.93058 63.4031 6.08577 63.6887 6.08577C63.9118 6.08577 64.1851 5.85755 64.2961 5.57862C64.4075 5.29969 64.7187 5.07147 64.9878 5.07147C65.2569 5.07147 65.4771 4.91392 65.4771 4.72154C65.4771 4.2837 64.3825 4.8108 63.7365 5.56002ZM68.3826 4.93759C68.4992 5.04983 68.8024 5.06201 69.0557 4.9643C69.336 4.85644 69.2527 4.77631 68.8435 4.76008C68.4732 4.74555 68.266 4.82534 68.3826 4.93759ZM171.331 5.97318C171.789 6.41338 171.556 7.10006 170.951 7.09499C170.464 7.09093 170.437 7.02805 170.82 6.79442C171.086 6.63213 171.195 6.33021 171.063 6.12363C170.797 5.71014 170.962 5.61784 171.331 5.97318ZM55.385 6.96618C55.5017 7.07842 55.8048 7.09059 56.0581 6.99288C56.3384 6.88503 56.2552 6.8049 55.8459 6.78867C55.4757 6.77414 55.2684 6.85393 55.385 6.96618ZM54.236 7.43816C54.236 7.62411 54.3941 7.77626 54.5873 7.77626C54.7805 7.77626 54.9386 7.62411 54.9386 7.43816C54.9386 7.25221 54.7805 7.10006 54.5873 7.10006C54.3941 7.10006 54.236 7.25221 54.236 7.43816ZM50.3718 7.60721C50.3718 7.88614 50.5299 8.11436 50.7231 8.11436C50.9163 8.11436 51.0744 7.88614 51.0744 7.60721C51.0744 7.32828 50.9163 7.10006 50.7231 7.10006C50.5299 7.10006 50.3718 7.32828 50.3718 7.60721ZM40.5358 8.30335C40.5358 8.5931 40.6939 8.73646 40.8871 8.6215C41.0803 8.50655 41.2384 8.26954 41.2384 8.09441C41.2384 7.91927 41.0803 7.77626 40.8871 7.77626C40.6939 7.77626 40.5358 8.0136 40.5358 8.30335ZM27.5383 11.3263C27.5383 11.6052 27.7754 11.8334 28.0652 11.8334C28.355 11.8334 28.5921 11.6052 28.5921 11.3263C28.5921 11.0474 28.355 10.8191 28.0652 10.8191C27.7754 10.8191 27.5383 11.0474 27.5383 11.3263ZM15.362 14.2846C15.4593 14.5173 15.5391 14.3269 15.5391 13.862C15.5391 13.3971 15.4593 13.2071 15.362 13.4394C15.2644 13.672 15.2644 14.0524 15.362 14.2846ZM180.874 18.2573C180.994 18.4433 180.924 18.5954 180.719 18.5954C180.515 18.5954 180.347 18.4433 180.347 18.2573C180.347 18.0713 180.417 17.9192 180.502 17.9192C180.588 17.9192 180.755 18.0713 180.874 18.2573ZM185.561 19.6097C185.561 20.0746 185.481 20.2649 185.384 20.0323C185.287 19.8 185.287 19.4197 185.384 19.1871C185.481 18.9548 185.561 19.1448 185.561 19.6097ZM192.928 20.0201C193.476 20.5469 193.462 21.0595 192.906 20.8654C192.664 20.7812 192.2 20.9354 191.874 21.2082C191.548 21.4814 191.114 21.6045 190.908 21.4824C190.408 21.1846 190.433 20.624 190.946 20.624C191.172 20.624 191.617 20.3978 191.935 20.1216C192.38 19.7338 192.607 19.7108 192.928 20.0201ZM197.653 21.5024C197.769 21.6136 197.779 21.9169 197.675 22.1769C197.524 22.5559 197.798 22.6083 199.058 22.4419C200.058 22.3101 200.717 22.3723 200.872 22.6127C201.006 22.8206 200.947 22.9907 200.743 22.9907C200.538 22.9907 200.371 23.3521 200.371 23.7937C200.371 24.4249 200.183 24.5966 199.493 24.5966C198.874 24.5966 198.614 24.4127 198.614 23.9745C198.614 23.2899 197.636 22.6573 196.945 22.8957C196.652 22.9971 196.584 22.8514 196.742 22.4565C196.902 22.0535 196.847 21.9432 196.566 22.1099C196.34 22.2445 196.155 22.2097 196.155 22.0325C196.155 21.8553 196.405 21.6183 196.711 21.5054C197.393 21.2535 197.395 21.2535 197.653 21.5024ZM195.453 22.2269C195.453 22.8504 194.804 23.0569 194.138 22.6455C193.64 22.3371 193.631 22.2959 194.093 22.4315C194.407 22.5241 194.842 22.4291 195.059 22.2205C195.35 21.9402 195.453 21.9419 195.453 22.2269ZM203.005 23.3288C203.125 23.5147 203.055 23.6669 202.85 23.6669C202.646 23.6669 202.478 23.8826 202.478 24.146C202.478 24.8401 201.667 24.9966 201.204 24.3918C200.905 24.0013 200.92 23.7656 201.267 23.4326C201.812 22.9078 202.701 22.8548 203.005 23.3288ZM205.377 24.2379C205.715 24.3231 205.991 24.6673 205.991 25.0027C205.991 25.3381 206.258 25.8216 206.584 26.0768C207.1 26.4805 207.148 26.4677 206.957 25.9771C206.827 25.6414 206.942 25.3381 207.243 25.2269C207.52 25.1244 207.748 25.188 207.748 25.3678C207.748 25.5481 207.985 25.6955 208.275 25.6955C208.564 25.6955 208.802 25.8429 208.802 26.0231C208.802 26.2029 209.023 26.2689 209.293 26.1688C210.078 25.8791 210.176 26.4822 209.459 27.1915C208.879 27.7656 208.802 27.7758 208.802 27.2761C208.802 26.9647 208.564 26.7098 208.275 26.7098C207.985 26.7098 207.748 26.9485 207.748 27.2406C207.748 28.1284 206.232 27.6801 205.953 26.7098C205.8 26.1779 205.697 26.0839 205.675 26.4562C205.636 27.1168 205.105 27.2446 204.743 26.6803C204.613 26.4782 204.211 26.3872 203.85 26.4782C203.313 26.6131 203.254 26.5339 203.526 26.0447C203.709 25.7157 203.763 25.354 203.645 25.2411C203.412 25.0159 204.186 23.981 204.541 24.0442C204.663 24.0658 205.038 24.1531 205.377 24.2379ZM203.181 25.3574C203.631 25.6373 203.619 25.686 203.093 25.6904C202.755 25.6931 202.478 25.5433 202.478 25.3574C202.478 24.9449 202.518 24.9449 203.181 25.3574ZM212.383 27.8833C214.192 29.0061 214.381 29.2942 213.456 29.5129C213.118 29.5927 213.355 29.5964 213.983 29.521C215.165 29.379 215.555 29.8595 214.558 30.2277C214.198 30.3605 214.058 30.6828 214.174 31.1091C214.274 31.4786 214.213 31.7812 214.038 31.7812C213.863 31.7812 213.72 31.4769 213.72 31.105C213.72 30.368 213.461 30.276 212.697 30.7412C212.122 31.0919 210.909 30.488 210.909 29.851C210.909 29.6083 210.654 29.515 210.295 29.6262C209.799 29.7797 209.777 29.7499 210.184 29.4724C210.596 29.1914 210.606 29.0325 210.241 28.6095C209.879 28.1889 209.883 27.9749 210.264 27.4752C210.71 26.8896 210.815 26.9096 212.383 27.8833ZM219.516 35.1622C219.395 35.3509 219.657 35.4979 220.11 35.4952C220.762 35.4908 220.818 35.4259 220.394 35.1622C219.74 34.7558 219.777 34.7558 219.516 35.1622ZM14.3651 43.9528C14.2456 44.1387 14.4037 44.2909 14.7164 44.2909C15.029 44.2909 15.1871 44.1387 15.0676 43.9528C14.9482 43.7668 14.7901 43.6147 14.7164 43.6147C14.6426 43.6147 14.4845 43.7668 14.3651 43.9528ZM20.3914 47.5173C20.5059 47.8044 20.6749 47.9667 20.7669 47.8781C20.8589 47.7895 20.8301 47.5545 20.7026 47.3564C20.3562 46.8168 20.1539 46.9216 20.3914 47.5173ZM21.4452 49.5459C21.5598 49.833 21.7287 49.9953 21.8208 49.9067C21.9128 49.8181 21.884 49.5831 21.7565 49.385C21.4101 48.8454 21.2078 48.9502 21.4452 49.5459ZM29.646 50.7147C29.646 50.9007 29.8136 51.0528 30.018 51.0528C30.2225 51.0528 30.2924 50.9007 30.1729 50.7147C30.0535 50.5288 29.8863 50.3766 29.8009 50.3766C29.7155 50.3766 29.646 50.5288 29.646 50.7147ZM28.4165 50.7147C28.2971 50.9007 28.446 51.0528 28.747 51.0528C29.0481 51.0528 29.2947 50.9007 29.2947 50.7147C29.2947 50.5288 29.1461 50.3766 28.9642 50.3766C28.7822 50.3766 28.5359 50.5288 28.4165 50.7147ZM51.777 57.4767C51.777 57.6626 51.9351 57.8148 52.1283 57.8148C52.3215 57.8148 52.4796 57.6626 52.4796 57.4767C52.4796 57.2907 52.3215 57.1386 52.1283 57.1386C51.9351 57.1386 51.777 57.2907 51.777 57.4767ZM187.607 60.553C187.446 60.669 187.565 60.856 187.871 60.9689C188.271 61.117 188.427 60.9723 188.427 60.4526C188.427 60.0557 188.308 59.8684 188.164 60.0368C188.019 60.2048 187.768 60.4374 187.607 60.553ZM181.497 61.0619C181.613 61.1741 181.916 61.1863 182.17 61.0886C182.45 60.9807 182.367 60.9006 181.957 60.8844C181.587 60.8698 181.38 60.9496 181.497 61.0619ZM95.3364 62.3791C95.3364 62.6706 95.6532 62.8863 96.0818 62.8863C96.705 62.8863 96.7556 62.8028 96.3902 62.3791C96.1496 62.1002 95.8141 61.872 95.6448 61.872C95.4751 61.872 95.3364 62.1002 95.3364 62.3791ZM133.802 62.5482C133.683 62.7341 133.841 62.8863 134.153 62.8863C134.466 62.8863 134.624 62.7341 134.505 62.5482C134.385 62.3622 134.227 62.2101 134.153 62.2101C134.08 62.2101 133.922 62.3622 133.802 62.5482ZM147.678 62.676C147.678 62.746 147.915 62.9928 148.205 63.2244C148.637 63.5692 148.732 63.5459 148.732 63.0966C148.732 62.795 148.495 62.5482 148.205 62.5482C147.915 62.5482 147.678 62.6056 147.678 62.676ZM124.493 62.6973C124.493 62.7794 124.651 62.9404 124.844 63.0553C125.038 63.1703 125.196 63.103 125.196 62.9062C125.196 62.7094 125.038 62.5482 124.844 62.5482C124.651 62.5482 124.493 62.6151 124.493 62.6973ZM140.096 63.5625C139.822 63.5625 139.598 63.8667 139.598 64.2387C139.598 64.6106 139.689 64.9149 139.799 64.9149C140.203 64.9149 140.83 64.052 140.905 63.3934C140.948 63.0215 140.895 62.9076 140.788 63.1398C140.681 63.3725 140.37 63.5625 140.096 63.5625ZM154.704 64.2387C154.704 64.6745 154.526 64.9142 154.265 64.8303C154.023 64.7529 153.825 64.4865 153.825 64.2387C153.825 63.9908 154.023 63.7244 154.265 63.647C154.526 63.5631 154.704 63.8028 154.704 64.2387ZM132.333 64.3022C132.445 64.5717 132.528 64.4916 132.545 64.0977C132.56 63.7413 132.477 63.5418 132.36 63.6541C132.244 63.7663 132.231 64.0581 132.333 64.3022ZM131.343 65.253C131.224 65.4389 131.373 65.591 131.674 65.591C131.975 65.591 132.221 65.4389 132.221 65.253C132.221 65.067 132.073 64.9149 131.891 64.9149C131.709 64.9149 131.463 65.067 131.343 65.253Z" fill="#C6D65D"/>
</svg>
