<svg width="289" height="66" viewBox="0 0 289 66" fill="none" xmlns="http://www.w3.org/2000/svg">
<path fill-rule="evenodd" clip-rule="evenodd" d="M120.428 0.577134C120.014 0.910161 119.678 0.945661 119.281 0.697496C118.505 0.212664 115.065 1.49 114.515 2.4671C114.201 3.02395 114.165 2.88263 114.372 1.90687L114.649 0.601815L112.68 0.861474C109.802 1.2415 108.967 1.28241 108.472 1.06771C107.833 0.790812 104.963 1.02106 104.354 1.39804C104.014 1.60833 103.768 1.56878 103.638 1.28207C103.479 0.93146 103.148 0.926389 101.962 1.2557C100.955 1.5353 100.221 1.55965 99.6562 1.33245C99.0246 1.07786 98.6117 1.16171 97.915 1.6861C97.1554 2.25782 96.6806 2.33254 95.0971 2.13103C94.0496 1.99748 92.9903 1.93899 92.7433 2.00086C92.4962 2.0624 91.1823 2.15977 89.8234 2.21691C85.8964 2.38224 85.7805 2.39509 85.7805 2.66726C85.7805 2.8096 85.1435 2.85524 84.3646 2.76936C83.0987 2.62939 82.9752 2.68957 83.1993 3.335C83.3678 3.81983 83.2425 4.05718 82.8184 4.05718C82.4712 4.05718 82.1868 3.82896 82.1868 3.55003C82.1868 3.21193 81.7376 3.04288 80.8392 3.04288C80.0607 3.04288 79.4916 3.2214 79.4916 3.46551C79.4911 3.72652 78.7957 3.90537 77.6718 3.93343C75.6014 3.98482 74.946 4.28742 75.9109 4.74656C76.3583 4.95956 76.3907 5.06268 76.0102 5.0664C75.7016 5.06911 75.4487 5.29969 75.4487 5.57862C75.4487 5.85755 75.1455 6.08577 74.7749 6.08577C74.4043 6.08577 74.101 5.85755 74.101 5.57862C74.101 5.29969 74.3032 5.07147 74.5503 5.07147C74.7973 5.07147 74.9995 4.91933 74.9995 4.73337C74.9995 4.22352 73.7826 4.32766 73.5108 4.8605C73.3661 5.14383 72.8536 5.26554 72.2009 5.17155C71.2099 5.02921 71.1425 5.10765 71.3128 6.20478C71.488 7.33369 72.5998 8.12416 73.1667 7.52269C73.31 7.37088 73.9834 7.21975 74.6626 7.18729C75.3418 7.15483 76.1508 7.11088 76.4594 7.08958C76.7685 7.06828 77.4755 7.15585 78.0316 7.28399C78.7863 7.45811 79.0424 7.38068 79.0424 6.97868C79.0424 6.54085 79.2566 6.50197 80.1946 6.77042C81.9285 7.26641 83.5345 7.18121 83.5345 6.59292C83.5345 6.27747 83.9585 6.08577 84.6575 6.08577C85.3138 6.08577 85.7805 6.28017 85.7805 6.55302C85.7805 7.19338 89.3342 7.23395 89.6585 6.59731C89.7879 6.34374 90.4339 6.14426 91.0938 6.15373C93.3798 6.18686 93.8663 6.0834 93.8663 5.56374C93.8663 5.2767 94.1192 5.0664 94.4278 5.09683C94.7369 5.12692 95.4511 5.13368 96.0158 5.11137C96.8949 5.07722 96.9739 4.97545 96.5669 4.40305C96.1793 3.85736 96.2175 3.77081 96.7758 3.93174C97.1523 4.04061 97.46 4.34152 97.46 4.6005C97.46 4.85948 97.7416 5.07147 98.0857 5.07147C98.4298 5.07147 98.8265 5.29732 98.9675 5.57321C99.3431 6.31027 104.761 6.11451 105.995 5.3193C106.944 4.70768 108.024 4.51463 107.599 5.03293C107.464 5.19758 107.861 5.40518 108.482 5.49477C109.102 5.58403 109.72 5.52283 109.855 5.35886C109.99 5.19454 110.288 5.14788 110.518 5.25506C110.748 5.3619 110.936 5.28819 110.936 5.09142C110.936 4.89465 111.353 4.73337 111.861 4.73337C112.37 4.73337 112.661 4.88552 112.509 5.07147C112.338 5.2794 112.976 5.38996 114.167 5.35886C115.458 5.32505 115.699 5.26182 114.892 5.16918C114.029 5.07012 113.756 4.88214 113.943 4.5153C114.087 4.23231 114.329 4.1275 114.48 4.28235C114.905 4.71884 116.692 5.40957 117.397 5.40957C117.745 5.40957 118.96 4.74791 120.098 3.93884C121.514 2.93199 122.167 2.64258 122.167 3.02091C122.167 3.32452 121.557 3.84452 120.811 4.17585C119.285 4.85441 119.414 5.40957 121.097 5.40957C121.815 5.40957 122.107 5.2723 121.907 5.02887C121.683 4.75603 121.821 4.74352 122.393 4.98458C123.405 5.41059 124.862 5.13909 124.862 4.52477C124.862 4.26781 125.064 4.05718 125.311 4.05718C125.558 4.05718 125.76 4.26004 125.76 4.50786C125.76 5.21516 131.051 5.13436 131.305 4.42334C131.462 3.98212 131.505 3.99193 131.548 4.4798C131.608 5.16141 132.52 5.2581 133.307 4.66575C133.716 4.35809 133.846 4.3564 133.846 4.65865C133.846 5.10089 141.735 5.08162 142.68 4.63735C142.967 4.50178 143.305 4.58224 143.431 4.81587C143.606 5.14011 143.767 5.12455 144.114 4.7496C144.363 4.47946 144.469 4.139 144.349 3.9926C144.229 3.84654 144.445 3.81747 144.828 3.92802C145.212 4.03892 145.525 4.30872 145.525 4.52815C145.525 4.96396 146.383 5.06336 149.793 5.02279C151.028 5.00791 153.656 5.03056 155.633 5.07283C161.929 5.20773 162.317 5.19184 162.494 4.79288C162.614 4.52139 162.873 4.55587 163.338 4.90547C164.183 5.54177 166.964 5.55495 168.946 4.93184C170.254 4.52037 170.585 4.52037 171.333 4.93184C172.394 5.51607 173.32 5.56983 172.568 5.00385C171.834 4.45174 171.891 4.05718 172.703 4.05718C173.073 4.05718 173.376 4.28539 173.376 4.56433C173.376 4.84326 173.73 5.08398 174.163 5.09886C174.595 5.11407 175.555 5.16242 176.296 5.20637C177.038 5.25033 177.793 5.12388 177.974 4.92542C178.195 4.68401 178.306 4.7043 178.311 4.98695C178.315 5.21956 178.772 5.4072 179.329 5.4045C180.032 5.40078 180.162 5.31457 179.757 5.12084C179.288 4.89735 179.304 4.76144 179.837 4.42807C180.378 4.09031 180.591 4.14035 180.989 4.69889C181.28 5.109 181.746 5.30645 182.149 5.19015C182.519 5.08331 183.071 5.15025 183.377 5.33891C184.282 5.89711 185.763 5.94985 186.559 5.45251C187.042 5.15126 187.302 5.12151 187.302 5.36832C187.302 5.771 188.753 5.89474 189.235 5.53298C189.881 5.04645 193.102 5.07823 193.471 5.5749C193.862 6.10064 195.786 6.24603 198.661 5.96709C199.596 5.87615 200.961 5.93126 201.693 6.08915C202.425 6.24738 203.024 6.25414 203.024 6.10436C203.024 5.95459 203.53 5.83219 204.147 5.83219C204.765 5.83219 205.27 6.02356 205.27 6.25752C205.27 6.76568 206.962 7.16802 207.166 6.70821C207.244 6.53206 208.062 6.25989 208.984 6.10335C210.489 5.84808 210.661 5.88866 210.661 6.49723C210.661 7.09736 210.854 7.14807 212.345 6.93845C213.272 6.80828 213.873 6.82046 213.682 6.9655C213.178 7.34755 216.168 8.04944 216.798 7.69714C217.103 7.5264 217.44 7.55244 217.61 7.75969C217.77 7.95477 218.664 8.11436 219.597 8.11436C220.529 8.11436 221.438 8.2239 221.616 8.35779C222.119 8.73646 226.541 8.74423 227.169 8.36793C227.573 8.12619 227.731 8.19077 227.731 8.59682C227.731 9.04886 228.158 9.15773 229.865 9.13981C231.038 9.1273 232.678 9.21554 233.508 9.33591C234.484 9.47723 235.136 9.41063 235.352 9.14758C235.608 8.83552 235.832 8.846 236.313 9.19221C237.224 9.84846 239.27 10.4736 239.627 10.2048C240.186 9.78422 242.076 9.93434 242.323 10.4192C242.514 10.7941 242.703 10.8093 243.214 10.4902C243.862 10.0855 244.994 10.3113 244.617 10.7698C244.442 10.9824 245.71 11.0294 247.384 10.8719C247.693 10.8428 247.962 10.5527 247.981 10.2275C248.009 9.75447 248.069 9.73757 248.278 10.1429C248.422 10.4219 248.842 10.8171 249.21 11.0213C249.578 11.2255 249.747 11.5538 249.585 11.7506C249.404 11.9721 249.618 12.0444 250.148 11.9399C250.62 11.8473 251.74 12.0339 252.638 12.3544C253.536 12.6753 255.273 12.938 256.499 12.938C257.724 12.938 258.726 13.0699 258.726 13.2308C258.726 13.3921 259.03 13.5239 259.4 13.5239C259.771 13.5239 260.074 13.3556 260.074 13.1497C260.074 12.9438 260.377 12.8629 260.748 12.9701C261.118 13.077 261.422 13.0171 261.422 12.8373C261.422 12.2993 262.651 12.4667 262.946 13.0445C263.349 13.835 263.32 13.862 262.064 13.862C260.966 13.862 260.947 13.8911 261.69 14.4507C262.248 14.8699 262.525 14.9196 262.657 14.6231C262.782 14.3401 263.314 14.4784 264.319 15.0552C265.253 15.5917 266.082 15.8206 266.574 15.6786C267.035 15.5458 267.511 15.6465 267.741 15.9258C267.955 16.1854 268.49 16.3981 268.931 16.3981C269.372 16.3984 269.757 16.5888 269.788 16.8207C269.819 17.053 269.87 17.3708 269.901 17.5267C270.057 18.3195 274 18.9497 274 18.1819C274 17.9547 274.314 18.1072 274.699 18.5207C275.084 18.9345 275.289 19.4075 275.154 19.5718C274.826 19.9708 275.735 20.4793 277.269 20.7552C278.012 20.8891 279.011 21.5179 279.74 22.3104C280.412 23.0424 281.211 23.6469 281.515 23.654C281.819 23.6611 282.206 24.08 282.375 24.5855C282.543 25.0906 283.053 25.8047 283.508 26.1725C284.07 26.6266 284.231 27.0644 284.007 27.5364C283.826 27.9185 283.722 28.8306 283.776 29.563C283.83 30.2956 283.573 31.2409 283.204 31.6642C282.836 32.0875 282.535 32.667 282.535 32.9527C282.535 33.2381 282.332 33.4335 282.084 33.3872C281.837 33.3405 281.379 33.683 281.066 34.1479C280.753 34.6128 280.046 35.1433 279.494 35.3269C278.943 35.5105 278.492 35.9212 278.492 36.2397C278.492 36.5586 278.206 36.9406 277.857 37.0894C277.507 37.2381 277.154 37.8163 277.071 38.3741C276.961 39.1129 276.674 39.3979 276.015 39.4229C274.827 39.4682 272.705 40.3179 271.315 41.3038C270.703 41.7379 270.149 42.0594 270.084 42.0178C269.752 41.8062 265.579 43.2177 264.685 43.8442C264.373 44.0633 264.117 44.4234 264.117 44.6442C264.117 44.8741 263.747 44.9731 263.253 44.8758C262.778 44.7825 261.763 44.9928 260.996 45.3437C260.23 45.6943 259.312 45.9814 258.956 45.9814C258.6 45.9814 257.561 46.4757 256.647 47.0795C255.733 47.6837 254.614 48.1303 254.16 48.0725C253.58 47.9984 253.336 48.1756 253.336 48.6713C253.336 49.265 253.148 49.3397 252.139 49.149C251.148 48.962 250.991 49.0192 251.226 49.4807C251.416 49.8536 251.276 50.0385 250.803 50.0385C250.359 50.0385 250.191 49.8499 250.354 49.5314C250.53 49.1865 250.33 49.0242 249.728 49.0242C249.242 49.0242 248.844 49.151 248.844 49.3059C248.844 49.4611 248.591 49.6135 248.282 49.6453C243.345 50.1521 240.857 50.8675 240.672 51.8338C240.547 52.4901 240.468 52.51 239.879 52.0326C239.211 51.492 239.188 51.4937 235.292 52.3887C234.385 52.5969 232.886 52.8404 231.96 52.9293C231.035 53.0185 230.045 53.2369 229.76 53.4144C229.477 53.5919 228.044 53.8371 226.578 53.9591C225.099 54.0822 222.968 54.5599 221.791 55.0326C220.087 55.7162 219.54 55.8031 219.012 55.4735C218.532 55.1736 218.113 55.1604 217.457 55.4248C216.964 55.6236 215.87 55.7862 215.027 55.7862C214.184 55.7862 212.867 56.0215 212.101 56.3092C211.244 56.6314 208.949 56.8962 206.131 56.9983C203.613 57.0896 201.205 57.3049 200.778 57.477C200.351 57.6488 198.61 57.8141 196.909 57.8445C195.208 57.875 193.002 58.1032 192.008 58.352C191.014 58.6005 188.891 58.8315 187.291 58.8653C185.255 58.9085 184.066 59.1121 183.327 59.5448C182.41 60.0814 182.187 60.099 181.627 59.6777C181.158 59.3247 180.685 59.2777 179.89 59.5053C179.289 59.6774 178.032 59.8062 177.097 59.7917C176.162 59.7771 175.196 59.7981 174.949 59.8383C174.702 59.8789 173.863 59.886 173.085 59.8545C172.307 59.8231 171.537 59.96 171.374 60.1585C171.211 60.357 170.609 60.5196 170.036 60.5196C169.463 60.5196 168.747 60.7434 168.446 61.0173C167.993 61.4277 167.794 61.4372 167.308 61.072C166.579 60.5226 161.432 60.6596 160.481 61.2536C159.972 61.5717 159.752 61.5626 159.463 61.2103C159.187 60.8746 157.834 60.7759 154.103 60.8191C148.646 60.8824 146.88 61.1988 146.86 62.1171C146.847 62.6729 146.81 62.6706 146.358 62.085C145.963 61.5734 145.794 61.5413 145.473 61.9159C145.162 62.2794 145.022 62.2307 144.824 61.6887C144.652 61.2201 144.147 60.974 143.252 60.9226C142.526 60.881 141.932 60.9814 141.932 61.1461C141.932 61.3107 141.325 61.3919 140.584 61.327C139.843 61.262 139.237 61.3469 139.237 61.5156C139.237 61.9541 137.86 62.1211 136.504 61.8476C135.631 61.6715 135.213 61.7712 134.816 62.25C134.525 62.5999 133.946 62.8863 133.528 62.8863C132.937 62.8863 132.888 62.796 133.307 62.4805C134.45 61.6204 133.828 61.3652 130.694 61.4078C128.96 61.4311 127.437 61.3229 127.309 61.1667C126.967 60.7508 124.936 61.5369 124.71 62.1725C124.555 62.6114 124.506 62.5965 124.465 62.0958C124.418 61.541 124.039 61.4838 120.931 61.5653C119.017 61.6154 117.002 61.7753 116.455 61.9203C115.869 62.0758 115.343 62.041 115.174 61.8361C115.017 61.6444 114.58 61.5768 114.203 61.6857C113.826 61.7945 113.291 61.7509 113.013 61.5886C111.556 60.7366 109.63 61.0369 109.023 62.2101C108.815 62.6131 108.754 62.5945 108.726 62.1201C108.701 61.6972 108.33 61.5271 107.455 61.5373C106.776 61.5447 105.721 61.5092 105.11 61.4578C103.888 61.3554 103.215 62.4292 104.212 62.8924C104.514 63.0333 104.624 63.318 104.454 63.5246C104.008 64.0672 103.3 63.9868 103.3 63.3934C103.3 63.1145 103.09 62.8863 102.835 62.8863C102.527 62.8863 102.541 62.6459 102.875 62.1752C103.362 61.4903 103.297 61.469 101.094 61.5836C99.3781 61.6732 98.8072 61.587 98.8072 61.2391C98.8076 60.8648 98.6769 60.8563 98.1338 61.1958C97.725 61.451 97.46 61.4781 97.46 61.2644C97.46 61.0582 96.2961 60.9104 94.6524 60.9081C93.1085 60.9057 89.588 60.8529 86.8303 60.7911C84.0722 60.7295 81.9092 60.7934 82.0242 60.9334C82.3027 61.2722 80.8769 60.8658 79.5598 60.2305C78.7948 59.862 78.3012 59.818 77.763 60.0706C77.3493 60.265 76.6234 60.3022 76.1225 60.1551C74.7991 59.766 71.4318 59.7947 69.4347 60.2122C68.1185 60.4871 67.6059 60.4773 67.3553 60.1724C67.1661 59.9418 65.8859 59.747 64.3851 59.7206C62.1997 59.6824 61.5748 59.8045 60.737 60.4351C59.4797 61.3814 58.6141 61.4446 59.3687 60.5348C60.0048 59.7683 59.5156 59.1905 58.7304 59.7815C57.9564 60.3641 57.2705 60.2721 57.9295 59.6743C58.2372 59.3954 58.4133 59.1594 58.3212 59.1499C58.2295 59.1408 56.8761 59.0485 55.3142 58.9451C52.7676 58.7763 52.3552 58.8389 51.3203 59.5536L50.1662 60.3505L50.4627 59.4208C50.7857 58.4078 50.8153 58.4197 47.71 58.3206C46.6597 58.2868 45.8008 58.3983 45.8008 58.5684C45.8008 58.7385 45.4832 58.6384 45.0951 58.3459C44.7065 58.0538 44.0327 57.8148 43.5974 57.8148C43.1622 57.8148 42.677 57.7174 42.5189 57.5987C42.3612 57.4797 41.4682 57.3438 40.5352 57.2968C36.2259 57.0784 33.4754 56.7603 32.9246 56.4164C32.4799 56.1385 32.1372 56.1584 31.6022 56.4928C30.9904 56.8749 30.7909 56.8526 30.2999 56.3471C29.8642 55.8988 29.6611 55.8599 29.4841 56.1909C29.2991 56.5364 29.1639 56.5415 28.8562 56.2149C28.6401 55.986 27.9937 55.8667 27.4196 55.9498C26.845 56.0334 25.245 55.8024 23.8632 55.4369C22.4819 55.0711 20.99 54.8585 20.5489 54.9639C20.057 55.0813 19.7439 54.9832 19.7399 54.71C19.7345 54.3821 19.6154 54.3983 19.2871 54.7719C18.9057 55.206 18.7287 55.1715 18.0589 54.5335C17.6281 54.1238 16.1139 53.456 14.693 53.0496C13.2722 52.6436 12.11 52.2108 12.11 52.0881C12.11 51.9654 11.4025 51.9268 10.5378 52.0029C9.09225 52.13 8.96558 52.0692 8.96558 51.2503C8.96558 50.5264 8.70728 50.3208 7.5838 50.1518C6.60857 50.0051 5.85929 49.5351 5.03678 48.5543C4.39576 47.7898 3.91915 47.113 3.97755 47.0494C4.03639 46.9858 3.79157 46.7576 3.43355 46.5423C3.07598 46.3269 2.65687 45.2774 2.50189 44.2107C2.25482 42.5047 2.32939 42.22 3.1227 41.8471C3.61863 41.6141 4.02426 41.0796 4.02426 40.6594C4.02426 40.2394 4.21697 39.8956 4.45236 39.8956C4.68775 39.8956 5.21647 39.3631 5.6266 38.7122C6.03672 38.0614 6.65304 37.5289 6.99534 37.5289C7.33764 37.5289 7.61794 37.3372 7.61794 37.1032C7.61794 36.8689 8.02223 36.4872 8.51637 36.2549C9.0105 36.0227 9.41479 35.5473 9.41479 35.1987C9.41479 34.837 9.82402 34.4843 10.3689 34.3771C11.1362 34.226 11.2664 34.0201 11.0342 33.3233C10.7521 32.4781 11.3302 32.1197 11.8854 32.7955C12.0382 32.9815 12.3315 33.1336 12.5377 33.1336C13.0961 33.1336 13.5089 32.1163 13.1333 31.6663C12.9537 31.4506 12.8643 31.008 12.9357 30.6824C13.0067 30.3572 12.8382 30.0907 12.5611 30.0907C12.2839 30.0907 12.1783 30.2385 12.3266 30.419C12.4748 30.5996 12.0898 30.8427 11.4708 30.9597C10.8518 31.0766 10.2234 31.4614 10.0742 31.8147C9.92554 32.1684 9.61513 32.4574 9.38469 32.4574C9.15424 32.4574 8.96558 32.6427 8.96558 32.8692C8.96558 33.0958 8.42787 33.6289 7.77112 34.0539C7.11393 34.4786 6.35477 35.1683 6.08434 35.5859C5.81392 36.0037 4.94065 36.5738 4.1442 36.8527C3.3464 37.132 2.69191 37.6209 2.68652 37.941C2.68023 38.3173 2.439 38.4533 2.00282 38.3275C1.22119 38.1016 1.15381 38.4901 1.76384 39.6985C2.1241 40.4109 2.04414 40.6218 1.30205 40.9207C0.808816 41.1195 0.529408 41.4329 0.681241 41.6179C0.833074 41.8025 0.699209 42.1876 0.383864 42.4736C-0.0424366 42.8604 -0.0631 43.1454 0.303905 43.588C0.606223 43.9518 0.64171 44.3673 0.396442 44.6591C-0.149798 45.3085 -0.125091 46.9957 0.430582 46.9957C0.677647 46.9957 0.895964 47.4142 0.91528 47.9254C0.934596 48.4366 1.05274 48.6652 1.17717 48.4326C1.4714 47.8845 2.14207 47.8845 2.07828 48.4326C1.99518 49.146 3.70532 51.3909 4.33197 51.3909C4.65675 51.3909 4.92268 51.6049 4.92268 51.8663C4.92268 52.1648 5.23623 52.2801 5.76405 52.1763C6.33994 52.0631 6.91583 52.3393 7.59144 53.0534C8.13364 53.6268 8.96827 54.0957 9.44533 54.0957C9.92284 54.0957 10.3132 54.3239 10.3132 54.6029C10.3132 54.8818 10.6164 55.11 10.987 55.11C11.3576 55.11 11.6608 55.275 11.6608 55.4762C11.6608 55.6777 11.9137 55.7727 12.2223 55.6875C12.5314 55.6023 12.7358 55.367 12.6769 55.1644C12.6181 54.9619 12.871 54.8831 13.2385 54.9893C13.6059 55.0955 13.9069 55.3771 13.9069 55.6148C13.9069 56.0367 16.4732 57.1386 17.4561 57.1386C17.7279 57.1386 17.9498 57.2677 17.9498 57.4253C17.9498 57.5829 18.5764 57.7252 19.3428 57.7418C20.1087 57.758 21.0956 58.017 21.5358 58.3169C22.0731 58.6827 22.7226 58.7889 23.5119 58.6398C24.2019 58.5096 24.6879 58.5596 24.6879 58.7608C24.6879 58.9495 25.0922 59.0242 25.5864 58.9271C26.6002 58.7273 26.7646 58.2942 25.9233 58.0386C25.6147 57.945 25.8168 57.856 26.3725 57.8415C26.9569 57.8259 27.3832 58.0146 27.3832 58.2888C27.3832 58.8534 29.8848 59.6584 31.3138 59.5536C31.8695 59.5131 32.3245 59.6213 32.3245 59.7944C32.3245 60.3174 33.744 60.5574 34.403 60.146C34.8805 59.8474 35.0198 59.8782 35.0198 60.2822C35.0198 60.6765 35.7057 60.8502 37.8273 60.9936C39.3717 61.0981 41.2108 61.167 41.9151 61.1474C43.0687 61.115 43.1707 61.0179 42.9452 60.1696C42.7691 59.5073 42.8998 59.1692 43.3863 59.0286C44.4357 58.7256 44.574 58.7804 44.2699 59.3771C44.0552 59.7984 44.1998 59.8836 44.8957 59.7467C46.0492 59.5198 46.0582 59.8924 44.9145 60.5128C44.0983 60.9557 44.0853 61.0409 44.7465 61.591C45.2532 62.0123 45.6867 62.0988 46.2186 61.8848C46.6458 61.7124 47.2441 61.7077 47.6003 61.8733C47.9458 62.0339 48.373 62.0985 48.5491 62.0163C48.7256 61.9342 49.4426 62.0326 50.1429 62.2351C50.8432 62.4376 52.4267 62.6712 53.662 62.7547C54.8973 62.8379 56.2872 62.9941 56.7503 63.1016C57.2988 63.2288 57.4857 63.1662 57.2853 62.9224C56.8244 62.3612 57.735 62.4718 58.3787 63.0553C59.1684 63.7717 59.7263 63.6845 59.7263 62.845C59.7263 62.32 59.8773 62.2162 60.2878 62.4576C60.5969 62.6395 61.5065 62.9546 62.3093 63.1578C63.6794 63.5046 63.7692 63.4786 63.7692 62.7392C63.7692 62.2354 64.0931 61.8872 64.6663 61.7743C65.372 61.6353 65.4807 61.7087 65.1761 62.1184C64.4978 63.0303 66.1271 63.863 68.5726 63.8549C69.7603 63.8509 71.5922 63.9959 72.6438 64.1768C73.7601 64.3688 74.659 64.38 74.8041 64.2032C74.9406 64.0368 74.8382 63.9006 74.5768 63.9006C74.3153 63.9006 74.101 63.7819 74.101 63.6365C74.101 63.219 76.6449 62.607 77.2365 62.8822C77.5869 63.0452 77.4099 63.2068 76.7222 63.3525L75.6733 63.5743L76.6957 64.2214C77.9939 65.043 84.3341 65.1637 84.7365 64.3746C85.0577 63.7447 85.7805 63.7677 85.7805 64.4077C85.7805 64.7194 86.2014 64.9149 86.8734 64.9149C87.793 64.9149 87.9605 64.7563 87.9286 63.9175C87.9012 63.1885 87.6474 62.8927 86.9862 62.8186C86.1974 62.7301 86.1682 62.6635 86.7602 62.2966C87.3343 61.9406 87.6048 62.1188 88.5189 63.457L89.5988 65.0379L89.8535 64.0466C89.9937 63.5013 89.9514 62.7203 89.7605 62.3108C89.491 61.734 89.5602 61.6089 90.0673 61.7553C90.4271 61.8591 90.725 62.1181 90.7286 62.3308C90.7326 62.562 90.893 62.5299 91.1279 62.2513C91.6795 61.5957 92.6121 62.1316 92.2819 62.9147C92.1319 63.271 92.211 63.5625 92.458 63.5625C92.7051 63.5625 93.0357 63.8667 93.1925 64.2387C93.3493 64.6106 93.767 64.9149 94.121 64.9149C94.475 64.9149 94.7647 65.067 94.7647 65.253C94.7647 65.7036 96.3918 65.6833 97.5467 65.2181C98.2578 64.9318 98.5619 64.9514 98.8579 65.3027C99.1571 65.658 99.2447 65.6282 99.2501 65.1684C99.2582 64.4632 100.474 64.3918 101.467 65.0383C101.858 65.2918 102.935 65.5867 103.861 65.6932C105.175 65.8439 105.546 65.7746 105.546 65.378C105.546 64.8679 106.637 64.9581 108.217 65.5982C108.575 65.7432 109.326 65.7307 109.886 65.5701C110.497 65.3953 111.011 65.4088 111.172 65.6039C111.563 66.081 114.423 66.0008 114.644 65.5065C114.781 65.2016 115.009 65.1833 115.467 65.4409C115.817 65.6377 117.263 65.8365 118.683 65.8832C120.965 65.9579 121.389 65.8656 122.354 65.0822L123.445 64.1967L123.591 64.9784C123.73 65.7128 123.916 65.7557 126.659 65.6867C128.265 65.6465 129.781 65.5978 130.028 65.5782C130.275 65.5589 133.237 65.6482 136.61 65.776C142.365 65.9944 142.757 65.9701 142.96 65.3774C143.15 64.8198 143.181 64.8151 143.227 65.3375C143.274 65.8652 143.774 66.0789 144.72 65.9741C145.404 65.898 158.399 65.5187 159.563 65.5407C160.242 65.5535 160.799 65.4217 160.799 65.2475C160.799 65.0562 161.212 65.0498 161.847 65.2317C162.423 65.3966 163.163 65.4068 163.491 65.2543C163.822 65.1005 164.424 65.135 164.842 65.3317C165.311 65.5522 166.261 65.5829 167.353 65.4129C168.319 65.2624 169.293 65.1728 169.517 65.2137C169.741 65.255 170.069 65.1126 170.246 64.8979C170.488 64.6028 170.804 64.6024 171.532 64.8956C172.063 65.1093 172.681 65.1985 172.905 65.094C173.13 64.9896 174.58 64.8297 176.127 64.7394C177.675 64.6488 179.071 64.4155 179.231 64.2207C179.391 64.026 179.908 63.8722 180.38 63.8793C181.562 63.8965 182.885 63.8948 183.821 63.8752C184.253 63.8661 184.607 63.6399 184.607 63.3725C184.607 63.105 184.91 62.8863 185.281 62.8863C185.651 62.8863 185.954 63.0384 185.954 63.2244C185.954 63.4103 186.245 63.5625 186.6 63.5625C187.059 63.5625 187.239 63.1672 187.221 62.1938C187.207 61.4409 187.32 60.7309 187.473 60.6159C187.626 60.501 187.751 60.8053 187.751 61.2925C187.751 62.2817 188.61 63.9006 189.134 63.9006C189.976 63.9006 190.896 63.4506 190.896 63.0391C190.896 62.2777 191.897 62.0728 192.515 62.7081C193.207 63.4205 194.717 63.1439 194.325 62.3764C194.175 62.0816 194.322 61.872 194.68 61.872C195.016 61.872 195.408 62.1002 195.55 62.3791C195.692 62.658 196.27 62.8687 196.834 62.847C197.594 62.818 197.656 62.7679 197.072 62.6533C196.16 62.4738 196.007 61.872 196.874 61.872C197.198 61.872 197.854 62.0877 198.333 62.3511C198.947 62.6895 199.369 62.727 199.766 62.4789C200.162 62.2314 200.329 62.2442 200.329 62.5221C200.329 62.7842 200.82 62.8477 201.789 62.7115C203.348 62.492 203.877 62.4244 208.415 61.8645C210.021 61.6661 211.739 61.3641 212.233 61.1927C212.727 61.0217 213.637 60.8976 214.255 60.9172C215.86 60.9686 218.896 60.5175 219.398 60.1531C219.633 59.9827 220.208 59.8434 220.677 59.8434C221.145 59.8434 222.065 59.5594 222.72 59.2118C223.533 58.7818 224.199 58.6665 224.811 58.85C226.232 59.2764 226.827 59.2111 226.546 58.66C226.382 58.3388 226.552 58.1529 227.009 58.1529C227.406 58.1529 227.731 58.305 227.731 58.491C227.731 58.6769 228.034 58.8291 228.405 58.8291C229.201 58.8291 229.208 58.7919 228.641 57.6677C228.356 57.1041 228.356 56.8005 228.641 56.8005C228.881 56.8005 229.079 57.0287 229.079 57.3076C229.079 57.5866 229.466 57.8148 229.94 57.8148C230.413 57.8148 230.868 57.9622 230.95 58.1424C231.038 58.3344 231.957 58.2381 233.167 57.9098C234.731 57.4855 235.36 57.099 235.749 56.3224L236.264 55.296L236.948 56.0307C237.599 56.7302 237.72 56.742 239.467 56.2781C240.477 56.01 241.454 55.8613 241.639 55.9475C241.824 56.0334 241.885 55.746 241.774 55.3085C241.576 54.5271 242.577 53.6386 242.881 54.326C242.967 54.5187 243.299 54.946 243.62 55.276C244.134 55.8055 244.409 55.8274 245.961 55.4633C246.929 55.2365 248.578 54.7601 249.625 54.4044C250.673 54.0487 251.839 53.7576 252.217 53.7576C252.595 53.7576 253.705 53.3773 254.684 52.9124C255.662 52.4475 256.755 52.0671 257.113 52.0671C257.471 52.0671 258.031 51.8768 258.358 51.6445C258.684 51.4122 259.63 51.181 260.459 51.1313C261.289 51.0812 262.395 50.8151 262.918 50.5396C263.44 50.264 264.227 50.0385 264.666 50.0385C265.105 50.0385 265.465 49.8103 265.465 49.5314C265.465 49.247 265.865 49.0242 266.377 49.0242C266.879 49.0242 267.406 48.796 267.548 48.5171C267.69 48.2382 268.296 48.0099 268.893 48.0099C269.638 48.0099 270.113 47.7445 270.406 47.1647C270.824 46.3377 271.754 45.9878 271.754 46.6576C271.754 47.1576 272.62 47.068 273.39 46.4885C273.761 46.2096 274.406 45.9814 274.823 45.9814C275.242 45.9814 275.783 45.6514 276.027 45.2484C276.271 44.845 276.873 44.3507 277.366 44.1495C277.858 43.9484 278.707 43.4416 279.253 43.023C279.799 42.6048 280.407 42.2558 280.604 42.2481C280.801 42.24 281.468 41.7558 282.085 41.1716C282.703 40.5873 283.766 39.7106 284.447 39.2238C286.1 38.0421 288.726 34.0735 287.468 34.6588C286.559 35.0817 286.878 33.4836 288.037 31.8086C288.734 30.8007 289.146 29.8879 288.952 29.78C288.757 29.6718 288.598 28.5311 288.598 27.245C288.597 25.6772 288.412 24.8597 288.036 24.7654C287.728 24.6879 287.476 24.4256 287.476 24.1821C287.476 23.9384 287.192 23.6571 286.844 23.557C286.497 23.4566 286.078 22.9095 285.911 22.3412C285.746 21.7728 285.423 21.2211 285.195 21.1149C284.967 21.0091 284.773 20.5888 284.764 20.1814C284.755 19.774 284.301 19.0542 283.754 18.5819C282.392 17.4056 279.39 15.7753 279.39 16.2115C279.39 16.4069 279.087 16.5668 278.716 16.5668C278.346 16.5668 278.042 16.439 278.042 16.2831C278.042 16.1269 277.537 15.8257 276.919 15.6141C276.302 15.4021 275.791 14.9595 275.785 14.6298C275.774 14.0179 273.221 12.8477 271.897 12.8477C271.502 12.8477 270.891 12.5813 270.539 12.2561C270.1 11.8493 269.83 11.7898 269.676 12.066C269.524 12.3379 269.158 12.2466 268.542 11.7831C267.911 11.3077 267.301 11.1613 266.549 11.3033C265.941 11.4183 265.465 11.3587 265.465 11.1681C265.465 10.6163 262.243 9.2524 260.299 8.9809C259.31 8.84296 258.295 8.60122 258.041 8.444C257.111 7.86585 252.419 6.86914 249.139 6.55336C248.112 6.45463 246.615 6.24501 245.812 6.0878C244.823 5.8944 244.352 5.92145 244.352 6.17198C244.352 6.37518 243.897 6.2254 243.341 5.83862C242.707 5.3974 241.494 5.0735 240.084 4.96835C238.849 4.87605 236.827 4.63025 235.592 4.42165C234.357 4.21338 232.175 3.98347 230.744 3.91044C229.313 3.83775 227.898 3.63185 227.6 3.453C227.301 3.27414 225.642 3.11388 223.913 3.09664C220.814 3.06587 220.077 2.99656 218.747 2.61215C217.537 2.26289 213.356 2.12021 213.356 2.42822C213.356 2.59355 212.983 2.57834 212.527 2.39441C211.956 2.16451 211.536 2.18175 211.179 2.4502C210.788 2.74468 210.661 2.72473 210.661 2.36973C210.661 2.02724 210.507 2.05767 210.095 2.4813C209.458 3.13789 207.649 3.07534 207.076 2.37717C206.83 2.07795 206.241 2.00087 205.294 2.14354C204.331 2.28825 203.974 2.23922 204.179 1.98971C204.368 1.7598 204.096 1.77772 203.451 2.03772C202.599 2.38089 202.334 2.36195 201.913 1.92851C201.456 1.45856 201.351 1.46295 200.893 1.9701C200.419 2.49449 200.38 2.49246 200.356 1.94406C200.341 1.61881 200.278 1.33853 200.217 1.32163C200.155 1.30506 198.096 1.22392 195.641 1.14176C193.185 1.05926 190.929 0.837469 190.627 0.648811C190.251 0.413494 189.978 0.42668 189.761 0.690059C189.555 0.940927 188.877 0.989614 187.812 0.829693C185.03 0.411804 183.259 0.445952 183.259 0.917599C183.259 1.15663 183.057 1.35239 182.81 1.35239C182.563 1.35239 182.411 1.18132 182.473 0.972032C182.535 0.76275 182.08 0.550424 181.462 0.500047C180.845 0.449671 179.885 0.298879 179.329 0.164654C178.564 -0.0196099 178.318 0.0540955 178.318 0.46759C178.318 0.768497 178.554 1.01429 178.842 1.01429C179.13 1.01429 179.215 1.12823 179.03 1.26719C178.845 1.40649 178.439 1.25874 178.129 0.938899C177.361 0.148425 175.268 0.0929771 173.437 0.814479C172.247 1.28342 171.817 1.32163 171.416 0.993332C171.031 0.679239 171.043 0.635625 171.467 0.815493C171.812 0.96189 172.029 0.850655 172.029 0.527095C172.029 0.237345 171.771 0 171.455 0C170.757 0 168.866 0.920979 168.098 1.63538C167.61 2.08978 167.537 2.05834 167.537 1.39432C167.537 0.784388 167.356 0.67383 166.638 0.845245C165.998 0.998066 165.74 0.906103 165.74 0.524728C165.74 0.132873 165.348 0.00642373 164.28 0.0530813C163.477 0.0885816 162.493 0.237683 162.093 0.384756C161.693 0.531829 161.243 0.560229 161.094 0.447642C160.944 0.334717 158.967 0.19914 156.701 0.146058C153.585 0.073367 152.324 0.176149 151.528 0.568681C150.645 1.00415 150.438 1.01193 150.236 0.617367C149.984 0.123406 148.333 0.0368524 147.405 0.468942C147.104 0.608576 146.954 0.839836 147.072 0.982513C147.189 1.12519 147.009 1.53902 146.671 1.90146C146.148 2.46406 144.653 2.67165 143.279 2.37277C142.9 2.29028 145.275 1.58027 145.693 1.65161C145.909 1.68812 145.959 1.4714 145.805 1.16948C145.651 0.867898 145.525 0.4801 145.525 0.308346C145.525 0.126787 144.065 0.0787769 142.044 0.19373C137.938 0.427018 138.011 0.427694 136.429 0.143354C135.484 -0.0267098 135.194 0.0449669 135.194 0.447642C135.194 0.914217 135.053 0.918951 133.958 0.489228C132.267 -0.174797 128.906 -0.131858 127.573 0.57071C126.805 0.975413 126.439 1.02444 126.312 0.739759C126.051 0.150454 123.721 0.250193 123.027 0.88007C122.483 1.37302 122.365 1.36254 121.721 0.763764C121.119 0.204212 120.925 0.176149 120.428 0.577134ZM126.209 1.52144C126.209 1.80037 126.007 2.04752 125.76 2.07085C125.513 2.09418 125.102 2.13205 124.846 2.15538C124.589 2.1787 124.188 2.42585 123.954 2.70479C123.35 3.42392 123.372 2.52221 123.979 1.66818C124.527 0.897989 126.209 0.787431 126.209 1.52144ZM102.401 2.17769C102.401 2.25985 102.199 2.42078 101.952 2.53574C101.705 2.65069 101.503 2.58341 101.503 2.38663C101.503 2.18986 101.705 2.02859 101.952 2.02859C102.199 2.02859 102.401 2.09553 102.401 2.17769ZM89.1694 4.03317C88.7278 4.57109 88.0162 4.13291 88.3302 3.51656C88.5032 3.17745 88.748 3.11253 89.0355 3.32892C89.2776 3.51115 89.3378 3.82795 89.1694 4.03317ZM198.981 3.55003C198.981 3.82896 198.685 4.05718 198.322 4.05718C197.92 4.05718 197.763 3.85905 197.92 3.55003C198.063 3.2711 198.36 3.04288 198.58 3.04288C198.801 3.04288 198.981 3.2711 198.981 3.55003ZM203.666 3.29646C203.443 3.43609 203.108 3.70218 202.924 3.88813C202.733 4.08118 202.586 3.97232 202.582 3.63456C202.578 3.30559 202.908 3.04288 203.324 3.04288C203.735 3.04288 203.89 3.15682 203.666 3.29646ZM87.1281 4.05718C87.1281 4.24313 86.926 4.39528 86.6789 4.39528C86.4319 4.39528 86.2297 4.24313 86.2297 4.05718C86.2297 3.87122 86.4319 3.71908 86.6789 3.71908C86.926 3.71908 87.1281 3.87122 87.1281 4.05718ZM101.381 3.92329C101.232 4.03554 100.844 4.04771 100.52 3.95C100.162 3.84215 100.268 3.76202 100.792 3.74579C101.265 3.73125 101.53 3.81104 101.381 3.92329ZM210.661 4.42097C210.661 4.58089 210.358 4.62451 209.987 4.51767C209.617 4.41049 209.313 4.19174 209.313 4.03148C209.313 3.87156 209.617 3.82795 209.987 3.93479C210.358 4.04196 210.661 4.26071 210.661 4.42097ZM220.094 4.05718C220.094 4.24313 219.74 4.39291 219.308 4.39021C218.636 4.38581 218.62 4.33712 219.196 4.05718C220.044 3.6447 220.094 3.6447 220.094 4.05718ZM78.8178 4.73337C78.9705 4.91933 78.8811 5.07147 78.6197 5.07147C78.3582 5.07147 78.1439 4.91933 78.1439 4.73337C78.1439 4.54742 78.2329 4.39528 78.342 4.39528C78.4512 4.39528 78.665 4.54742 78.8178 4.73337ZM196.286 4.73337C196.286 4.91933 196.072 5.07147 195.811 5.07147C195.549 5.07147 195.46 4.91933 195.612 4.73337C195.765 4.54742 195.979 4.39528 196.088 4.39528C196.197 4.39528 196.286 4.54742 196.286 4.73337ZM207.496 5.56002C207.905 5.93058 207.923 6.08577 207.557 6.08577C207.272 6.08577 206.923 5.85755 206.781 5.57862C206.638 5.29969 206.24 5.07147 205.896 5.07147C205.552 5.07147 205.27 4.91392 205.27 4.72154C205.27 4.2837 206.67 4.8108 207.496 5.56002ZM201.555 4.93759C201.406 5.04983 201.018 5.06201 200.694 4.9643C200.336 4.85644 200.442 4.77631 200.966 4.76008C201.439 4.74555 201.704 4.82534 201.555 4.93759ZM69.9086 5.97318C69.3232 6.41338 69.6211 7.10006 70.3951 7.09499C71.0168 7.09093 71.0518 7.02805 70.5622 6.79442C70.2217 6.63213 70.082 6.33021 70.2518 6.12363C70.5914 5.71014 70.3807 5.61784 69.9086 5.97318ZM218.176 6.96618C218.027 7.07842 217.639 7.09059 217.315 6.99288C216.957 6.88503 217.063 6.8049 217.586 6.78867C218.06 6.77414 218.325 6.85393 218.176 6.96618ZM219.645 7.43816C219.645 7.62411 219.443 7.77626 219.196 7.77626C218.949 7.77626 218.747 7.62411 218.747 7.43816C218.747 7.25221 218.949 7.10006 219.196 7.10006C219.443 7.10006 219.645 7.25221 219.645 7.43816ZM224.586 7.60721C224.586 7.88614 224.384 8.11436 224.137 8.11436C223.89 8.11436 223.688 7.88614 223.688 7.60721C223.688 7.32828 223.89 7.10006 224.137 7.10006C224.384 7.10006 224.586 7.32828 224.586 7.60721ZM237.164 8.30335C237.164 8.5931 236.962 8.73646 236.715 8.6215C236.468 8.50655 236.266 8.26954 236.266 8.09441C236.266 7.91927 236.468 7.77626 236.715 7.77626C236.962 7.77626 237.164 8.0136 237.164 8.30335ZM253.785 11.3263C253.785 11.6052 253.482 11.8334 253.111 11.8334C252.741 11.8334 252.438 11.6052 252.438 11.3263C252.438 11.0474 252.741 10.8191 253.111 10.8191C253.482 10.8191 253.785 11.0474 253.785 11.3263ZM269.356 14.2846C269.231 14.5173 269.129 14.3269 269.129 13.862C269.129 13.3971 269.231 13.2071 269.356 13.4394C269.481 13.672 269.481 14.0524 269.356 14.2846ZM57.7049 18.2573C57.5521 18.4433 57.6415 18.5954 57.903 18.5954C58.1644 18.5954 58.3787 18.4433 58.3787 18.2573C58.3787 18.0713 58.2897 17.9192 58.1806 17.9192C58.0714 17.9192 57.8576 18.0713 57.7049 18.2573ZM51.7115 19.6097C51.7115 20.0746 51.8135 20.2649 51.9379 20.0323C52.0628 19.8 52.0628 19.4197 51.9379 19.1871C51.8135 18.9548 51.7115 19.1448 51.7115 19.6097ZM42.2907 20.0201C41.5908 20.5469 41.6079 21.0595 42.3194 20.8654C42.6285 20.7812 43.2219 20.9354 43.6388 21.2082C44.0556 21.4814 44.6113 21.6045 44.8741 21.4824C45.5142 21.1846 45.4823 20.624 44.8256 20.624C44.5363 20.624 43.9671 20.3978 43.5615 20.1216C42.9923 19.7338 42.7017 19.7108 42.2907 20.0201ZM36.2488 21.5024C36.101 21.6136 36.0884 21.9169 36.221 22.1769C36.4141 22.5559 36.0637 22.6083 34.4524 22.4419C33.1731 22.3101 32.3303 22.3723 32.1327 22.6127C31.962 22.8206 32.0366 22.9907 32.298 22.9907C32.5594 22.9907 32.7737 23.3521 32.7737 23.7937C32.7737 24.4249 33.014 24.5966 33.8967 24.5966C34.6878 24.5966 35.0198 24.4127 35.0198 23.9745C35.0198 23.2899 36.2708 22.6573 37.154 22.8957C37.5295 22.9971 37.6158 22.8514 37.4145 22.4565C37.2088 22.0535 37.2802 21.9432 37.6387 22.1099C37.928 22.2445 38.1642 22.2097 38.1642 22.0325C38.1642 21.8553 37.8444 21.6183 37.4536 21.5054C36.5817 21.2535 36.579 21.2535 36.2488 21.5024ZM39.0627 22.2269C39.0627 22.8504 39.8928 23.0569 40.7436 22.6455C41.3806 22.3371 41.3918 22.2959 40.802 22.4315C40.3995 22.5241 39.8438 22.4291 39.5667 22.2205C39.1943 21.9402 39.0627 21.9419 39.0627 22.2269ZM29.4046 23.3288C29.2519 23.5147 29.3413 23.6669 29.6027 23.6669C29.8642 23.6669 30.0785 23.8826 30.0785 24.146C30.0785 24.8401 31.1161 24.9966 31.7082 24.3918C32.0905 24.0013 32.0707 23.7656 31.6278 23.4326C30.9311 22.9078 29.7937 22.8548 29.4046 23.3288ZM26.3725 24.2379C25.9399 24.3231 25.5864 24.6673 25.5864 25.0027C25.5864 25.3381 25.2454 25.8216 24.8285 26.0768C24.1686 26.4805 24.1067 26.4677 24.351 25.9771C24.5177 25.6414 24.3703 25.3381 23.9858 25.2269C23.6309 25.1244 23.3403 25.188 23.3403 25.3678C23.3403 25.5481 23.0371 25.6955 22.6665 25.6955C22.2959 25.6955 21.9927 25.8429 21.9927 26.0231C21.9927 26.2029 21.7101 26.2689 21.3642 26.1688C20.3607 25.8791 20.2349 26.4822 21.1517 27.1915C21.8934 27.7656 21.9927 27.7758 21.9927 27.2761C21.9927 26.9647 22.2959 26.7098 22.6665 26.7098C23.0371 26.7098 23.3403 26.9485 23.3403 27.2406C23.3403 28.1284 25.2791 27.6801 25.6353 26.7098C25.8307 26.1779 25.9628 26.0839 25.9906 26.4562C26.041 27.1168 26.7197 27.2446 27.1828 26.6803C27.3486 26.4782 27.8625 26.3872 28.3247 26.4782C29.0111 26.6131 29.0866 26.5339 28.7389 26.0447C28.5049 25.7157 28.4361 25.354 28.5862 25.2411C28.8849 25.0159 27.8944 23.981 27.4407 24.0442C27.2853 24.0658 26.8051 24.1531 26.3725 24.2379ZM29.18 25.3574C28.6041 25.6373 28.6203 25.686 29.2923 25.6904C29.7249 25.6931 30.0785 25.5433 30.0785 25.3574C30.0785 24.9449 30.0277 24.9449 29.18 25.3574ZM17.4125 27.8833C15.1 29.0061 14.8574 29.2942 16.0406 29.5129C16.4728 29.5927 16.17 29.5964 15.3668 29.521C13.8557 29.379 13.3562 29.8595 14.6315 30.2277C15.0915 30.3605 15.2711 30.6828 15.1229 31.1091C14.9944 31.4786 15.0726 31.7812 15.2967 31.7812C15.5205 31.7812 15.7037 31.4769 15.7037 31.105C15.7037 30.368 16.0348 30.276 17.0114 30.7412C17.7472 31.0919 19.2974 30.488 19.2974 29.851C19.2974 29.6083 19.6244 29.515 20.0835 29.6262C20.7174 29.7797 20.7448 29.7499 20.2246 29.4724C19.6986 29.1914 19.6851 29.0325 20.1514 28.6095C20.6154 28.1889 20.61 27.9749 20.1226 27.4752C19.5517 26.8896 19.4178 26.9096 17.4125 27.8833ZM8.29176 35.1622C8.44674 35.3509 8.11073 35.4979 7.53215 35.4952C6.69751 35.4908 6.62654 35.4259 7.16873 35.1622C8.00471 34.7558 7.958 34.7558 8.29176 35.1622ZM270.631 43.9528C270.783 44.1387 270.581 44.2909 270.181 44.2909C269.781 44.2909 269.579 44.1387 269.732 43.9528C269.885 43.7668 270.087 43.6147 270.181 43.6147C270.276 43.6147 270.478 43.7668 270.631 43.9528ZM262.924 47.5173C262.778 47.8044 262.562 47.9667 262.444 47.8781C262.326 47.7895 262.363 47.5545 262.526 47.3564C262.969 46.8168 263.228 46.9216 262.924 47.5173ZM261.577 49.5459C261.43 49.833 261.214 49.9953 261.096 49.9067C260.979 49.8181 261.016 49.5831 261.179 49.385C261.622 48.8454 261.88 48.9502 261.577 49.5459ZM251.09 50.7147C251.09 50.9007 250.876 51.0528 250.614 51.0528C250.353 51.0528 250.263 50.9007 250.416 50.7147C250.569 50.5288 250.783 50.3766 250.892 50.3766C251.001 50.3766 251.09 50.5288 251.09 50.7147ZM252.662 50.7147C252.815 50.9007 252.624 51.0528 252.239 51.0528C251.854 51.0528 251.539 50.9007 251.539 50.7147C251.539 50.5288 251.729 50.3766 251.962 50.3766C252.194 50.3766 252.509 50.5288 252.662 50.7147ZM222.79 57.4767C222.79 57.6626 222.587 57.8148 222.34 57.8148C222.093 57.8148 221.891 57.6626 221.891 57.4767C221.891 57.2907 222.093 57.1386 222.34 57.1386C222.587 57.1386 222.79 57.2907 222.79 57.4767ZM49.0953 60.553C49.3011 60.669 49.1497 60.856 48.7584 60.9689C48.2459 61.117 48.0469 60.9723 48.0469 60.4526C48.0469 60.0557 48.1987 59.8684 48.3838 60.0368C48.5688 60.2048 48.8891 60.4374 49.0953 60.553ZM56.9093 61.0619C56.7602 61.1741 56.3725 61.1863 56.0486 61.0886C55.6902 60.9807 55.7966 60.9006 56.32 60.8844C56.7934 60.8698 57.0585 60.9496 56.9093 61.0619ZM167.088 62.3791C167.088 62.6706 166.682 62.8863 166.134 62.8863C165.337 62.8863 165.273 62.8028 165.74 62.3791C166.048 62.1002 166.477 61.872 166.693 61.872C166.91 61.872 167.088 62.1002 167.088 62.3791ZM117.899 62.5482C118.052 62.7341 117.85 62.8863 117.45 62.8863C117.05 62.8863 116.848 62.7341 117.001 62.5482C117.153 62.3622 117.355 62.2101 117.45 62.2101C117.544 62.2101 117.746 62.3622 117.899 62.5482ZM100.155 62.676C100.155 62.746 99.852 62.9928 99.4814 63.2244C98.9293 63.5692 98.8076 63.5459 98.8076 63.0966C98.8076 62.795 99.1108 62.5482 99.4814 62.5482C99.852 62.5482 100.155 62.6056 100.155 62.676ZM129.803 62.6973C129.803 62.7794 129.601 62.9404 129.354 63.0553C129.107 63.1703 128.905 63.103 128.905 62.9062C128.905 62.7094 129.107 62.5482 129.354 62.5482C129.601 62.5482 129.803 62.6151 129.803 62.6973ZM109.851 63.5625C110.201 63.5625 110.487 63.8667 110.487 64.2387C110.487 64.6106 110.372 64.9149 110.231 64.9149C109.714 64.9149 108.912 64.052 108.816 63.3934C108.761 63.0215 108.829 62.9076 108.965 63.1398C109.102 63.3725 109.501 63.5625 109.851 63.5625ZM91.171 64.2387C91.171 64.6745 91.3983 64.9142 91.7325 64.8303C92.0416 64.7529 92.2941 64.4865 92.2941 64.2387C92.2941 63.9908 92.0416 63.7244 91.7325 63.647C91.3983 63.5631 91.171 63.8028 91.171 64.2387ZM119.778 64.3022C119.635 64.5717 119.528 64.4916 119.507 64.0977C119.487 63.7413 119.593 63.5418 119.743 63.6541C119.892 63.7663 119.908 64.0581 119.778 64.3022ZM121.044 65.253C121.196 65.4389 121.006 65.591 120.621 65.591C120.236 65.591 119.92 65.4389 119.92 65.253C119.92 65.067 120.111 64.9149 120.343 64.9149C120.576 64.9149 120.891 65.067 121.044 65.253Z" fill="#C6D65D"/>
</svg>
