<svg width="650" height="331" viewBox="0 0 650 331" fill="none" xmlns="http://www.w3.org/2000/svg">
<path d="M145.702 246.93C163.434 232.826 178.15 220.507 193.497 209.077C219.447 189.586 245.942 171.491 278.544 164.137C311.629 156.708 339.796 165.348 360.005 191.68C372.388 207.867 380.347 227.373 389.604 245.691C393.185 252.872 394.801 261.181 398.547 272.616C405.901 256.334 411.477 243.455 417.586 230.823C432.382 199.892 445.928 168.331 462.715 138.573C485.514 97.6784 520.886 89.0724 561.2 113.442C577.002 123.01 590.619 136.537 605.137 148.444C609.481 152.05 613.257 156.239 618.097 160.921C620.476 128.456 622.274 97.5633 625.273 66.9782C632.323 -4.39549 687.668 -10.4993 731.383 13.5087C743.076 19.9272 753.424 29.3522 763.537 38.3199C770.097 44.5458 772.642 53.5336 765.687 60.7009C759.461 67.2614 751.469 64.549 744.465 59.7085C737.485 55.0288 730.753 49.817 723.416 46.0157C714.829 41.5849 706.081 37.1791 696.779 34.5051C670.604 27.0378 655.105 35.3639 649.023 61.9826C644.69 80.7592 643.102 100.263 641.304 119.469C639.628 137.341 638.805 155.409 637.983 173.477C637.448 182.777 636.592 192.127 627.26 196.7C616.556 201.979 608.585 195.148 601.196 188.886C591.74 180.969 583.557 171.702 573.693 164.342C561.367 154.894 548.743 145.657 535.269 138.362C516.957 128.525 505.162 131.011 492.961 147.878C481.303 164.004 470.303 181.18 461.38 199.021C442.461 237.339 424.928 276.101 407.42 315.023C403.25 324.228 398.199 330.936 387.774 330.576C377.855 330.301 373.582 322.898 370.926 314.257C366.236 298.853 362.139 283.028 356.67 267.91C351.821 254.671 346.601 241.159 339.466 229.097C320.475 196.815 297.565 189.172 262.209 201.067C235.605 209.961 211.567 223.725 189.312 240.504C173.236 252.541 157.977 265.603 142.482 278.208C134.302 284.906 125.826 291.815 114.64 285.483C104.147 279.372 104.112 268.514 104.608 257.904C104.9 253.414 105.86 248.986 106.659 244.583C108.419 235.752 109.646 226.673 112.259 218.039C131.262 153.702 103.848 107.418 54.4805 70.2948C45.3595 63.4779 34.0401 59.4704 23.5607 54.5098C18.4014 52.0171 12.3161 50.9845 7.56427 47.9349C4.1119 45.8362 -0.0603277 41.2154 0.270314 38.0369C0.551162 34.5369 5.19685 30.5254 8.32337 28.3952C15.1945 23.8745 25.3096 23.2953 32.8302 25.0931C47.7107 28.7136 62.9261 33.4343 75.9682 41.1253C104.923 58.0376 126.997 82.5995 144.747 111.123C159.872 135.445 162.533 162.19 158.072 189.71C154.925 207.645 150.392 225.135 145.702 246.93Z" fill="#6CADA0"/>
</svg>
