<svg width="103" height="147" viewBox="0 0 103 147" fill="none" xmlns="http://www.w3.org/2000/svg">
<path fill-rule="evenodd" clip-rule="evenodd" d="M89.665 144.387C90.644 142.665 91.5534 140.881 92.2212 139.033C94.5346 132.492 101.145 110.236 102.152 105.675C102.518 104.306 102.687 102.712 102.457 101.314C102.044 98.8305 99.5117 97.9793 97.5531 99.6545C96.8358 100.239 96.255 101.118 95.846 102.001C94.6807 104.579 93.596 107.178 92.6722 109.821C89.9303 117.8 87.218 125.83 84.6773 133.863C83.8341 136.527 83.3825 139.339 82.9819 142.122C82.6842 144.199 83.9245 146.17 85.4862 146.46C87.3405 146.784 88.7801 145.919 89.665 144.387ZM48.9717 76.0262C48.652 76.6021 48.3627 77.1465 48.0867 77.666L48.0867 77.6661C47.4987 78.7727 46.9706 79.7667 46.3357 80.712C36.9625 94.7649 24.8627 106.275 11.7791 116.789C10.2424 118.016 8.44555 119.088 6.6171 119.633C5.63173 119.93 3.96293 119.397 3.1372 118.615C2.5206 118.018 2.41796 116.308 2.81621 115.466C3.55086 113.851 4.61829 112.282 5.87327 110.979C14.1342 102.365 22.4245 93.8027 30.7846 85.3018C33.2388 82.8198 35.7604 80.3823 38.2774 77.9493L38.2823 77.9446C38.9799 77.2703 39.677 76.5964 40.3723 75.922C41.431 74.8685 42.5595 73.8767 43.7066 72.9763C44.9774 71.9364 46.5909 71.5492 47.7731 72.7718C47.8476 72.8498 47.9231 72.9265 47.9985 73.003C48.7078 73.7226 49.4006 74.4255 48.9717 76.0262ZM8.03978 0.826857C8.65665 1.1075 9.31191 1.38878 9.98731 1.6787C11.3326 2.25617 12.7577 2.86793 14.1184 3.57717C22.1734 7.80603 30.2283 12.0349 38.2215 16.3335C39.9542 17.2723 41.5604 18.5222 42.9733 19.8498C44.8741 21.6101 45.1967 23.4651 44.3491 25.1792C43.5016 26.8932 41.7508 27.6319 39.2045 26.9928C37.4631 26.5693 35.6225 26.033 34.0802 25.1884C23.9871 19.5506 13.9156 13.8324 3.89508 8.08476C2.77394 7.43926 1.67727 6.5415 0.967271 5.48853C-0.838626 2.89095 0.716197 -0.0139477 3.89936 0.0193876C4.68481 0.0389947 5.49147 0.236617 6.38327 0.455103L6.38334 0.455121L6.38363 0.455198C6.90265 0.582351 7.4505 0.716564 8.03978 0.826857Z" fill="#6CADA0"/>
</svg>
