<svg xmlns="http://www.w3.org/2000/svg"  viewBox="0 0 48 48" width="48px" height="48px"><path fill="#43a047" d="M2 9H46V39H2z"/><path fill="#ff3d00" d="M2 9H46V29H2z"/><path fill="#03a9f4" d="M2 9H46V19H2z"/><path fill="#fff" d="M23.033 20A4 4 0 1 0 23.033 28A4 4 0 1 0 23.033 20Z"/><path fill="#ff3d00" d="M23.922 20.667A3.333 3.333 0 1 0 23.922 27.333A3.333 3.333 0 1 0 23.922 20.667Z"/><path fill="#fff" d="M27.778,21.778l0.425,1.196l1.146-0.545l-0.545,1.146L30,24l-1.196,0.425l0.545,1.146l-1.146-0.545l-0.425,1.196l-0.425-1.196l-1.146,0.545l0.545-1.146L25.556,24l1.196-0.425l-0.545-1.146l1.146,0.545L27.778,21.778z"/></svg>