<svg width="24" height="24" viewBox="0 0 24 24" fill="none" xmlns="http://www.w3.org/2000/svg">
<path d="M12 8.2501C12 6.1876 13.7344 4.47197 15.7969 4.5001C16.5192 4.50844 17.2237 4.72521 17.8257 5.12436C18.4278 5.5235 18.9017 6.08804 19.1906 6.7501H22.5L19.4719 9.77822C19.2764 12.82 17.9299 15.6732 15.7061 17.7577C13.4823 19.8422 10.548 21.0016 7.49999 21.0001C4.49999 21.0001 3.74999 19.8751 3.74999 19.8751C3.74999 19.8751 6.74999 18.7501 8.24999 16.5001C8.24999 16.5001 2.24999 13.5001 3.74999 5.2501C3.74999 5.2501 7.49999 9.0001 12 9.7501V8.2501Z" stroke="#0F5C4C" stroke-width="2" stroke-linecap="round" stroke-linejoin="round"/>
</svg>
