<svg width="24" height="24" viewBox="0 0 24 24" fill="none" xmlns="http://www.w3.org/2000/svg">
<path d="M15.375 12L10.125 8.625V15.375L15.375 12Z" stroke="#0F5C4C" stroke-width="2" stroke-linecap="round" stroke-linejoin="round"/>
<path d="M2.25 11.9999C2.25 14.7937 2.54062 16.4249 2.75625 17.2687C2.81571 17.4976 2.92813 17.7094 3.08447 17.8869C3.2408 18.0644 3.43666 18.2026 3.65625 18.2905C6.79688 19.4905 12 19.4624 12 19.4624C12 19.4624 17.2031 19.4905 20.3438 18.2905C20.5633 18.2026 20.7592 18.0644 20.9155 17.8869C21.0719 17.7094 21.1843 17.4976 21.2438 17.2687C21.4594 16.4249 21.75 14.7937 21.75 11.9999C21.75 9.20616 21.4594 7.57491 21.2438 6.73116C21.1843 6.50222 21.0719 6.29047 20.9155 6.11296C20.7592 5.93546 20.5633 5.79718 20.3438 5.70929C17.2031 4.50928 12 4.53741 12 4.53741C12 4.53741 6.79688 4.50928 3.65625 5.70929C3.43666 5.79718 3.2408 5.93546 3.08447 6.11296C2.92813 6.29047 2.81571 6.50222 2.75625 6.73116C2.54062 7.57491 2.25 9.20616 2.25 11.9999Z" stroke="#0F5C4C" stroke-width="2" stroke-linecap="round" stroke-linejoin="round"/>
</svg>
