<svg width="18" height="16" viewBox="0 0 18 16" fill="none" xmlns="http://www.w3.org/2000/svg">
<path d="M9 13.5L8.5114 14.3725C8.81495 14.5425 9.18505 14.5425 9.4886 14.3725L9 13.5ZM9 13.5C9.4886 14.3725 9.48885 14.3724 9.48912 14.3722L9.48977 14.3719L9.49152 14.3709L9.49671 14.3679L9.51377 14.3583C9.52806 14.3501 9.54815 14.3385 9.57363 14.3237C9.62459 14.294 9.69722 14.2511 9.78842 14.1956C9.97072 14.0846 10.2279 13.9231 10.5351 13.7162C11.1475 13.3038 11.9685 12.705 12.794 11.9621C14.3845 10.5306 16.25 8.33527 16.25 5.75001C16.25 4.76751 15.9096 3.81536 15.2867 3.05555C14.6638 2.29575 13.7969 1.77522 12.8335 1.58254C11.8701 1.38985 10.8697 1.53692 10.0024 1.9987L10.459 2.85618L10.0024 1.9987C9.631 2.1965 9.29382 2.4468 9 2.73961C8.70618 2.4468 8.369 2.1965 7.99755 1.9987C7.13034 1.53692 6.12992 1.38985 5.16651 1.58254C4.20309 1.77522 3.33619 2.29575 2.7133 3.05555C2.0904 3.81536 1.75 4.76751 1.75 5.75001C1.75 8.33527 3.61554 10.5306 5.20604 11.9621C6.03153 12.705 6.85246 13.3038 7.46491 13.7162C7.77211 13.9231 8.02928 14.0846 8.21158 14.1956C8.30278 14.2511 8.37541 14.294 8.42637 14.3237C8.45185 14.3385 8.47194 14.3501 8.48623 14.3583L8.50329 14.3679L8.50848 14.3709L8.51023 14.3719L8.51088 14.3722C8.51115 14.3724 8.5114 14.3725 9 13.5Z" stroke="#034033" stroke-width="2" stroke-linecap="round" stroke-linejoin="round"/>
</svg>
