<svg width="24" height="24" viewBox="0 0 24 24" fill="none" xmlns="http://www.w3.org/2000/svg">
<path d="M19.7156 3.3656L2.24062 8.28747C2.09187 8.32814 1.95926 8.41368 1.86088 8.53243C1.76249 8.65119 1.7031 8.79738 1.6908 8.95111C1.67851 9.10483 1.7139 9.25861 1.79215 9.3915C1.87041 9.52438 1.98772 9.62992 2.12812 9.69372L10.1531 13.4906C10.3103 13.5634 10.4366 13.6896 10.5094 13.8468L14.3062 21.8718C14.3701 22.0122 14.4756 22.1296 14.6085 22.2078C14.7414 22.2861 14.8951 22.3215 15.0489 22.3092C15.2026 22.2969 15.3488 22.2375 15.4675 22.1391C15.5863 22.0407 15.6718 21.9081 15.7125 21.7593L20.6344 4.28435C20.6717 4.15682 20.674 4.02162 20.6411 3.8929C20.6081 3.76418 20.5412 3.64669 20.4472 3.55274C20.3533 3.45879 20.2358 3.39184 20.1071 3.35892C19.9784 3.32599 19.8431 3.3283 19.7156 3.3656V3.3656Z" stroke="white" stroke-width="1.5" stroke-linecap="round" stroke-linejoin="round"/>
<path d="M10.3969 13.6031L14.6344 9.3656" stroke="white" stroke-width="1.5" stroke-linecap="round" stroke-linejoin="round"/>
</svg>
