<svg width="22" height="17" viewBox="0 0 22 17" fill="none" xmlns="http://www.w3.org/2000/svg">
<rect y="0.5" width="21.3333" height="16" rx="2" fill="white"/>
<mask id="mask0_1_3199" style="mask-type:alpha" maskUnits="userSpaceOnUse" x="0" y="0" width="22" height="17">
<rect y="0.5" width="21.3333" height="16" rx="2" fill="white"/>
</mask>
<g mask="url(#mask0_1_3199)">
<path fill-rule="evenodd" clip-rule="evenodd" d="M21.3333 0.5H0V1.56667H21.3333V0.5ZM21.3333 2.63346H0V3.70013H21.3333V2.63346ZM0 4.76667H21.3333V5.83333H0V4.76667ZM21.3333 6.9H0V7.96667H21.3333V6.9ZM0 9.0332H21.3333V10.0999H0V9.0332ZM21.3333 11.1667H0V12.2333H21.3333V11.1667ZM0 13.3001H21.3333V14.3668H0V13.3001ZM21.3333 15.4333H0V16.5H21.3333V15.4333Z" fill="#D02F44"/>
<rect y="0.5" width="9.14286" height="7.46667" fill="#46467F"/>
<g filter="url(#filter0_d_1_3199)">
<path fill-rule="evenodd" clip-rule="evenodd" d="M2.03183 2.09998C2.03183 2.39454 1.80442 2.63332 1.5239 2.63332C1.24337 2.63332 1.01596 2.39454 1.01596 2.09998C1.01596 1.80543 1.24337 1.56665 1.5239 1.56665C1.80442 1.56665 2.03183 1.80543 2.03183 2.09998ZM4.06358 2.09998C4.06358 2.39454 3.83617 2.63332 3.55564 2.63332C3.27512 2.63332 3.04771 2.39454 3.04771 2.09998C3.04771 1.80543 3.27512 1.56665 3.55564 1.56665C3.83617 1.56665 4.06358 1.80543 4.06358 2.09998ZM5.58739 2.63332C5.86791 2.63332 6.09532 2.39454 6.09532 2.09998C6.09532 1.80543 5.86791 1.56665 5.58739 1.56665C5.30686 1.56665 5.07945 1.80543 5.07945 2.09998C5.07945 2.39454 5.30686 2.63332 5.58739 2.63332ZM8.12707 2.09998C8.12707 2.39454 7.89966 2.63332 7.61913 2.63332C7.33861 2.63332 7.1112 2.39454 7.1112 2.09998C7.1112 1.80543 7.33861 1.56665 7.61913 1.56665C7.89966 1.56665 8.12707 1.80543 8.12707 2.09998ZM2.53985 3.70005C2.82037 3.70005 3.04778 3.46127 3.04778 3.16672C3.04778 2.87216 2.82037 2.63338 2.53985 2.63338C2.25932 2.63338 2.03191 2.87216 2.03191 3.16672C2.03191 3.46127 2.25932 3.70005 2.53985 3.70005ZM5.07952 3.16672C5.07952 3.46127 4.85211 3.70005 4.57159 3.70005C4.29106 3.70005 4.06365 3.46127 4.06365 3.16672C4.06365 2.87216 4.29106 2.63338 4.57159 2.63338C4.85211 2.63338 5.07952 2.87216 5.07952 3.16672ZM6.60326 3.69998C6.88379 3.69998 7.1112 3.4612 7.1112 3.16665C7.1112 2.8721 6.88379 2.63332 6.60326 2.63332C6.32274 2.63332 6.09533 2.8721 6.09533 3.16665C6.09533 3.4612 6.32274 3.69998 6.60326 3.69998ZM8.12707 4.23345C8.12707 4.528 7.89966 4.76678 7.61913 4.76678C7.33861 4.76678 7.1112 4.528 7.1112 4.23345C7.1112 3.9389 7.33861 3.70011 7.61913 3.70011C7.89966 3.70011 8.12707 3.9389 8.12707 4.23345ZM5.58733 4.76678C5.86785 4.76678 6.09526 4.528 6.09526 4.23345C6.09526 3.9389 5.86785 3.70011 5.58733 3.70011C5.3068 3.70011 5.07939 3.9389 5.07939 4.23345C5.07939 4.528 5.3068 4.76678 5.58733 4.76678ZM4.06357 4.23345C4.06357 4.528 3.83616 4.76678 3.55564 4.76678C3.27511 4.76678 3.0477 4.528 3.0477 4.23345C3.0477 3.9389 3.27511 3.70011 3.55564 3.70011C3.83616 3.70011 4.06357 3.9389 4.06357 4.23345ZM1.5239 4.76678C1.80442 4.76678 2.03183 4.528 2.03183 4.23345C2.03183 3.9389 1.80442 3.70011 1.5239 3.70011C1.24337 3.70011 1.01596 3.9389 1.01596 4.23345C1.01596 4.528 1.24337 4.76678 1.5239 4.76678ZM3.04764 5.29985C3.04764 5.5944 2.82023 5.83319 2.53971 5.83319C2.25918 5.83319 2.03177 5.5944 2.03177 5.29985C2.03177 5.0053 2.25918 4.76652 2.53971 4.76652C2.82023 4.76652 3.04764 5.0053 3.04764 5.29985ZM4.57159 5.83319C4.85211 5.83319 5.07952 5.5944 5.07952 5.29985C5.07952 5.0053 4.85211 4.76652 4.57159 4.76652C4.29106 4.76652 4.06365 5.0053 4.06365 5.29985C4.06365 5.5944 4.29106 5.83319 4.57159 5.83319ZM7.11126 5.29985C7.11126 5.5944 6.88385 5.83319 6.60332 5.83319C6.3228 5.83319 6.09539 5.5944 6.09539 5.29985C6.09539 5.0053 6.3228 4.76652 6.60332 4.76652C6.88385 4.76652 7.11126 5.0053 7.11126 5.29985ZM7.61913 6.89999C7.89966 6.89999 8.12707 6.6612 8.12707 6.36665C8.12707 6.0721 7.89966 5.83332 7.61913 5.83332C7.33861 5.83332 7.1112 6.0721 7.1112 6.36665C7.1112 6.6612 7.33861 6.89999 7.61913 6.89999ZM6.09532 6.36665C6.09532 6.6612 5.86791 6.89999 5.58739 6.89999C5.30686 6.89999 5.07945 6.6612 5.07945 6.36665C5.07945 6.0721 5.30686 5.83332 5.58739 5.83332C5.86791 5.83332 6.09532 6.0721 6.09532 6.36665ZM3.55564 6.89999C3.83617 6.89999 4.06358 6.6612 4.06358 6.36665C4.06358 6.0721 3.83617 5.83332 3.55564 5.83332C3.27512 5.83332 3.04771 6.0721 3.04771 6.36665C3.04771 6.6612 3.27512 6.89999 3.55564 6.89999ZM2.03183 6.36665C2.03183 6.6612 1.80442 6.89999 1.5239 6.89999C1.24337 6.89999 1.01596 6.6612 1.01596 6.36665C1.01596 6.0721 1.24337 5.83332 1.5239 5.83332C1.80442 5.83332 2.03183 6.0721 2.03183 6.36665Z" fill="url(#paint0_linear_1_3199)"/>
</g>
</g>
<defs>
<filter id="filter0_d_1_3199" x="1.01596" y="1.56665" width="7.11111" height="6.33325" filterUnits="userSpaceOnUse" color-interpolation-filters="sRGB">
<feFlood flood-opacity="0" result="BackgroundImageFix"/>
<feColorMatrix in="SourceAlpha" type="matrix" values="0 0 0 0 0 0 0 0 0 0 0 0 0 0 0 0 0 0 127 0" result="hardAlpha"/>
<feOffset dy="1"/>
<feColorMatrix type="matrix" values="0 0 0 0 0 0 0 0 0 0 0 0 0 0 0 0 0 0 0.06 0"/>
<feBlend mode="normal" in2="BackgroundImageFix" result="effect1_dropShadow_1_3199"/>
<feBlend mode="normal" in="SourceGraphic" in2="effect1_dropShadow_1_3199" result="shape"/>
</filter>
<linearGradient id="paint0_linear_1_3199" x1="1.01596" y1="1.56665" x2="1.01596" y2="6.89998" gradientUnits="userSpaceOnUse">
<stop stop-color="white"/>
<stop offset="1" stop-color="#F0F0F0"/>
</linearGradient>
</defs>
</svg>
